<svg id="Camada_1" data-name="Camada 1" xmlns="http://www.w3.org/2000/svg" viewBox="0 0 60 60"><defs><style>.cls-1{fill:#6c63ff;}</style></defs><title>icon_webdesign</title><rect class="cls-1" x="4" y="14" width="2" height="2"/><rect class="cls-1" x="12" y="4" width="2" height="2"/><rect class="cls-1" x="16" y="4" width="2" height="2"/><rect class="cls-1" x="20" y="4" width="2" height="2"/><rect class="cls-1" x="54" y="14" width="2" height="2"/><path class="cls-1" d="M61,12H54V3a1,1,0,0,0-1-1H11a1,1,0,0,0-1,1v9H3a1,1,0,0,0-1,1V58a1,1,0,0,0,1,1h7v2a1,1,0,0,0,1,1H53a1,1,0,0,0,1-1V59h7a1,1,0,0,0,1-1V13A1,1,0,0,0,61,12Zm-1,2v6H54V14ZM52,4v6h-12A9,9,0,0,0,24,10H12V4ZM35.5,20.06a1,1,0,0,0-.5.86V23H33V17.41l2.71-2.7-1.42-1.42L32,15.59l-2.29-2.3-1.42,1.42L31,17.41V23H29V20.92a1,1,0,0,0-.5-.86,7,7,0,1,1,7,0ZM28,29H47V43H17V29Zm1-2V25h6v2ZM10,14v6H4V14ZM4,57V22h6V57Zm8,3V12H23.23A9,9,0,0,0,27,21.48V23H25v2h2v2H16a1,1,0,0,0-1,1V44a1,1,0,0,0,1,1H48a1,1,0,0,0,1-1V28a1,1,0,0,0-1-1H37V25h2V23H37V21.48A9,9,0,0,0,40.77,12H52V60Zm42-3V22h6V57Z" transform="translate(-2 -2)"/><rect class="cls-1" x="17" y="45" width="2" height="2"/><rect class="cls-1" x="21" y="45" width="26" height="2"/><rect class="cls-1" x="13" y="49" width="34" height="2"/><rect class="cls-1" x="13" y="53" width="30" height="2"/><path class="cls-1" d="M27.4,39.8l1.2-1.6L25.67,36l2.93-2.2-1.2-1.6-4,3a1,1,0,0,0-.2,1.4,1,1,0,0,0,.2.2Z" transform="translate(-2 -2)"/><path class="cls-1" d="M36.6,39.8l4-3a1,1,0,0,0,.2-1.4,1,1,0,0,0-.2-.2l-4-3-1.2,1.6L38.33,36,35.4,38.2Z" transform="translate(-2 -2)"/><rect class="cls-1" x="26.62" y="35" width="10.77" height="2" transform="translate(-15.31 50.34) rotate(-68.19)"/></svg>