<svg id="Camada_1" data-name="Camada 1" xmlns="http://www.w3.org/2000/svg" viewBox="0 0 60 60"><defs><style>.cls-1{fill:#6c63ff;}</style></defs><title>icon_SocialMedia</title><rect class="cls-1" x="29" y="54" width="2" height="2"/><path class="cls-1" d="M6,26h8.7l5.75,3.83a1,1,0,0,0,1.38-.28A1,1,0,0,0,22,29V26h4a4,4,0,0,0,4-4V6a4,4,0,0,0-4-4H6A4,4,0,0,0,2,6V22A4,4,0,0,0,6,26ZM4,6A2,2,0,0,1,6,4H26a2,2,0,0,1,2,2V22a2,2,0,0,1-2,2H21a1,1,0,0,0-1,1v2.13l-4.44-3A1,1,0,0,0,15,24H6a2,2,0,0,1-2-2Z" transform="translate(-2 -2)"/><path class="cls-1" d="M9,22H21.6A2.39,2.39,0,0,0,24,19.6V14.4A2.39,2.39,0,0,0,21.6,12H20V10a4,4,0,0,0-4-4,2,2,0,0,0-2,2v2.59L12.59,12H9a1,1,0,0,0-1,1v8A1,1,0,0,0,9,22Zm6.71-10.29A1,1,0,0,0,16,11V8a2,2,0,0,1,2,2v2H17v2h4.6a.4.4,0,0,1,.4.4v5.2a.4.4,0,0,1-.4.4H14V13.41ZM10,14h2v6H10Z" transform="translate(-2 -2)"/><path class="cls-1" d="M58,10H47.9A5,5,0,0,0,43,6H32V8H43a3,3,0,0,1,2.82,2H40a4,4,0,0,0-3.44,2H32v2h4V28a4,4,0,0,0,4,4v3a1,1,0,0,0,1,1,1,1,0,0,0,.56-.17l4.44-3v7.72l-1.79-1.8a4.54,4.54,0,0,0-6.42,6.42h0l4.92,4.92a9.17,9.17,0,0,0-1,1.87H33v2h8.21a9.82,9.82,0,0,0,1,6H21a3,3,0,0,1-3-3h8a4,4,0,0,0,4-4V45a4,4,0,0,0-4-4H22V38a1,1,0,0,0-1-1,1,1,0,0,0-.56.17L18,38.8V30H16V40.13L14.7,41H6a4,4,0,0,0-4,4v8a4,4,0,0,0,4,4H16a5,5,0,0,0,5,5H43a4.4,4.4,0,0,0,.73-.06A1.31,1.31,0,0,0,44,62H56a1,1,0,0,0,1-1V42a11,11,0,0,0-2.68-7.19L52.12,32H58a4,4,0,0,0,4-4V14A4,4,0,0,0,58,10ZM6,55a2,2,0,0,1-2-2V45a2,2,0,0,1,2-2h9a1,1,0,0,0,.56-.17l4.44-3V42a1,1,0,0,0,1,1h5a2,2,0,0,1,2,2v8a2,2,0,0,1-2,2ZM52.78,36.12A9,9,0,0,1,55,42V60H44.51a7.76,7.76,0,0,1-.13-8.77l.45-.67a1,1,0,0,0-.12-1.27l-5.5-5.5a2.53,2.53,0,0,1,3.58-3.58l7.5,7.5,1.42-1.42L48,42.59V32h1.6ZM60,28a2,2,0,0,1-2,2H47a1,1,0,0,0-.56.17l-4.44,3V31a1,1,0,0,0-1-1H40a2,2,0,0,1-2-2V14a2,2,0,0,1,2-2H58a2,2,0,0,1,2,2Z" transform="translate(-2 -2)"/><path class="cls-1" d="M53.44,15.07a4.12,4.12,0,0,0-3.39.89l-1,.86L48,16a4.12,4.12,0,0,0-3.39-.89,4.33,4.33,0,0,0-3,2.22,4.85,4.85,0,0,0,1.18,6.11l5.6,4.39a1,1,0,0,0,1.24,0l5.6-4.39a4.85,4.85,0,0,0,1.18-6.11A4.35,4.35,0,0,0,53.44,15.07ZM54,21.82l-5,3.91-5-3.91a2.87,2.87,0,0,1-.66-3.57A2.31,2.31,0,0,1,44.94,17a1.72,1.72,0,0,1,.39,0,2.11,2.11,0,0,1,1.35.5l1.68,1.39a1,1,0,0,0,1.27,0l1.69-1.39A2.11,2.11,0,0,1,53.06,17a2.35,2.35,0,0,1,1.59,1.22A2.87,2.87,0,0,1,54,21.82Z" transform="translate(-2 -2)"/><rect class="cls-1" x="4" y="44" width="14" height="2"/><rect class="cls-1" x="20" y="44" width="4" height="2"/><rect class="cls-1" x="4" y="48" width="6" height="2"/><rect class="cls-1" x="12" y="48" width="12" height="2"/></svg>