<svg id="Camada_1" data-name="Camada 1" xmlns="http://www.w3.org/2000/svg" viewBox="0 0 78.1 82"><defs><style>.cls-1{fill:#6c63ff;}</style></defs><title>icon_site</title><path class="cls-1" d="M44.9,76.4H43.3a1,1,0,0,0-1,1,1.1,1.1,0,0,0,1,1h1.6a1,1,0,0,0,1-1A.9.9,0,0,0,44.9,76.4Z" transform="translate(-11 -9)"/><path class="cls-1" d="M88,9H26.9a.9.9,0,0,0-1,1V25.8h-7a1,1,0,0,0-1,1V37.5H16.8A5.8,5.8,0,0,0,11,43.3V77.6a5.8,5.8,0,0,0,5.8,5.8H35V89H32.3a1,1,0,1,0,0,2h22a1,1,0,1,0,0-2H51.6V83.4H69.8a5.8,5.8,0,0,0,5.8-5.8V65.2h4.8A8.5,8.5,0,0,0,89,56.6V10A.9.9,0,0,0,88,9ZM19.9,38.5V27.8h6V64.2a.9.9,0,0,0,1,1H69.3v6.2H19.9ZM13,43.3a3.8,3.8,0,0,1,3.8-3.8h1.1V71.4H13ZM49.6,89H37V83.4H49.6Zm24-11.4a3.8,3.8,0,0,1-3.8,3.8h-53A3.8,3.8,0,0,1,13,77.6V73.4H73.6Zm0-6.2H71.3V65.2h2.3ZM87,56.6a6.5,6.5,0,0,1-6.6,6.6H27.9V22.1H87Zm0-36.5H27.9V11H87Z" transform="translate(-11 -9)"/><path class="cls-1" d="M32.3,16.6h.5a1,1,0,0,0,1-1,.9.9,0,0,0-1-1h-.5a1,1,0,0,0-1,1A1.1,1.1,0,0,0,32.3,16.6Z" transform="translate(-11 -9)"/><path class="cls-1" d="M36,16.6h1.1a1.1,1.1,0,0,0,1-1,1,1,0,0,0-1-1H36a1,1,0,0,0-1,1A1.1,1.1,0,0,0,36,16.6Z" transform="translate(-11 -9)"/><path class="cls-1" d="M40.3,16.6h.5a1.1,1.1,0,0,0,1-1,1,1,0,0,0-1-1h-.5a.9.9,0,0,0-1,1A1,1,0,0,0,40.3,16.6Z" transform="translate(-11 -9)"/><path class="cls-1" d="M34,57.9H50.4a2.2,2.2,0,0,0,2.2-2.2V42.5a2.2,2.2,0,0,0-2.2-2.2H34a2.2,2.2,0,0,0-2.2,2.2V55.7A2.2,2.2,0,0,0,34,57.9Zm16.6-2.2a.2.2,0,0,1-.2.2H48l-5.5-5.1L48,45.9l2.6,2.3ZM33.8,42.5a.2.2,0,0,1,.2-.2H50.4a.2.2,0,0,1,.2.2v3l-1.9-1.7a1.2,1.2,0,0,0-1.4,0l-6.2,5.6-2.7-2.5a1.1,1.1,0,0,0-1.3,0l-3.3,2.7Zm0,9.7L37.7,49,45,55.9H34a.2.2,0,0,1-.2-.2Z" transform="translate(-11 -9)"/><path class="cls-1" d="M32.8,37.3H82.1a1,1,0,0,0,1-1V28.4a1,1,0,0,0-1-1H32.8a1,1,0,0,0-1,1v7.9A1,1,0,0,0,32.8,37.3Zm1-7.9H81.1v5.9H33.8Z" transform="translate(-11 -9)"/><path class="cls-1" d="M82.1,40.3H55.4a1,1,0,0,0-1,1V56.8a1.1,1.1,0,0,0,1,1H82.1a1,1,0,0,0,1-1V41.3A.9.9,0,0,0,82.1,40.3Zm-1,15.5H56.4V42.3H81.1Z" transform="translate(-11 -9)"/><path class="cls-1" d="M59.9,46.8H77.7a1,1,0,0,0,1-1,.9.9,0,0,0-1-1H59.9a.9.9,0,0,0-1,1A1,1,0,0,0,59.9,46.8Z" transform="translate(-11 -9)"/><path class="cls-1" d="M59.9,50H77.7a.9.9,0,0,0,1-1,1,1,0,0,0-1-1H59.9a1,1,0,0,0-1,1A.9.9,0,0,0,59.9,50Z" transform="translate(-11 -9)"/><path class="cls-1" d="M74.7,51.3H74a1,1,0,0,0-1,1,1.1,1.1,0,0,0,1,1h.7a1,1,0,0,0,1-1A.9.9,0,0,0,74.7,51.3Z" transform="translate(-11 -9)"/><path class="cls-1" d="M59.9,53.3H70.4a1.1,1.1,0,0,0,1-1,1,1,0,0,0-1-1H59.9a.9.9,0,0,0-1,1A1,1,0,0,0,59.9,53.3Z" transform="translate(-11 -9)"/></svg>