<svg id="Camada_1" data-name="Camada 1" xmlns="http://www.w3.org/2000/svg" viewBox="0 0 480.02 480.01"><defs><style>.cls-1{fill:#6c63ff;}</style></defs><title>icon_webtraffic</title><rect class="cls-1" x="184.02" y="208" width="16" height="48"/><rect class="cls-1" x="208.02" y="216" width="16" height="40"/><rect class="cls-1" x="232.02" y="200" width="16" height="56"/><rect class="cls-1" x="304.02" y="232" width="16" height="24"/><rect class="cls-1" x="160.02" y="224" width="16" height="32"/><rect class="cls-1" x="256.02" y="208" width="16" height="48"/><rect class="cls-1" x="280.02" y="216" width="16" height="40"/><path class="cls-1" d="M408,336a72.07,72.07,0,0,1,72,72h16a88.1,88.1,0,0,0-88-88V290a18,18,0,0,0-18-18H360V240h30a18,18,0,0,0,18-18V192a88,88,0,1,0-87.64-96H296V88a8,8,0,0,0-8-8H224a8,8,0,0,0-8,8v8H191.64A88,88,0,0,0,23.33,68.8L38,75.2a72,72,0,1,1,114.15,82.29V142a38,38,0,0,0-21-34,27.85,27.85,0,0,0,5-16V76a28,28,0,0,0-28-28h-8a28,28,0,0,0-28,28V92a27.93,27.93,0,0,0,5,16,38.05,38.05,0,0,0-21,34v15.75A71.85,71.85,0,0,1,32,104a72.61,72.61,0,0,1,1.44-14.41L17.76,86.41A88.09,88.09,0,0,0,96,191.64V222a18,18,0,0,0,18,18h38v32H114a18,18,0,0,0-18,18v30.36A88,88,0,1,0,191.64,416H216v8a8,8,0,0,0,8,8h64a8,8,0,0,0,8-8v-8h24.36a88,88,0,0,0,173.88,9.59l-15.68-3.18a71.66,71.66,0,0,1-22.42,39.07V446a38,38,0,0,0-21-34,27.85,27.85,0,0,0,5-16V380a28,28,0,0,0-28-28h-8a28,28,0,0,0-28,28v16a27.93,27.93,0,0,0,5,16,38.05,38.05,0,0,0-21,34v15.75A72,72,0,0,1,408,336Zm-15.86,44a12,12,0,0,1,12-12h8a12,12,0,0,1,12,12v16a12,12,0,0,1-12,12h-8a12,12,0,0,1-12-12Zm-16,66a22,22,0,0,1,22-22h20a22,22,0,0,1,22,22v26.39a71.79,71.79,0,0,1-64,.17ZM272.41,341.47A8.07,8.07,0,0,0,272,344v8H240v-8a8.07,8.07,0,0,0-.41-2.53L235.1,328h41.8ZM170,312a2,2,0,0,1-2-2v-6H344v6a2,2,0,0,1-2,2Zm174-24H168V202a2,2,0,0,1,2-2H342a2,2,0,0,1,2,2Zm32.14-119.44V142a22,22,0,0,1,22-22h20a22,22,0,0,1,22,22v26.42A71.92,71.92,0,0,1,376.14,168.56Zm48-76.56a12,12,0,0,1-12,12h-8a12,12,0,0,1-12-12V76a12,12,0,0,1,12-12h8a12,12,0,0,1,12,12ZM408,32a72,72,0,0,1,48.14,125.49V142a38,38,0,0,0-21-34,27.85,27.85,0,0,0,5-16V76a28,28,0,0,0-28-28h-8a28,28,0,0,0-28,28V92a27.93,27.93,0,0,0,5,16,38.05,38.05,0,0,0-21,34v15.75A72,72,0,0,1,408,32ZM232,96h48v16H232ZM88.14,76a12,12,0,0,1,12-12h8a12,12,0,0,1,12,12V92a12,12,0,0,1-12,12h-8a12,12,0,0,1-12-12Zm-16,66a22,22,0,0,1,22-22h20a22,22,0,0,1,22,22v26.42a71.92,71.92,0,0,1-64,.14ZM114,224a2,2,0,0,1-2-2V191.64A88.17,88.17,0,0,0,191.64,112H216v8a8,8,0,0,0,8,8h64a8,8,0,0,0,8-8v-8h24.36A88.19,88.19,0,0,0,392,190.54V222a2,2,0,0,1-2,2H360V202a18,18,0,0,0-18-18H170a18,18,0,0,0-18,18v22ZM72.14,472.56V446a22,22,0,0,1,22-22h20a22,22,0,0,1,22,22v26.42A71.92,71.92,0,0,1,72.14,472.56Zm48-76.56a12,12,0,0,1-12,12h-8a12,12,0,0,1-12-12V380a12,12,0,0,1,12-12h8a12,12,0,0,1,12,12Zm32,65.49V446a38,38,0,0,0-21-34,27.85,27.85,0,0,0,5-16V380a28,28,0,0,0-28-28h-8a28,28,0,0,0-28,28v16a27.93,27.93,0,0,0,5,16,38.05,38.05,0,0,0-21,34v15.75a72,72,0,1,1,101.65-5.94A68.82,68.82,0,0,1,152.14,461.49ZM280,416H232V400h48Zm40.36-16H296v-8a8,8,0,0,0-8-8H224a8,8,0,0,0-8,8v8H191.64A88.17,88.17,0,0,0,112,320.36V290a2,2,0,0,1,2-2h38v22a18,18,0,0,0,18,18h48.23L224,345.3V352H208v16h96V352H288v-6.7l5.77-17.3H342a18,18,0,0,0,18-18V288h30a2,2,0,0,1,2,2v31.46A88.19,88.19,0,0,0,320.36,400Z" transform="translate(-15.98 -16)"/></svg>