<svg id="Camada_1" data-name="Camada 1" xmlns="http://www.w3.org/2000/svg" viewBox="0 0 64 64"><defs><style>.cls-1{fill:#6c63ff;}</style></defs><title>icon_responsive</title><path class="cls-1" d="M28,52H5a5,5,0,0,1-5-5V5A5,5,0,0,1,5,0H7V2H5A3,3,0,0,0,2,5V47a3,3,0,0,0,3,3H28Z"/><rect class="cls-1" x="9" width="2" height="2"/><path class="cls-1" d="M59,52V50a3,3,0,0,0,3-3V5a3,3,0,0,0-3-3H13V0H59a5,5,0,0,1,5,5V47A5,5,0,0,1,59,52Z"/><rect class="cls-1" x="18.44" y="52" width="4.12" height="2" transform="translate(-35.89 60.03) rotate(-75.96)"/><path class="cls-1" d="M28,60H18a1,1,0,0,1-1-1V57a3,3,0,0,1,3-3h8v2H20a1,1,0,0,0-1,1v1h9Z"/><rect class="cls-1" x="1" y="42" width="27" height="2"/><rect class="cls-1" x="4" y="46" width="2" height="2"/><rect class="cls-1" x="8" y="46" width="6" height="2"/><path class="cls-1" d="M55,64H35a5,5,0,0,1-5-5V19a5,5,0,0,1,5-5H55a5,5,0,0,1,5,5V59A5,5,0,0,1,55,64ZM35,16a3,3,0,0,0-3,3V59a3,3,0,0,0,3,3H55a3,3,0,0,0,3-3V19a3,3,0,0,0-3-3Z"/><path class="cls-1" d="M50,24H40c-1.87,0-2.66-1.63-2.91-3H31V19h7a1,1,0,0,1,1,1s.06,2,1,2H50c.94,0,1-2,1-2a1,1,0,0,1,1-1h7v2H52.91C52.66,22.37,51.87,24,50,24Z"/><rect class="cls-1" x="41" y="18" width="8" height="2"/><rect class="cls-1" x="41" y="59" width="8" height="2"/><rect class="cls-1" x="31" y="56" width="28" height="2"/><path class="cls-1" d="M18,28H14a1,1,0,0,1-1-1V25.53a9.53,9.53,0,0,1-1.62-.67l-1,1a1,1,0,0,1-1.41,0L6.1,23.07a1,1,0,0,1,0-1.41l1-1A9.53,9.53,0,0,1,6.47,19H5a1,1,0,0,1-1-1V14a1,1,0,0,1,1-1H6.47a9.53,9.53,0,0,1,.67-1.62l-1-1a1,1,0,0,1,0-1.41L8.93,6.1a1,1,0,0,1,1.41,0l1,1A9.53,9.53,0,0,1,13,6.47V5a1,1,0,0,1,1-1h4a1,1,0,0,1,1,1V6.47a9.53,9.53,0,0,1,1.62.67l1-1a1,1,0,0,1,1.41,0L25.9,8.93a1,1,0,0,1,0,1.41l-1,1A9.53,9.53,0,0,1,25.53,13H27a1,1,0,0,1,1,1v4a1,1,0,0,1-1,1H25.53a9.53,9.53,0,0,1-.67,1.62l1,1a1,1,0,0,1,0,1.41L23.07,25.9a1,1,0,0,1-1.41,0l-1-1a9.53,9.53,0,0,1-1.62.67V27A1,1,0,0,1,18,28Zm-3-2h2V24.77a1,1,0,0,1,.78-1,8,8,0,0,0,2.47-1,1,1,0,0,1,1.24.14l.87.87,1.42-1.42-.87-.87a1,1,0,0,1-.14-1.24,8,8,0,0,0,1-2.47,1,1,0,0,1,1-.78H26V15H24.77a1,1,0,0,1-1-.78,8,8,0,0,0-1-2.47,1,1,0,0,1,.14-1.24l.87-.87L22.36,8.22l-.87.87a1,1,0,0,1-1.24.14,8,8,0,0,0-2.47-1,1,1,0,0,1-.78-1V6H15V7.23a1,1,0,0,1-.78,1,8,8,0,0,0-2.47,1,1,1,0,0,1-1.24-.14l-.87-.87L8.22,9.64l.87.87a1,1,0,0,1,.14,1.24,8,8,0,0,0-1,2.47,1,1,0,0,1-1,.78H6v2H7.23a1,1,0,0,1,1,.78,8,8,0,0,0,1,2.47,1,1,0,0,1-.14,1.24l-.87.87,1.42,1.42.87-.87a1,1,0,0,1,1.24-.14,8,8,0,0,0,2.47,1,1,1,0,0,1,.78,1Z"/><path class="cls-1" d="M16,21a5,5,0,1,1,5-5A5,5,0,0,1,16,21Zm0-8a3,3,0,1,0,3,3A3,3,0,0,0,16,13Z"/><path class="cls-1" d="M17,41H15V37a1,1,0,0,1,1-1h1.47a9.53,9.53,0,0,1,.67-1.62l-1-1a1,1,0,0,1,0-1.41l2.83-2.83a1,1,0,0,1,1.41,0l1,1A9.53,9.53,0,0,1,24,29.47V28a1,1,0,0,1,1-1h4v2H26v1.23a1,1,0,0,1-.78,1,8,8,0,0,0-2.47,1,1,1,0,0,1-1.24-.14l-.87-.87-1.42,1.42.87.87a1,1,0,0,1,.14,1.24,8,8,0,0,0-1,2.47,1,1,0,0,1-1,.78H17Z"/><path class="cls-1" d="M24,39H22a5,5,0,0,1,5-5v2A3,3,0,0,0,24,39Z"/><path class="cls-1" d="M45,50A11,11,0,1,1,56,39,11,11,0,0,1,45,50Zm0-20a9,9,0,1,0,9,9A9,9,0,0,0,45,30Z"/><path class="cls-1" d="M43,46a1,1,0,0,1-.71-.29l-5-5a1,1,0,0,1,0-1.42l3-3a1,1,0,0,1,1.42,0L43,37.59l5.29-5.3a1,1,0,0,1,1.42,0l3,3a1,1,0,0,1,0,1.42l-9,9A1,1,0,0,1,43,46Zm-3.59-6L43,43.59,50.59,36,49,34.41l-5.29,5.3a1,1,0,0,1-1.42,0L41,38.41Z"/><rect class="cls-1" x="57" y="4" width="2" height="2"/><rect class="cls-1" x="42" y="4" width="13" height="2"/><rect class="cls-1" x="4.5" width="13" height="2"/><rect class="cls-1" x="29" y="27" width="2" height="2"/><rect class="cls-1" x="15" y="40" width="2" height="2"/><rect class="cls-1" x="22" y="38" width="2" height="2"/><rect class="cls-1" x="22" y="40" width="2" height="2"/><rect class="cls-1" x="27" y="34" width="2" height="2"/><rect class="cls-1" x="29" y="34" width="2" height="2"/><rect class="cls-1" x="55" y="4" width="2" height="2"/><rect class="cls-1" x="6" y="46" width="2" height="2"/><rect class="cls-1" x="17.5" y="50" width="13" height="2"/><rect class="cls-1" x="20" y="54" width="11" height="2"/><rect class="cls-1" x="18.5" y="58" width="13" height="2"/><rect class="cls-1" x="18.5" y="42" width="13" height="2"/><rect class="cls-1" x="60" y="42" width="2" height="2"/></svg>