<svg id="Camada_1" data-name="Camada 1" xmlns="http://www.w3.org/2000/svg" viewBox="0 0 512 512"><defs><style>.cls-1{fill:#6c63ff;}</style></defs><title>icon_EmailMarketing</title><path class="cls-1" d="M181.33,448h-128a10.67,10.67,0,1,0,0,21.34h128a10.67,10.67,0,1,0,0-21.34Z"/><path class="cls-1" d="M53.33,426.66H96a10.66,10.66,0,0,0,0-21.32H53.33a10.66,10.66,0,1,0,0,21.32Z"/><path class="cls-1" d="M494.25,201.5,429.05,158a61.54,61.54,0,0,0-34.53-92.86L383.91,0,210.6,81.4h0l-86,14a8.76,8.76,0,0,0-7.24,10l2.82,17.28-25.92,4.22A8.74,8.74,0,0,0,87,137l2.69,16.57L17.75,201.5C8,208,0,222.93,0,234.66v256A21.38,21.38,0,0,0,21.33,512H490.66A21.39,21.39,0,0,0,512,490.66v-256C512,222.93,504,208,494.25,201.5ZM403.48,93.6a40.16,40.16,0,0,1,4.86,56.57l-9.78-60.09A39.66,39.66,0,0,1,403.48,93.6Zm-5.81,123.81L251.56,200.3,234.24,93.87,367.41,31.33ZM220.34,254.76l21.43,39.57-31.43,5.11-29.45-71.33,42.94-7-5.18,17.38L216.13,247ZM214,102.45l15.63,96.11-73.63,12-15.64-96.1Zm-90.47,41.33,7.2,44.27-13.5,2.19L110.05,146Zm-94,75.47,63.86-42.57,4.78,29.41a8.76,8.76,0,0,0,8.63,7.35,8.39,8.39,0,0,0,1.41-.12l25.92-4.21L137,226.38a8.71,8.71,0,0,0,10,7.24l12.22-2,37.82,91.59,77.75-12.66-35.74-66,7-23.47,177.18,20.75-10.85-66.8c.59-.42,1.21-.85,1.81-1.3l68.19,45.47a11.55,11.55,0,0,1,2,1.76L283.67,353.06a43.3,43.3,0,0,0-55.83-.4L27.6,221A12.31,12.31,0,0,1,29.58,219.25ZM255.52,364a22,22,0,1,1-22,22A22,22,0,0,1,255.52,364ZM490.63,490.66H21.37l0,0V242.41L215.27,369.94a43.31,43.31,0,1,0,80.73.56L490.66,242.42v248.2A0,0,0,0,1,490.63,490.66Z"/></svg>