<svg id="Camada_1" data-name="Camada 1" xmlns="http://www.w3.org/2000/svg" viewBox="0 0 88 88"><defs><style>.cls-1{fill:#6c63ff;}</style></defs><title>icon_webtraffic</title><path class="cls-1" d="M86,27.3V16A12,12,0,0,0,74,4H22A12,12,0,0,0,10,16V58.3a7.94,7.94,0,0,0,0,15.4V80A12,12,0,0,0,22,92H74A12,12,0,0,0,86,80V42.7a7.94,7.94,0,0,0,0-15.4ZM22,8H74a8,8,0,0,1,8,8V27.3A8,8,0,0,0,76,35a7.51,7.51,0,0,0,2,5.2L67.1,51.1a8.07,8.07,0,0,0-11.4,3.6L40.9,44.8A8,8,0,0,0,25,46a7.73,7.73,0,0,0,.8,3.4l-9.7,9.7a6.67,6.67,0,0,0-2.1-.9V16A8,8,0,0,1,22,8ZM67,58a4,4,0,1,1-4-4,3.63,3.63,0,0,1,2.8,1.2h0A3.63,3.63,0,0,1,67,58ZM29,46a4,4,0,1,1,4,4A4,4,0,0,1,29,46Zm6,7.7a8,8,0,0,0,5.3-4.5l14.8,9.9A8,8,0,0,0,61,65.7V88H35ZM8,66a4,4,0,0,1,4-4,3.63,3.63,0,0,1,2.8,1.2h0A4,4,0,1,1,8,66Zm6,14V73.7a8,8,0,0,0,4.9-11.8l9.5-9.5a6.6,6.6,0,0,0,2.7,1.2V88h-9A8,8,0,0,1,14,80Zm60,8H65V65.7a8,8,0,0,0,4.9-11.8L81.3,42.5a1.85,1.85,0,0,0,.7.2V80A8,8,0,0,1,74,88ZM84,39a4,4,0,1,1,4-4A4,4,0,0,1,84,39Z" transform="translate(-4 -4)"/></svg>