<svg id="Camada_1" data-name="Camada 1" xmlns="http://www.w3.org/2000/svg" viewBox="0 0 65.5 65.41"><defs><style>.cls-1{fill:#6c63ff;}</style></defs><title>icon_EmailMarketing</title><path class="cls-1" d="M11.38,63.45a2.75,2.75,0,0,0,2.75,2.75H54.25A2.75,2.75,0,0,0,57,63.45V34.32h8.5a.75.75,0,0,0,.75-.75v-20a.76.76,0,0,0-.75-.75H57V3.55A2.75,2.75,0,0,0,54.25.8H14.13a2.75,2.75,0,0,0-2.75,2.75V30.72H1.5a.77.77,0,0,0-.75.74h0V50.69h0a.59.59,0,0,0,.05.22.73.73,0,0,0,.7.52h9.88Zm44.12,0a1.25,1.25,0,0,1-1.25,1.25H14.13a1.25,1.25,0,0,1-1.25-1.25V59.79H55.5Zm9.25-49.17V32.82H48a.75.75,0,0,0-.53.22l-5,5V33.57a.76.76,0,0,0-.75-.75H38.39V14.28ZM12.88,3.55A1.25,1.25,0,0,1,14.13,2.3H54.25A1.25,1.25,0,0,1,55.5,3.55V7.21H12.88Zm0,5.16H55.5v4.07H37.64a.76.76,0,0,0-.75.75v20a.75.75,0,0,0,.75.75h3.29v5.56a.75.75,0,0,0,.46.7.81.81,0,0,0,.82-.16l6.11-6.1H55.5v24H12.88V51.44H27.55a.77.77,0,0,0,.75-.76V31.45a.77.77,0,0,0-.75-.73H12.88ZM26.8,48.83l-8.07-8.35,8.07-7.31ZM25.61,32.22,14.53,42.27,3.44,32.22Zm-23.36,1,8.07,7.31L2.25,48.84Zm1,16.77,8.18-8.45L14,43.84a.75.75,0,0,0,1,0l2.59-2.35,8.17,8.45Z" transform="translate(-0.75 -0.8)"/><path class="cls-1" d="M59.51,27.46a3.27,3.27,0,1,0-3.26-3.26A3.26,3.26,0,0,0,59.51,27.46Zm0-5a1.77,1.77,0,1,1-1.76,1.77A1.77,1.77,0,0,1,59.51,22.43Z" transform="translate(-0.75 -0.8)"/><path class="cls-1" d="M51.57,27.46a3.27,3.27,0,1,0-3.26-3.26A3.26,3.26,0,0,0,51.57,27.46Zm0-5a1.77,1.77,0,1,1-1.76,1.77A1.77,1.77,0,0,1,51.57,22.43Z" transform="translate(-0.75 -0.8)"/><path class="cls-1" d="M43.63,27.46a3.27,3.27,0,1,0-3.26-3.26A3.26,3.26,0,0,0,43.63,27.46Zm0-5a1.77,1.77,0,1,1-1.76,1.77A1.77,1.77,0,0,1,43.63,22.43Z" transform="translate(-0.75 -0.8)"/><path class="cls-1" d="M34.19,64.36a2.12,2.12,0,1,0-2.12-2.11A2.12,2.12,0,0,0,34.19,64.36Zm0-2.73a.62.62,0,1,1,0,1.23.62.62,0,1,1,0-1.23Z" transform="translate(-0.75 -0.8)"/><path class="cls-1" d="M41.46,4H32.1a.75.75,0,0,0,0,1.5h9.36a.75.75,0,0,0,0-1.5Z" transform="translate(-0.75 -0.8)"/><path class="cls-1" d="M29.93,4h-3a.75.75,0,0,0,0,1.5h3a.75.75,0,0,0,0-1.5Z" transform="translate(-0.75 -0.8)"/><path class="cls-1" d="M17.23,15.17h14.1a.75.75,0,0,0,0-1.5H17.23a.75.75,0,0,0,0,1.5Z" transform="translate(-0.75 -0.8)"/><path class="cls-1" d="M17.23,19h14.1a.75.75,0,0,0,0-1.5H17.23a.75.75,0,0,0,0,1.5Z" transform="translate(-0.75 -0.8)"/><path class="cls-1" d="M17.23,22.81h14.1a.75.75,0,0,0,0-1.5H17.23a.75.75,0,0,0,0,1.5Z" transform="translate(-0.75 -0.8)"/><path class="cls-1" d="M32.08,25.88a.74.74,0,0,0-.75-.75H17.23a.75.75,0,0,0,0,1.5h14.1A.75.75,0,0,0,32.08,25.88Z" transform="translate(-0.75 -0.8)"/><path class="cls-1" d="M37.64,45.2h14.6a.75.75,0,0,0,0-1.5H37.64a.75.75,0,0,0,0,1.5Z" transform="translate(-0.75 -0.8)"/><path class="cls-1" d="M37.64,48.73h14.6a.75.75,0,0,0,0-1.5H37.64a.75.75,0,0,0,0,1.5Z" transform="translate(-0.75 -0.8)"/><path class="cls-1" d="M37.64,52.26h14.6a.75.75,0,0,0,0-1.5H37.64a.75.75,0,0,0,0,1.5Z" transform="translate(-0.75 -0.8)"/><path class="cls-1" d="M37.64,55.78h14.6a.75.75,0,1,0,0-1.5H37.64a.75.75,0,0,0,0,1.5Z" transform="translate(-0.75 -0.8)"/></svg>