<svg id="Camada_1" data-name="Camada 1" xmlns="http://www.w3.org/2000/svg" viewBox="0 0 62 62.96"><defs><style>.cls-1{fill:#6c63ff;}</style></defs><title>icon_SEO</title><path class="cls-1" d="M50,7a7,7,0,1,0,7,7A7,7,0,0,0,50,7Zm0,12a5,5,0,1,1,5-5A5,5,0,0,1,50,19Z" transform="translate(-1 -1)"/><path class="cls-1" d="M50,11a3,3,0,1,0,3,3A3,3,0,0,0,50,11Zm0,4a1,1,0,1,1,1-1A1,1,0,0,1,50,15Z" transform="translate(-1 -1)"/><path class="cls-1" d="M62.94,11h-1a1.93,1.93,0,0,1-1.78-1.22,1.91,1.91,0,0,1,.45-2.14l.7-.71L57.78,3.39,57,2.73l-.71.7A2,2,0,0,1,53,2V1H48l-1,.06v1a2,2,0,0,1-3.37,1.33l-.71-.7L40.62,5H8A3,3,0,0,0,5,8V31.84A15,15,0,0,0,25.86,53.28l.14.13v5L31.54,64l1.29-5.14L38,57.54,32.41,52h-5l-.13-.14a15.34,15.34,0,0,0,2-2.86H56a3,3,0,0,0,3-3V23.39l1.61-1.61.66-.75-.7-.71A2,2,0,0,1,61.94,17H63V12ZM31.59,54,34,56.46l-1.73.43L29.41,54ZM28,55.41l2.89,2.9L30.46,60,28,57.59ZM7,8A1,1,0,0,1,8,7H38.76l.67.68a1.93,1.93,0,0,1,.4,2.14A2,2,0,0,1,38,11H37v2H7ZM25.86,50.45,24.45,49A11,11,0,1,0,23,50.45l1.42,1.41a13,13,0,1,1,1.41-1.41ZM16,35a7,7,0,1,0,4.18,12.6L21.61,49A9.11,9.11,0,1,1,23,47.61L21.6,46.18A7,7,0,0,0,16,35Zm2.75,11.17a5,5,0,1,1,1.42-1.42l-3.46-3.46-1.42,1.42ZM11,27.88V19H21v8.88a14.64,14.64,0,0,0-10,0ZM57,46a1,1,0,0,1-1,1H30.13A14.95,14.95,0,0,0,23,28.74V17H9V28.74A15.5,15.5,0,0,0,7,30V15H37v1l.06,1h1a1.93,1.93,0,0,1,1.78,1.22,1.91,1.91,0,0,1-.45,2.14l-.7.71,3.53,3.54.75.66.71-.7a1.91,1.91,0,0,1,2.14-.4A1.94,1.94,0,0,1,47,26v1h5l1-.06v-1a2,2,0,0,1,3.36-1.33l.64.63Zm4-30.89A4,4,0,0,0,58.57,21L57,22.57A4,4,0,0,0,51.12,25H48.88A4,4,0,0,0,43,22.57L41.43,21A4,4,0,0,0,39,15.12V12.89A4,4,0,0,0,41.43,7L43,5.43A4,4,0,0,0,48.88,3h2.23a4,4,0,0,0,2.34,2.69A3.89,3.89,0,0,0,57,5.43L58.56,7a4,4,0,0,0-.24,3.57A3.9,3.9,0,0,0,61,12.88v2.23Z" transform="translate(-1 -1)"/><rect class="cls-1" x="8" y="8" width="2" height="2"/><rect class="cls-1" x="12" y="8" width="2" height="2"/><rect class="cls-1" x="16" y="8" width="2" height="2"/><rect class="cls-1" x="24" y="18" width="12" height="2"/><rect class="cls-1" x="24" y="22" width="12" height="2"/><rect class="cls-1" x="34" y="26" width="2" height="2"/><rect class="cls-1" x="30" y="26" width="2" height="2"/><rect class="cls-1" x="26" y="26" width="2" height="2"/><path class="cls-1" d="M49,43H47V33H41V43H39V37H33v8H55V29H49ZM37,43H35V39h2Zm8,0H43V35h2Zm6-12h2V43H51Z" transform="translate(-1 -1)"/></svg>