<svg id="fd59ce54-f850-4dfc-bc34-dd7d379d600e" xmlns="http://www.w3.org/2000/svg" viewBox="0 0 964.83 412.21"><defs><style>.cls-1{fill:#2f2e41;}.cls-2{fill:#6c63ff;}.cls-3{fill:#3f3d56;}</style></defs><title>404</title><path class="cls-1" d="M520.43,167c-85.95,0-147.66,55.14-147.66,183.8,0,145.81,61.71,184.41,147.66,184.41s151.32-42.28,151.32-184.41C671.75,198.87,606.37,167,520.43,167ZM521,486.82c-59.53,0-90.63-34.92-90.63-135.92,0-89.11,32.38-136.1,91.9-136.1s91.9,30.86,91.9,136.1C614.16,449.35,580.52,486.82,521,486.82Z" transform="translate(-54.8 -155.48)"/><path class="cls-2" d="M321.31,433.52H285.78V328.88a21,21,0,0,0-21-21h-8.33a21,21,0,0,0-21,21h0V433.52H135.31A12,12,0,0,1,124.73,416L230.81,215.18a20.94,20.94,0,0,0-8.74-28.31q-.4-.23-.84-.42l-6.26-3a21,21,0,0,0-27.43,9.07l-129.38,242A28.45,28.45,0,0,0,54.8,448h0A28.42,28.42,0,0,0,83.22,476.4H235.54v66.17a25.12,25.12,0,0,0,25.12,25.12h0a25.12,25.12,0,0,0,25.12-25.12h0V476.4h35.53A21.44,21.44,0,0,0,342.75,455h0a21.44,21.44,0,0,0-21.44-21.44Z" transform="translate(-54.8 -155.48)"/><path class="cls-2" d="M979.31,433.52H943.77V328.88a21,21,0,0,0-20.95-21h-8.33a21,21,0,0,0-21,21h0V433.52H793.31A12,12,0,0,1,782.73,416L888.81,215.18a21,21,0,0,0-8.74-28.31l-.84-.42-6.26-3a21,21,0,0,0-27.43,9.07l-129.38,242A28.33,28.33,0,0,0,712.8,448h0a28.41,28.41,0,0,0,28.42,28.41H893.54v66.17a25.12,25.12,0,0,0,25.11,25.12h0a25.12,25.12,0,0,0,25.12-25.12h0V476.4h35.54A21.44,21.44,0,0,0,1000.75,455h0a21.44,21.44,0,0,0-21.44-21.44Z" transform="translate(-54.8 -155.48)"/><path class="cls-3" d="M270.46,555.94a25.65,25.65,0,0,1-25.62-25.62V464.65H93a28.93,28.93,0,0,1-25.5-42.55l129.38-242A21.44,21.44,0,0,1,225,170.78l6.26,3,.86.43a21.45,21.45,0,0,1,8.95,29L135,404a11.45,11.45,0,0,0,10.13,16.81h99.73V316.62a21.48,21.48,0,0,1,21.46-21.45h8.32a21.48,21.48,0,0,1,21.46,21.45V420.76h35a21.95,21.95,0,1,1,0,43.89h-35v65.67A25.65,25.65,0,0,1,270.46,555.94ZM215.83,169.72a20.43,20.43,0,0,0-18,10.82L68.4,422.57A27.93,27.93,0,0,0,93,463.65H245.84v66.67a24.62,24.62,0,0,0,49.24,0V463.65h36a20.95,20.95,0,1,0,0-41.89h-36V316.62a20.48,20.48,0,0,0-20.46-20.45H266.3a20.48,20.48,0,0,0-20.46,20.45V421.76H145.11a12.46,12.46,0,0,1-11-18.28L240.17,202.7a20.47,20.47,0,0,0-8.53-27.65l-.82-.41-6.26-2.95A20.3,20.3,0,0,0,215.83,169.72Z" transform="translate(-54.8 -155.48)"/><path class="cls-3" d="M937,555.94a25.65,25.65,0,0,1-25.61-25.62V464.65H759.6a28.93,28.93,0,0,1-25.51-42.55l129.39-242a21.43,21.43,0,0,1,28.08-9.29l6.26,3,.86.43a21.45,21.45,0,0,1,9,29L801.55,404a11.45,11.45,0,0,0,10.14,16.81h99.73V316.62a21.47,21.47,0,0,1,21.45-21.45h8.33a21.47,21.47,0,0,1,21.45,21.45V420.76h35a21.95,21.95,0,0,1,0,43.89h-35v65.67A25.65,25.65,0,0,1,937,555.94ZM882.4,169.72a20.44,20.44,0,0,0-18,10.82L735,422.57a27.91,27.91,0,0,0,24.62,41.08H912.42v66.67a24.62,24.62,0,1,0,49.23,0V463.65h36a20.95,20.95,0,0,0,0-41.89h-36V316.62a20.47,20.47,0,0,0-20.45-20.45h-8.33a20.47,20.47,0,0,0-20.45,20.45V421.76H811.69a12.45,12.45,0,0,1-11-18.28L906.75,202.7a20.47,20.47,0,0,0-8.53-27.65l-.82-.41-6.27-2.95A20.3,20.3,0,0,0,882.4,169.72Z" transform="translate(-54.8 -155.48)"/><path class="cls-3" d="M540,524.69c-47.8,0-82.61-12.33-106.42-37.68-28.08-29.92-41.73-78.07-41.73-147.23,0-61.62,14-108.88,41.72-140.48,25.48-29.07,61.29-43.82,106.43-43.82,49.81,0,84.2,11.15,108.25,35.07,29.32,29.18,43.58,78,43.58,149.23C691.86,464.21,642.19,524.69,540,524.69Zm0-368.21c-94.89,0-147.15,65.1-147.15,183.3C392.88,467,438.26,523.69,540,523.69c101.49,0,150.83-60.16,150.83-183.91,0-70.95-14.16-119.54-43.29-148.52C623.73,167.53,589.56,156.48,540,156.48Zm.57,319.81c-63.88,0-91.13-40.8-91.13-136.42,0-44.33,8-78.56,23.71-101.75s38.81-34.85,68.69-34.85c32.23,0,54,9.15,68.67,28.79,16,21.45,23.73,56.72,23.73,107.81C634.27,432.94,604.5,476.29,540.6,476.29Zm1.27-272c-29.53,0-52.36,11.58-67.86,34.42-15.62,23-23.54,57.06-23.54,101.18,0,94.92,26.95,135.42,90.13,135.42s92.67-43,92.67-135.42c0-50.87-7.7-85.94-23.53-107.21C595.33,213.29,573.76,204.27,541.87,204.27Z" transform="translate(-54.8 -155.48)"/></svg>