<svg id="Camada_1" data-name="Camada 1" xmlns="http://www.w3.org/2000/svg" viewBox="0 0 1032.25 832.64"><defs><style>.cls-1{opacity:0.1;}.cls-1,.cls-10,.cls-6{isolation:isolate;}.cls-2{fill:#6c63ff;}.cls-3{fill:#a8a8a8;}.cls-4{fill:#fff;}.cls-5{fill:#464353;}.cls-6{opacity:0.06;}.cls-7{fill:#fbbebe;}.cls-8{fill:#444176;}.cls-9{opacity:0.05;}.cls-10{opacity:0.2;}</style></defs><title>bg404</title><g class="cls-1"><ellipse class="cls-2" cx="530.99" cy="416.32" rx="466.48" ry="416.32"/></g><g class="cls-1"><ellipse class="cls-2" cx="172" cy="629.28" rx="172" ry="26.66"/></g><g class="cls-1"><ellipse class="cls-2" cx="254.67" cy="769.13" rx="66.9" ry="13.82"/></g><g class="cls-1"><ellipse class="cls-2" cx="711.8" cy="715.96" rx="66.9" ry="13.82"/></g><g class="cls-1"><ellipse class="cls-2" cx="484.79" cy="699.75" rx="108.79" ry="18.43"/></g><g class="cls-1"><ellipse class="cls-2" cx="805.34" cy="608.52" rx="226.91" ry="35.54"/></g><path class="cls-3" d="M47,546.49a63.13,63.13,0,0,0,3.29,63.39c2,3,3.84,5.16,5.31,5.73,7,2.77,21.17,9.58,21.17,9.58l34-13.36s5.52-29.2,10.74-54.27h0c3.56-17.1,7-32.27,8.41-34.93,3.52-6.55,0-77.86,0-77.86S96,442.49,86.6,468.7l-4.09,8Z"/><g class="cls-1"><path class="cls-4" d="M92.17,554.37c20.67,23.69,29.39,3.2,29.39,3.2h0c3.56-17.1,7-32.27,8.41-34.93,3.52-6.55,0-77.86,0-77.86s-34-2.28-43.35,23.93l-4.09,8C79.91,497.68,77.32,537.32,92.17,554.37Z"/></g><path class="cls-3" d="M96.71,620.4l120-13.86,21.41-140.88-16.19-36.59a148.28,148.28,0,0,0-28-42.24c-8.15-8.59-18-16.85-28.36-21a44.17,44.17,0,0,0-4.33-1.48,11.22,11.22,0,0,0-10,1.77c-14.8,10.49-20.09,55.09-21.8,76.56A239.93,239.93,0,0,1,125.87,469Z"/><g class="cls-1"><path class="cls-4" d="M176.6,464.14l-25,61.5c13.1-9.58,32.51-61.75,32.51-61.75l17.39,59.48-13.86-62.69a195.92,195.92,0,0,0,1.76-41.14c-1.1-15.74-15.87-41-23.89-53.72a44.17,44.17,0,0,0-4.33-1.48,11.22,11.22,0,0,0-10,1.77c6.3,12.65,22,44.28,26.85,53.68C184.12,431.63,176.6,464.14,176.6,464.14Z"/></g><path class="cls-3" d="M197,625.19h65.11a19.76,19.76,0,0,0,19.76-19.74c0-.34,0-.68,0-1-1.44-27.92-5.09-77.7-13.77-109.3-4.69-17.05-10.14-26-15.14-30.41a14.75,14.75,0,0,0-8.61-4.05,11.28,11.28,0,0,0-7,1.7C225.24,474,211.12,535,211.12,535Z"/><g class="cls-1"><path class="cls-4" d="M257.12,571.1c2.68,7.43,3.74,16,0,24.35l-14.51,7.17s-39-16.53-34.26-50.41c0,0,1.28-7,14.71-6.46A38.08,38.08,0,0,1,257.12,571.1Z"/></g><g class="cls-1"><path class="cls-4" d="M241.62,482c-.45-11.88,6-16,11.33-17.31a14.75,14.75,0,0,0-8.61-4.05,22.85,22.85,0,0,0-7.51,12L223.23,539S242.38,502,241.62,482Z"/></g><path class="cls-3" d="M179.88,534.46l32.24,44.1,5.59,36.4L197,625.19l-29.87,6.6a28.71,28.71,0,0,1-8.77.57l-81.51-7.17,11.09-25.71,38.3-53.77Z"/><g class="cls-1"><path class="cls-4" d="M167.4,519.32s22,1.51,13.74,39.31-93.25,40.83-93.25,40.83,18.06-32,45.84-54.93c3.12-2.57,6.13-5.25,9-8.11C149.12,530,161.34,518.8,167.4,519.32Z"/></g><g class="cls-1"><path d="M187.19,547.82S217,575,214.19,616.7"/></g><g class="cls-1"><path d="M237.34,462.38S206.06,504,202.55,568"/></g><g class="cls-1"><path d="M130,444.75s15.14,68.75-22.66,120.57"/></g><path class="cls-5" d="M405.73,699.37H568.87a9.14,9.14,0,0,0,8-13.47L495.34,534.42a9.13,9.13,0,0,0-16.08,0L397.69,685.9a9.14,9.14,0,0,0,8,13.47Zm91.95-27.68H476.92V650.94h20.76Zm0-34.59H476.92V595.59h20.76Z"/><g class="cls-1"><path d="M405.73,699.37H568.87a9.14,9.14,0,0,0,8-13.47L495.34,534.42a9.13,9.13,0,0,0-16.08,0L397.69,685.9a9.14,9.14,0,0,0,8,13.47Zm91.95-27.68H476.92V650.94h20.76Zm0-34.59H476.92V595.59h20.76Z"/></g><path class="cls-5" d="M405.73,704.37H568.87a9.14,9.14,0,0,0,8-13.47L495.34,539.42a9.13,9.13,0,0,0-16.08,0L397.69,690.9a9.14,9.14,0,0,0,8,13.47Zm91.95-27.68H476.92V655.94h20.76Zm0-34.59H476.92V600.59h20.76Z"/><g class="cls-6"><path d="M320,630.11a10.25,10.25,0,0,1-4.14,2.91c-7.12,3-15.35,1.65-22.7-.79a23.85,23.85,0,0,0-9.78-1.78c-1.13,0-2.26-.09-3.39-.16.92-.87,1.86-1.72,2.82-2.54a8.47,8.47,0,0,1,2.37-1.56,6.77,6.77,0,0,1,3.37-.23c5.72.79,10.86,4.8,16.63,4.45a20.47,20.47,0,0,0,7.65-2.47,13.34,13.34,0,0,0,5-3.56,5.77,5.77,0,0,0,.93-1.79,4.82,4.82,0,0,1,1.93,6.54,5.2,5.2,0,0,1-.71,1Z"/></g><path class="cls-7" d="M247.82,256.63c-1-.33-2-.68-3-1l2.08.16A4.09,4.09,0,0,1,247.82,256.63Z"/><g class="cls-1"><path d="M282.28,294.69c.47,0,.3,0,.07.08S281.74,294.85,282.28,294.69Z"/></g><circle class="cls-4" cx="254.67" cy="301.06" r="1.86"/><circle class="cls-4" cx="286.06" cy="300.18" r="1.86"/><path class="cls-8" d="M695.32,511.08s-23.2,30.53-42.45,30.78-30.55,12.86-21.41,20.74,108.74-4.5,108.74-4.5.94-37.52-7.69-43S695.32,511.08,695.32,511.08Z"/><path class="cls-8" d="M944.77,547.73s3.55,24.18-7.42,40.67,19.82,22.85,19.82,22.85,22.37,6.23,24-15.87,1.1-39-1-40.8-3.85-14.23-3.85-14.23Z"/><path class="cls-3" d="M593.57,593.4s-.81-78.21,76.58-110l18-34.19,8.62-21a51.1,51.1,0,0,1,36.09-30.46l13.94-3.13,4.31-18.16a51.07,51.07,0,0,1,40.81-38.54,143,143,0,0,1,25.7-2.4,22.12,22.12,0,0,1,18.79,11h0s73.32-.81,76.57,39.11c0,0,7.34,36.65,17.93,43.17,0,0,17.92-4.07,35.84,22l19.55,66.8s51.32,48.06,35.84,92c0,0-21.18,30.14-128.71,9.77,0,0-114.86,35-176-13C717.39,606.43,615.57,626,593.57,593.4Z"/><g class="cls-1"><path d="M645.3,581.47l-.82-.58c.16-.23,16.19-22.86,15.39-38.79-.81-16.16,3.8-55.69,3.84-56.09l1,.12c-.05.4-4.65,39.84-3.84,55.91C661.69,558.33,646,580.53,645.3,581.47Z"/></g><g class="cls-1"><path d="M704.8,520.32l-.88-.48c.16-.3,16.2-30.19,14.6-46.14v-.16l.07-.13c.71-1.28,17.43-31.3,30.67-28.77l-.18,1c-12.07-2.29-28.29,25.93-29.54,28.14C721,490,705.47,519.09,704.8,520.32Z"/></g><g class="cls-1"><path d="M794.14,435l-.34-.94c.44-.16,44.56-16.34,46.93-28.94l1,.18C839.24,418.47,796,434.34,794.14,435Z"/></g><g class="cls-1"><path d="M911.76,509.59l-1-.2c3.84-18.45-27.46-60.51-29.91-63.76h-23c-2.17,6.39-42.72,24.72-47.46,26.85l-.4-.92c18.87-8.46,47-22.48,47-26.43v-.5h24.36l.15.2C882.92,446.66,915.83,490,911.76,509.59Z"/></g><g class="cls-1"><path d="M717.83,606.64l-.9-.42c.43-.94,10.7-23,17.21-29.47s23.36-42.67,23.53-43l.1-.22.24-.06c.29-.06,29.4-6.63,45.42-19.45,16.26-13,60.39-10,62.27-9.89l-.07,1c-.46,0-45.62-3.1-61.58,9.67-15.42,12.34-42.72,18.93-45.58,19.59-1.57,3.35-17.31,36.79-23.63,43.09S717.94,606.41,717.83,606.64Z"/></g><g class="cls-1"><path d="M892.87,619.59c-.1-.34-9.82-35.05-16.23-44.65s-11.41-26.85-11.46-27l1-.28c.05.17,4.94,17.14,11.34,26.74s15.95,43.51,16.35,45Z"/></g><g class="cls-1"><path d="M961.64,627c-9.32-.29-19.45-28.19-19.88-29.38l.94-.34c.1.28,10.33,28.45,19,28.72Z"/></g><g class="cls-1"><path d="M957.91,532.82c-.34-.16-34.56-16.21-45.74-33.72-11-17.22-37.53-24.56-37.8-24.64l.26-1c.27.07,27.18,7.51,38.38,25.06,11,17.27,45,33.2,45.32,33.36Z"/></g><g class="cls-1"><path d="M930.75,429.35c-.24,0-23.71-4.06-34.14-4.06-11,0-11.09-36.42-11.09-38h1c0,.37.12,37,10.09,37,10.51,0,34.07,4,34.31,4.08Z"/></g><g class="cls-1"><path d="M818,424.63l-.78-.64c13.59-16.44,16.42-80.55,16.45-81.19l1,0C834.51,345.49,831.74,407.93,818,424.63Z"/></g><g class="cls-9"><path d="M984.59,516.82,965,450C947.12,424,929.2,428,929.2,428c-10.59-6.52-17.92-43.18-17.92-43.18-3.26-39.92-76.58-39.1-76.58-39.1h0a22.12,22.12,0,0,0-18.83-11c-3.46,0-7,.11-10.54.4q3,.3,5.75.85l5.7,9.78s73.31-.82,76.57,39.1c0,0,7.34,36.66,17.93,43.18,0,0,17.92-4.08,35.84,22l19.55,66.8s51.32,48.06,35.84,92c0,0-10.45,14.87-53.92,16.67,58.61,2.15,71.84-16.67,71.84-16.67C1035.91,564.88,984.59,516.82,984.59,516.82Z"/><path d="M697.84,605.61a380.89,380.89,0,0,1-52.19,5.71c20.41.78,41.64-1.43,55.32-3.31C699.91,607.2,698.87,606.42,697.84,605.61Z"/><path d="M873.8,618.65a335,335,0,0,1-76.92,12.16c37.55,1.36,73.12-6.47,87.78-10.23C881.12,620,877.53,619.32,873.8,618.65Z"/></g><path class="cls-3" d="M222.85,745.71s22.41-.69,29.16-5.5,34.46-10.55,36.14-2.84,33.67,38.35,8.37,38.56-58.77-3.94-65.51-8S222.85,745.71,222.85,745.71Z"/><g class="cls-10"><path d="M297,773.24c-25.3.21-58.78-3.94-65.52-8-5.13-3.13-7.18-14.35-7.86-19.52h-.75s1.42,18.07,8.16,22.17,40.22,8.25,65.51,8.05c7.31-.06,9.83-2.66,9.69-6.51C305.2,771.75,302.41,773.2,297,773.24Z"/></g><path class="cls-3" d="M769.19,689.51s-26.39-5.28-33.42-12.32-38.7-19.34-42.22-10.55-47.49,38.7-17.59,44,70.36,7,79.16,3.52S769.19,689.51,769.19,689.51Z"/><g class="cls-10"><path d="M676,707.32c29.91,5.27,70.36,7,79.16,3.51,6.69-2.68,11.35-15.55,13.19-21.54l.88.19s-5.28,21.1-14.07,24.62-49.25,1.76-79.16-3.52c-8.63-1.52-11.1-5.1-10.17-9.62C666.53,703.94,669.54,706.21,676,707.32Z"/></g><g class="cls-1"><path class="cls-2" d="M516.5,114.85h-6.28a4.4,4.4,0,0,0,0-8.8H459.34a4.4,4.4,0,1,0,0,8.8h6.28a4.4,4.4,0,0,0,0,8.79h-8.79a4.4,4.4,0,1,0,0,8.8h50.88a4.4,4.4,0,1,0,0-8.8h8.79a4.4,4.4,0,0,0,.42-8.79Z"/></g><g class="cls-1"><path class="cls-2" d="M714.12,269.66h-6.28a4.4,4.4,0,0,0,0-8.79H656.91a4.4,4.4,0,0,0-.42,8.79h6.7a4.4,4.4,0,0,0,0,8.79H654.4a4.4,4.4,0,1,0,0,8.8h50.88a4.4,4.4,0,0,0,0-8.8h8.85a4.4,4.4,0,0,0,.42-8.79A2.94,2.94,0,0,0,714.12,269.66Z"/></g><g class="cls-1"><path class="cls-2" d="M421.29,241H415a4.4,4.4,0,0,0,.42-8.79H364.12a4.4,4.4,0,0,0-.42,8.79h6.7a4.4,4.4,0,0,0-.42,8.79H361.6a4.4,4.4,0,0,0,0,8.8h50.88a4.4,4.4,0,0,0,0-8.8h8.79a4.4,4.4,0,0,0,.42-8.79,2.94,2.94,0,0,0-.42,0Z"/></g></svg>