<?xml version="1.0" standalone="no"?>
<!DOCTYPE svg PUBLIC "-//W3C//DTD SVG 20010904//EN"
 "http://www.w3.org/TR/2001/REC-SVG-20010904/DTD/svg10.dtd">
<svg version="1.0" xmlns="http://www.w3.org/2000/svg"
 width="1199.000000pt" height="1150.000000pt" viewBox="0 0 1199.000000 1150.000000"
 preserveAspectRatio="xMidYMid meet">
<metadata>
Created by potrace 1.16, written by Peter Selinger 2001-2019
</metadata>
<g transform="translate(0.000000,1150.000000) scale(0.100000,-0.100000)"
fill="#000000" stroke="none">
<path d="M5085 11438 c-207 -48 -307 -65 -585 -99 -184 -22 -336 -42 -337 -43
-1 -1 0 -26 4 -55 4 -36 12 -55 24 -62 14 -7 345 -79 364 -79 5 0 -25 -121
-65 -260 -48 -171 -122 -335 -146 -326 -9 3 -48 6 -88 6 -73 0 -74 0 -160 59
-51 34 -123 72 -174 90 -84 31 -89 34 -135 97 -70 94 -81 124 -67 188 6 28 35
105 65 171 54 122 68 190 35 180 -8 -2 -199 -48 -425 -100 l-410 -97 -265
-161 c-146 -88 -320 -201 -386 -249 -67 -48 -139 -95 -160 -104 -59 -25 -222
-187 -364 -362 -70 -86 -214 -245 -321 -354 l-194 -196 -65 -164 -65 -163 -98
-103 c-59 -63 -109 -127 -127 -162 l-29 -58 -1 -305 -2 -306 51 -83 c136 -225
154 -248 285 -372 141 -131 196 -205 225 -301 18 -58 19 -110 22 -883 l3 -822
160 0 160 0 67 66 67 67 133 -71 133 -70 28 -148 c26 -139 28 -167 28 -410 l0
-262 30 -97 c17 -54 30 -103 30 -110 0 -8 4 -15 10 -17 10 -3 117 -645 127
-766 l6 -72 -65 -68 c-36 -37 -68 -80 -72 -96 -6 -25 -10 -28 -37 -22 -45 9
-89 -17 -89 -53 0 -25 16 -41 128 -124 79 -59 179 -148 263 -234 147 -149 203
-230 197 -285 l-3 -31 155 -64 155 -64 90 -92 c50 -51 188 -195 308 -322 334
-354 531 -528 802 -710 556 -371 1205 -605 2030 -729 316 -48 275 -50 480 17
99 32 205 62 234 67 42 7 79 25 153 75 l98 65 194 0 194 0 428 367 c236 201
471 405 521 451 l93 85 -2 58 c-1 32 1 62 5 65 3 4 262 34 574 67 l568 60 630
-25 630 -26 130 59 c80 37 155 64 195 70 l65 11 29 67 c18 43 48 87 85 126 31
33 102 119 158 191 131 168 144 202 174 461 l22 192 -33 143 -34 143 -161 185
c-89 102 -166 199 -172 215 -9 27 -17 31 -139 62 -128 33 -130 34 -304 28
-207 -7 -249 -15 -356 -65 -137 -66 -268 -208 -359 -390 -27 -54 -28 -56 -17
-145 7 -49 14 -153 18 -229 l6 -140 53 -95 c42 -77 105 -245 105 -282 0 -4
-30 -12 -67 -19 -38 -6 -78 -14 -90 -17 -17 -4 -23 -1 -23 11 0 20 32 19 -616
5 -420 -9 -506 -9 -530 2 -25 12 -32 28 -64 139 -32 107 -40 126 -61 134 -18
6 -62 -2 -164 -30 l-140 -39 -250 50 c-206 41 -251 53 -253 68 -2 11 -13 17
-31 17 -22 0 -50 27 -166 159 -114 132 -143 161 -168 163 -24 2 -39 15 -71 61
l-41 58 37 72 c30 61 40 98 63 237 14 91 29 174 32 185 3 11 -37 -21 -90 -74
-93 -92 -95 -94 -99 -147 -3 -30 -7 -56 -10 -59 -3 -3 -177 -8 -387 -12 l-381
-6 0 35 c0 33 -3 36 -43 47 -55 16 -107 11 -121 -11 -7 -12 -7 -29 2 -60 7
-24 18 -64 25 -90 11 -44 14 -48 42 -48 25 0 47 -17 124 -94 l93 -93 -119 -5
c-118 -6 -118 -6 -260 -67 -129 -56 -146 -66 -202 -124 -80 -84 -117 -135
-124 -178 -6 -26 -30 -57 -106 -133 l-98 -98 -181 7 c-99 4 -215 4 -256 0 -72
-6 -76 -8 -76 -31 0 -13 -6 -24 -12 -24 -7 0 -114 12 -237 26 l-223 27 -581
259 -582 260 -220 171 c-191 149 -239 192 -360 325 -120 132 -144 163 -168
223 -15 38 -117 231 -227 428 l-200 359 0 98 c0 96 -3 109 -96 421 l-96 323
164 322 c156 307 165 323 193 326 26 3 38 16 90 105 34 59 79 155 105 227 41
114 47 125 71 128 16 2 38 18 56 40 29 36 30 45 61 307 18 149 35 308 39 355
5 72 10 91 35 125 26 38 29 51 39 183 l10 141 67 64 c37 35 98 92 136 127 38
36 108 117 155 180 l86 114 295 62 c162 35 346 79 409 98 62 20 176 50 254 67
131 29 146 30 216 20 76 -11 578 -44 869 -57 153 -7 153 -7 167 -34 13 -25 20
-27 157 -44 598 -72 964 -119 1028 -132 41 -9 131 -37 200 -64 l125 -48 320
-32 c176 -18 322 -34 323 -36 2 -1 46 -104 98 -229 l94 -226 0 -329 0 -328
-192 -4 c-152 -4 -203 -8 -241 -22 -65 -25 -147 -101 -181 -171 l-27 -56 43
-56 c24 -30 51 -64 60 -76 l17 -22 163 55 c144 49 172 55 243 55 58 0 89 -5
114 -19 71 -38 146 -136 226 -296 28 -55 28 -56 21 -195 -3 -77 -1 -239 5
-360 7 -121 9 -237 5 -257 -10 -52 -49 -95 -99 -109 -34 -9 -59 -8 -133 6
l-92 18 -387 -154 c-326 -130 -388 -158 -396 -178 -5 -13 -11 -22 -13 -20 -4
5 -44 276 -48 327 -3 31 -11 21 -99 -125 -92 -151 -98 -164 -128 -285 -17 -70
-31 -129 -31 -131 0 -6 184 -127 193 -127 4 0 7 29 7 65 0 56 3 65 18 65 10 0
124 31 253 69 128 37 293 80 364 96 123 26 138 27 294 20 l165 -7 102 -69 102
-68 -4 97 c-2 53 -11 367 -20 697 l-15 600 -44 330 c-25 182 -60 425 -79 540
l-33 210 68 136 c61 123 73 140 120 174 79 57 148 124 177 175 23 39 27 56 27
125 0 70 -4 88 -32 144 -18 35 -33 77 -33 93 0 16 -12 75 -26 131 -23 87 -27
125 -28 252 -1 148 -2 151 -34 219 -40 85 -94 161 -211 296 l-91 105 0 93 0
93 -92 100 c-60 64 -96 112 -103 136 -7 21 -81 137 -166 257 -172 245 -178
251 -404 400 -126 83 -156 98 -305 151 -168 59 -408 164 -625 272 l-120 60
-460 12 c-253 6 -504 16 -558 22 -116 12 -298 64 -412 118 l-80 37 -250 -58z
m5979 -7404 l64 -27 36 21 36 21 98 -53 97 -53 1 -44 c0 -26 12 -68 27 -102
19 -39 28 -78 30 -119 l2 -60 -102 -64 c-57 -35 -114 -66 -128 -70 -15 -4 -28
-16 -31 -29 -4 -15 -15 -25 -36 -29 -60 -12 -102 -5 -226 34 -69 22 -150 43
-180 47 l-54 6 5 46 c3 25 14 122 24 215 l18 169 65 53 c88 71 151 80 254 38z
m-4317 -984 l79 -30 40 -98 39 -97 160 -87 160 -88 3 -73 3 -74 -36 -32 c-47
-41 -68 -37 -195 37 -52 30 -98 57 -103 59 -4 2 2 -20 14 -49 12 -29 28 -72
36 -95 12 -35 20 -43 47 -48 28 -6 37 -16 65 -73 l33 -66 -29 -23 c-46 -39
-144 -83 -208 -94 -73 -14 -147 -1 -220 39 -43 23 -58 41 -112 130 l-61 102
13 50 c30 113 28 204 -8 365 -26 119 -31 158 -24 189 9 34 12 38 38 34 22 -4
29 0 31 16 2 16 15 23 58 32 65 14 75 13 177 -26z"/>
<path d="M9353 11097 c-60 -67 -198 -255 -248 -337 -32 -52 -73 -119 -92 -149
-65 -108 -33 -179 101 -220 37 -11 111 -45 164 -75 143 -80 195 -99 277 -100
54 0 80 5 112 22 81 43 157 165 168 273 6 50 19 87 63 171 l56 108 -24 42
c-34 64 -36 65 -98 77 -84 16 -218 72 -324 134 -142 83 -132 79 -155 54z"/>
<path d="M5710 7554 c-102 -13 -270 -28 -375 -33 -169 -9 -204 -14 -314 -45
-81 -23 -139 -46 -166 -65 -23 -16 -103 -57 -178 -90 -75 -33 -177 -81 -226
-106 l-91 -45 0 -70 c0 -93 18 -134 63 -149 60 -20 184 12 621 159 266 89 306
100 369 100 39 0 93 -7 121 -15 28 -8 166 -24 306 -35 140 -12 291 -25 335
-30 230 -26 300 -4 325 101 7 29 9 72 6 102 l-7 53 -292 97 c-161 53 -297 96
-302 96 -6 -1 -93 -12 -195 -25z"/>
<path d="M5225 5919 c-138 -22 -212 -28 -271 -25 -72 4 -92 1 -200 -33 l-119
-38 -42 -84 c-23 -46 -42 -89 -42 -96 -1 -7 32 -27 72 -46 72 -33 72 -33 192
-27 66 3 121 2 123 -1 1 -3 62 -4 135 -2 72 2 242 0 377 -5 l245 -9 279 -62
c154 -34 281 -60 283 -58 2 2 -72 96 -164 209 -93 113 -173 214 -178 223 -9
14 -56 25 -230 51 -121 18 -231 33 -245 33 -14 -1 -110 -14 -215 -30z"/>
<path d="M1463 5565 l-31 -126 22 -8 c11 -4 98 -34 192 -67 l171 -59 92 30
c51 16 94 32 96 35 3 5 -479 313 -499 318 -7 1 -24 -49 -43 -123z"/>
<path d="M272 3574 c-339 -270 -327 -234 -148 -420 67 -71 132 -147 144 -170
11 -22 37 -55 57 -72 52 -47 108 -44 212 8 141 70 154 84 243 269 l80 164 -73
140 c-39 77 -73 133 -75 124 -6 -28 -39 1 -104 91 -32 45 -61 82 -62 82 -1 0
-125 -97 -274 -216z"/>
<path d="M795 1376 c-22 -13 -65 -27 -95 -31 -55 -7 -55 -8 -185 -144 -85 -89
-162 -159 -222 -201 l-93 -65 0 -52 0 -53 35 0 c29 0 63 -22 222 -145 212
-164 249 -185 317 -185 69 0 106 27 169 124 30 46 66 95 80 110 14 14 51 67
83 116 48 73 64 90 84 90 21 0 8 17 -91 118 -93 94 -130 139 -183 230 -37 61
-70 112 -74 112 -4 0 -25 -11 -47 -24z"/>
<path d="M7348 1213 l-168 -16 0 -47 c0 -25 -16 -110 -35 -189 -55 -223 -44
-324 46 -408 33 -30 36 -31 159 -37 185 -10 428 -26 484 -32 l49 -5 -6 204
c-5 190 -8 211 -37 313 -44 151 -68 204 -98 215 -45 17 -225 18 -394 2z"/>
</g>
</svg>
