<svg id="Camada_1" data-name="Camada 1" xmlns="http://www.w3.org/2000/svg" viewBox="0 0 575.31 551.05"><defs><style>.cls-1{fill:#150c09;}.cls-2{fill:#251b18;}.cls-3{fill:#302725;}.cls-4{fill:#201714;}.cls-5{fill:#1c110d;}.cls-6{fill:#200b05;}.cls-7{fill:#1f140e;}.cls-8{fill:#2d211e;}.cls-9{fill:#33201a;}.cls-10{fill:#1e1412;}.cls-11{fill:#eeec12;}.cls-12{fill:#4c3221;}.cls-13{fill:#b8886f;}.cls-14{fill:#17100b;}.cls-15{fill:#271c18;}.cls-16{fill:#302622;}.cls-17{fill:#3e3430;}.cls-18{fill:#492b12;}.cls-19{fill:#a27a62;}.cls-20{fill:#4b4240;}.cls-21{fill:#3b3431;}.cls-22{fill:#3e3431;}.cls-23{fill:#413836;}.cls-24{fill:#956e5d;}.cls-25{fill:#aaa83a;}.cls-26{fill:#48403f;}.cls-27{fill:#3d3834;}.cls-28{fill:#3e3837;}.cls-29{fill:#34509c;}.cls-30{fill:#1f1713;}.cls-31{fill:#352e2b;}.cls-32{fill:#eff01d;}.cls-33{fill:#271e1c;}.cls-34{fill:#d0cc2d;}.cls-35{fill:#ebec69;}.cls-36{fill:#c5c92f;}.cls-37{fill:#2c2321;}.cls-38{fill:#fdfe52;}.cls-39{fill:#b19561;}.cls-40{fill:#536896;}.cls-41{fill:#c45d78;}.cls-42{fill:#f8fa53;}.cls-43{fill:#1a0d0a;}.cls-44{fill:#dfb39e;}.cls-45{fill:#e0ad98;}.cls-46{fill:#dbae97;}.cls-47{fill:#835e4e;}.cls-48{fill:#c29783;}.cls-49{fill:#c19a87;}.cls-50{fill:#795644;}.cls-51{fill:#60412f;}.cls-52{fill:#2f2821;}.cls-53{fill:#201143;}.cls-54{fill:#dbac4c;}.cls-55{fill:#dabd7c;}.cls-56{fill:#66134f;}.cls-57{fill:#dba55b;}.cls-58{fill:#211511;}.cls-59{fill:#1b0f0c;}.cls-60{fill:#3e69c8;}.cls-61{fill:#26201a;}.cls-62{fill:#5473a7;}.cls-63{fill:#2d221f;}.cls-64{fill:#1d1410;}.cls-65{fill:#1d100b;}.cls-66{fill:#2e2422;}.cls-67{fill:#1a100e;}.cls-68{fill:#403634;}.cls-69{fill:#524846;}.cls-70{fill:#2c2320;}.cls-71{fill:#352a28;}.cls-72{fill:#322822;}.cls-73{fill:#372d24;}.cls-74{fill:#423836;}.cls-75{fill:#4c4340;}.cls-76{fill:#2c1819;}.cls-77{fill:#482b2f;}.cls-78{fill:#d7315e;}.cls-79{fill:#d3587a;}.cls-80{fill:#2b1a19;}.cls-81{fill:#463c39;}.cls-82{fill:#322c2a;}.cls-83{fill:#39302b;}.cls-84{fill:#261d18;}.cls-85{fill:#2a2423;}.cls-86{fill:#754f3f;}.cls-87{fill:#b5866d;}.cls-88{fill:#29140c;}.cls-89{fill:#251a16;}.cls-90{fill:#27170f;}.cls-91{fill:#e6971d;}.cls-92{fill:#d69933;}.cls-93{fill:#483e3a;}.cls-94{fill:#f3d06d;}.cls-95{fill:#d6a48a;}.cls-96{fill:#c49176;}.cls-97{fill:#a97e66;}.cls-98{fill:#946851;}.cls-99{fill:#a88473;}.cls-100{fill:#e3bba7;}.cls-101{fill:#ad7c61;}.cls-102{fill:#281e1b;}.cls-103{fill:#3e3532;}.cls-104{fill:#352b29;}.cls-105{fill:#493f3d;}.cls-106{fill:#281e1c;}.cls-107{fill:#4f6da9;}.cls-108{fill:#261b16;}.cls-109{fill:#1f150b;}.cls-110{fill:#4265b8;}.cls-111{fill:#335dbe;}.cls-112{fill:#b6836e;}.cls-113{fill:#904f81;}.cls-114{fill:#7b64a4;}.cls-115{fill:#5c5ea4;}.cls-116{fill:#64699c;}.cls-117{fill:#231713;}.cls-118{fill:#5f5e8e;}.cls-119{fill:#6b70a7;}.cls-120{fill:#211714;}.cls-121{fill:#201513;}.cls-122{fill:#7960a3;}.cls-123{fill:#563d79;}.cls-124{fill:#945fab;}.cls-125{fill:#a17f88;}.cls-126{fill:#922541;}.cls-127{fill:#a62845;}.cls-128{fill:#345ea8;}.cls-129{fill:#567bc5;}.cls-130{fill:#4776c4;}.cls-131{fill:#3360c1;}.cls-132{fill:#884f9d;}.cls-133{fill:#66579d;}.cls-134{fill:#efef0e;}.cls-135{fill:#e2e054;}.cls-136{fill:#2a6ae1;}.cls-137{fill:#315cb9;}.cls-138{fill:#543c30;}.cls-139{fill:#37251d;}.cls-140{fill:#271712;}.cls-141{fill:#21150f;}.cls-142{fill:#cb9a82;}.cls-143{fill:#98715e;}.cls-144{fill:#b88970;}.cls-145{fill:#9e6b51;}.cls-146{fill:#b78a73;}.cls-147{fill:#aa795e;}.cls-148{fill:#61463a;}.cls-149{fill:#6b4f42;}.cls-150{fill:#755749;}.cls-151{fill:#bb8a71;}.cls-152{fill:#976e5a;}.cls-153{fill:#7c5b4a;}.cls-154{fill:#8c6655;}.cls-155{fill:#8b6655;}.cls-156{fill:#442f24;}.cls-157{fill:#34211a;}.cls-158{fill:#6d58b1;}.cls-159{fill:#2c3983;}.cls-160{fill:#9244ab;}.cls-161{fill:#32136c;}.cls-162{fill:#4f2b5c;}.cls-163{fill:#88657f;}.cls-164{fill:#f7a72a;}.cls-165{fill:#f2ab12;}.cls-166{fill:#c23da6;}.cls-167{fill:#2b1f1c;}.cls-168{fill:#3d559e;}.cls-169{fill:#2669e4;}.cls-170{fill:#4c4140;}.cls-171{fill:#3c362f;}.cls-172{fill:#3b322f;}.cls-173{fill:#2c1110;}.cls-174{fill:#391214;}.cls-175{fill:#ca5170;}.cls-176{fill:#1d110f;}.cls-177{fill:#d5a790;}.cls-178{fill:#8e6959;}.cls-179{fill:#bf9380;}.cls-180{fill:#473d3b;}.cls-181{fill:#d52f59;}.cls-182{fill:#501e24;}.cls-183{fill:#f52561;}.cls-184{fill:#211611;}.cls-185{fill:#342623;}.cls-186{fill:#27271e;}.cls-187{fill:#5a1c25;}.cls-188{fill:#14170c;}.cls-189{fill:#211813;}.cls-190{fill:#220f0d;}.cls-191{fill:#cc9b81;}.cls-192{fill:#c28e73;}.cls-193{fill:#c8967b;}.cls-194{fill:#503d36;}.cls-195{fill:#382a25;}.cls-196{fill:#2d1e17;}.cls-197{fill:#382a24;}.cls-198{fill:#382921;}.cls-199{fill:#b88f7a;}.cls-200{fill:#290d01;}.cls-201{fill:#ddac93;}.cls-202{fill:#bd896e;}.cls-203{fill:#c08d72;}.cls-204{fill:#c39d8b;}.cls-205{fill:#c08b71;}.cls-206{fill:#b18167;}.cls-207{fill:#2f66d1;}.cls-208{fill:#1b0837;}.cls-209{fill:#132c85;}.cls-210{fill:#4872bc;}.cls-211{fill:#493b83;}.cls-212{fill:#3b3e94;}.cls-213{fill:#7c5446;}.cls-214{fill:#8f695f;}.cls-215{fill:#9f509b;}.cls-216{fill:#73659d;}.cls-217{fill:#16043e;}.cls-218{fill:#6b61bf;}.cls-219{fill:#af4fb2;}.cls-220{fill:#604ac2;}.cls-221{fill:#3925a5;}.cls-222{fill:#5e49c7;}.cls-223{fill:#4334b2;}.cls-224{fill:#291527;}.cls-225{fill:#5e6bd1;}.cls-226{fill:#270b4a;}.cls-227{fill:#56392d;}.cls-228{fill:#2c1f19;}.cls-229{fill:#705040;}.cls-230{fill:#bd9077;}.cls-231{fill:#5c4539;}.cls-232{fill:#7f5a4a;}.cls-233{fill:#563d30;}.cls-234{fill:#684c3f;}.cls-235{fill:#d0a087;}.cls-236{fill:#ca9981;}.cls-237{fill:#ba8e78;}.cls-238{fill:#c49074;}.cls-239{fill:#c89479;}.cls-240{fill:#43312a;}.cls-241{fill:#b735a9;}.cls-242{fill:#4d3bb1;}.cls-243{fill:#39125b;}.cls-244{fill:#9b6d7e;}.cls-245{fill:#dbac95;}.cls-246{fill:#d7a68d;}.cls-247{fill:#e2b29a;}.cls-248{fill:#e4b7a0;}.cls-249{fill:#deb099;}.cls-250{fill:#d4a48c;}.cls-251{fill:#ddad97;}.cls-252{fill:#d4a58f;}.cls-253{fill:#af826c;}.cls-254{fill:#e3b69e;}.cls-255{fill:#cf9d83;}.cls-256{fill:#d8a891;}.cls-257{fill:#dbad95;}.cls-258{fill:#ba9787;}.cls-259{fill:#d4ae9b;}.cls-260{fill:#d2a58e;}.cls-261{fill:#c09274;}.cls-262{fill:#bb9281;}.cls-263{fill:#916e5d;}.cls-264{fill:#bf9a89;}.cls-265{fill:#c59571;}.cls-266{fill:#925b4e;}.cls-267{fill:#a36c4a;}.cls-268{fill:#cba99a;}.cls-269{fill:#cd9c84;}.cls-270{fill:#dba991;}.cls-271{fill:#b28269;}.cls-272{fill:#98694e;}.cls-273{fill:#4c3f36;}.cls-274{fill:#7e5343;}.cls-275{fill:#2f180e;}.cls-276{fill:#824a99;}.cls-277{fill:#643d8d;}.cls-278{fill:#425790;}.cls-279{fill:#0e2e71;}.cls-280{fill:#425588;}.cls-281{fill:#722a7b;}.cls-282{fill:#7d56ab;}.cls-283{fill:#6964a8;}.cls-284{fill:#925799;}.cls-285{fill:#9d6a61;}.cls-286{fill:#5b589d;}.cls-287{fill:#5d599b;}.cls-288{fill:#663e5f;}.cls-289{fill:#a1807c;}.cls-290{fill:#512d71;}.cls-291{fill:#d09e85;}.cls-292{fill:#e4b7a1;}.cls-293{fill:#553b2f;}.cls-294{fill:#dfaf98;}.cls-295{fill:#352621;}.cls-296{fill:#e4b59e;}.cls-297{fill:#d5b09d;}.cls-298{fill:#d3b4a5;}.cls-299{fill:#e9bda9;}.cls-300{fill:#e8bca6;}.cls-301{fill:#daa992;}.cls-302{fill:#ddaf9b;}.cls-303{fill:#1c0c08;}.cls-304{fill:#2d1d1a;}.cls-305{fill:#ddae97;}.cls-306{fill:#eabda6;}.cls-307{fill:#e5b8a0;}.cls-308{fill:#d9a28d;}.cls-309{fill:#ce9e86;}.cls-310{fill:#e7baa3;}.cls-311{fill:#d5a089;}.cls-312{fill:#e2b59e;}.cls-313{fill:#cb9a7e;}.cls-314{fill:#3f2024;}.cls-315{fill:#d2a6a1;}.cls-316{fill:#e3b39b;}.cls-317{fill:#d7aa99;}.cls-318{fill:#95684b;}.cls-319{fill:#d2a088;}.cls-320{fill:#331e13;}.cls-321{fill:#2b1b2b;}.cls-322{fill:#9d6f6b;}.cls-323{fill:#f1c5b7;}.cls-324{fill:#6857a6;}.cls-325{fill:#713d8f;}.cls-326{fill:#866264;}.cls-327{fill:#4e3226;}.cls-328{fill:#eabea9;}.cls-329{fill:#1d0f0d;}.cls-330{fill:#daa88e;}.cls-331{fill:#e5b49d;}.cls-332{fill:#e5b69e;}.cls-333{fill:#e9beaa;}.cls-334{fill:#ecbca5;}</style></defs><title>memojiMeil</title><path class="cls-1" d="M738.63,593.81c-50-6-97-19.65-134.77-55.35-11.86-11.21-22.68-23.5-34-35.3,14-6.19,21.42,2.32,28.16,12.45,18.88,12.4,37.51,25.18,56.72,37,9.93,6.13,25.48,8,30.32,16.44,7.43,13,16.12,15.67,28.58,15.31l25,9.33Z" transform="translate(-420.09 -96.96)"/><path class="cls-2" d="M538.38,130.81l25.16-15.29,15.75,6.3,6.22,6.26c-5.45,9.21-16.08,19,3,25.36l-3.15,0-27.83,9.17L551.24,175l31.18,28.09L598,206.24l3.19.07c5,11.34-3.82,8.71-9.44,9.31-15.45-9.2-36.38-10.72-43.74-31.25q-2.35-6.09-4.73-12.19c-12.84,7.16-7.66-6-10.9-9.68,14.73,4.45,20.47-7.32,28.13-15.62,7.16-5.21,15-10.43,0-15.58l-3.18.1Z" transform="translate(-420.09 -96.96)"/><path class="cls-3" d="M682.41,100c4.86,1.43,9.64,3.52,14.59,4.12,7.61.93,15.34.91,23,1.16,9.46.3,18.93.46,28.39.68H723.79L745,115.6c0,1,0,2.07,0,3.11-10.59,4.14-5.42,8.37-.07,12.59-1,2.14-2,4.27-2.93,6.4,0,.93-.06,1.86-.1,2.79-7.78,7.29-15.42,5.22-23.44.11-5.49-3.51-11.5-6.2-17.28-9.26h0l-21.85-9.46,3.15-3.14,6.37-3c10.94,4.25,21.75,8.94,32.92,12.45,2.68.85,6.59-2.22,9.93-3.49-2.24-3-4.3-8.38-6.74-8.56-12-.89-24.09-.39-36.14-.38Z" transform="translate(-420.09 -96.96)"/><path class="cls-4" d="M744.86,131.31c-5.35-4.23-10.52-8.46.07-12.6,10.28,5.23,20.56,10,31,.32l16,5.73-6.15,6.61,12.88,8.89q1.47-4.68,2.95-9.36l8.85,6.62,15.42,22h-3l-12.35-3.22-9.4,6.3-6.26-.1L788.73,150c-8.84-11.08-17.64-22.22-34.48-15.61-1,0-2,.05-3,.12Z" transform="translate(-420.09 -96.96)"/><path class="cls-5" d="M854.31,228.06c0,1,0,2,.09,3l-.19.3-9.38,9.26h-3c-2.51-3.7-7.24-7.46-7.15-11.09.47-18.63-14.44-14-24-15.79-4.77-.91-10.47,3.15-15.75,5L779.31,200q1.65-8.38,3.29-16.76c3.63,4.28,7.2,8.61,10.92,12.82a47.24,47.24,0,0,0,4.49,4c14.6,9.06,18.2,7,21.93-12.51H823l0,0c0,4.13-.9,8.58.35,12.3s4.12,8.65,7.35,9.7c2.82.91,7.16-2.82,12.14-5.11v23.62l2.13.52q3.06-6.48,6.11-13Z" transform="translate(-420.09 -96.96)"/><path class="cls-6" d="M794.92,218.72c5.28-1.81,11-5.87,15.75-5,9.54,1.8,24.45-2.84,24,15.79-.09,3.63,4.64,7.39,7.15,11.09q1.58,7.77,3.16,15.55l-6.6,13.11-5.94-9.9q-4.57-11-9.16-22.07l-21.28-15-23.28-.14-27.55-.3C765.4,216.08,779.77,211.93,794.92,218.72Z" transform="translate(-420.09 -96.96)"/><path class="cls-7" d="M598,515.61c-6.74-10.13-14.2-18.64-28.16-12.45l-15.53-6.45c.09-1.07.17-2.15.26-3.22q1.29-4.46,2.6-8.92l15.84-3.32,43.73,28.13,18.75,18.75c-7.08-3.46-13.94-7.52-21.31-10.17C609.19,516.16,603.46,516.33,598,515.61Z" transform="translate(-420.09 -96.96)"/><path class="cls-8" d="M619.78,106.47l31.15-3.77c1.73,2.23,3.25,6.13,5.2,6.36,6.54.76,13.23.2,19.86.15l.19.21c-5.66,5.44-14.13,9.91-16.45,16.52-5.83,16.66-11.78,21.35-30.25,17.9l4.4-9.39,13.23-8.21-8.54-10.52-15.34-3-3-1.19Z" transform="translate(-420.09 -96.96)"/><path class="cls-9" d="M846,321.55l1.77,66.32-9.21-6.18-15.7-.69-13,2.76L788.4,390c-.93.14-1.86.31-2.79.5l5.19-9.72a8.19,8.19,0,0,0,1-2.65l37.69-15c11.33,3.81,17,1.34,15.36-12.14-1.16-9.55-.47-19.32-.61-29A11.24,11.24,0,0,0,846,321.55Z" transform="translate(-420.09 -96.96)"/><path class="cls-10" d="M532.41,162.5c3.24,3.67-1.94,16.84,10.9,9.68q2.37,6.1,4.73,12.19c-14.85-2-7.58,7-6.42,12.91l-9.53,2.49-9.22,3.06-2.85.37-3.26-6.35,6.17-6.29c15-12.09-2.68-14.93-6.18-21.78h0q-1.66-9.47-3.32-18.94l9.66-9.15,2.92,9.43Q529.2,156.31,532.41,162.5Z" transform="translate(-420.09 -96.96)"/><path class="cls-11" d="M585.42,622.14a19.59,19.59,0,0,1,.21,2.42L573,640.49c-8.79-4.79-22.08-4.41-22.06-19.29a4,4,0,0,1,.65-2.35l22-5.59Z" transform="translate(-420.09 -96.96)"/><path class="cls-12" d="M842.22,293.54q1.88,14,3.74,28a11.24,11.24,0,0,1-1.72.48c-5.44-9.5-9.26-21.5-24.49-16l-12.31,4.19L801.65,303c5.62-15.43,18.8-11.84,30.45-12.1Z" transform="translate(-420.09 -96.96)"/><path class="cls-13" d="M860.16,437.49a2.9,2.9,0,0,1,.73,2.62l-6.69,38c-1-3.85-3.18-7.87-2.69-11.54,2.18-16.33,0-31.15-9.5-45.29-4.85-7.24-6.64-16.53-9.49-25,0-.15,4-1.67,6.12-2.54Q849.41,415.62,860.16,437.49Z" transform="translate(-420.09 -96.96)"/><path class="cls-14" d="M788.49,581.26l-12.27-.08,15.56-15.54c6-5.38,14.16-9.66,17.69-16.36,6.64-12.62,16.56-15.44,29-14.89l.18,3.13-6.32,6.21Z" transform="translate(-420.09 -96.96)"/><path class="cls-15" d="M467,209.42l9.05-9.58c3.84,4.68,6.83,11.65,11.73,13.46,5.68,2.09,13-.35,19.65-.82q1.56,6.24,3.13,12.5c-5.13,0-14.55-1-14.75,0-3,14.59-9.1,6.26-13,1.57-4.13-5-6.59-11.39-9.78-17.18Z" transform="translate(-420.09 -96.96)"/><path class="cls-16" d="M507.39,212.48c-6.63.47-14,2.91-19.65.82-4.9-1.81-7.89-8.78-11.73-13.46q3.18-7.77,6.37-15.53,2.06,8.43,4.12,16.85L498,193.74l12.52,9.4c0,2.06,0,4.12,0,6.18Z" transform="translate(-420.09 -96.96)"/><path class="cls-17" d="M498,193.74l-11.53,7.42q-2.07-8.43-4.12-16.85l6.06-6.66c-.42,3.34-.83,6.68-1.25,10l6.28,5.65c3.43-6.09,7.23-12,9.91-18.43.47-1.11-3.75-4.2-5.8-6.37l3.36-3.13,9.57.27Z" transform="translate(-420.09 -96.96)"/><path class="cls-18" d="M591.47,108.94,604,106c0,1.06.08,2.13.13,3.19-2.13,5.13-5.47,10.15-5.95,15.42-.29,3.22,3.82,6.84,5.95,10.28l8.5,3.09,7.87,5.36c-2.51,1.53-6.3,5-7.33,4.28-9.38-6.26-21.64-9.71-24.64-22.87q1.62-6.06,3.23-12.12l3.29-2Z" transform="translate(-420.09 -96.96)"/><path class="cls-19" d="M866.2,478.11l-6.2,9.32a17.07,17.07,0,0,0-2.93-.49l-5.77-2.69q1.46-3.06,2.9-6.13l6.69-38Z" transform="translate(-420.09 -96.96)"/><path class="cls-20" d="M538.38,130.81l18.93.59c-11.93,17.29-19.57,19.36-31.7,8.59Z" transform="translate(-420.09 -96.96)"/><path class="cls-19" d="M860.16,437.49q-10.75-21.87-21.52-43.74l-.12-12.06,9.21,6.18Q853.94,412.68,860.16,437.49Z" transform="translate(-420.09 -96.96)"/><path class="cls-21" d="M676,109.21c-6.63.05-13.32.61-19.86-.15-2-.23-3.47-4.13-5.2-6.36L676.13,97Q676.06,103.08,676,109.21Z" transform="translate(-420.09 -96.96)"/><path class="cls-22" d="M525.61,140c12.13,10.77,19.77,8.7,31.7-8.59l3.18-.1-6.21,15.55c-8.9,5.59-17.9,10.38-28.27,3.26l-2.92-9.43Q524.35,140.32,525.61,140Z" transform="translate(-420.09 -96.96)"/><path class="cls-23" d="M745,115.6,723.79,106h24.62l12.28,6.13C758.67,127.75,749.88,113,745,115.6Z" transform="translate(-420.09 -96.96)"/><path class="cls-24" d="M842.22,293.54l-10.12-2.6q0-9.57.11-19.14l.21-12.4,5.94,9.9Q840.28,281.42,842.22,293.54Z" transform="translate(-420.09 -96.96)"/><path class="cls-25" d="M932.5,284.55,898,281.49q1.4-8.07,2.8-16.14l3.75,11.45,19.06,1.43L932,278c.14,2.11.29,4.23.43,6.34Z" transform="translate(-420.09 -96.96)"/><path class="cls-26" d="M497.58,168.51c2.05,2.17,6.27,5.26,5.8,6.37-2.68,6.4-6.48,12.34-9.91,18.43l-6.28-5.65c.42-3.33.83-6.67,1.25-10Z" transform="translate(-420.09 -96.96)"/><path class="cls-27" d="M801.64,130.9q-1.49,4.68-2.95,9.36l-12.88-8.89,6.15-6.61Z" transform="translate(-420.09 -96.96)"/><path class="cls-28" d="M591.47,108.94l3.61,1.75-3.29,2-12.5,9.18-15.75-6.3Z" transform="translate(-420.09 -96.96)"/><path class="cls-29" d="M460.9,487.43q-3.67,7.67-7.36,15.33l-2.84,2.55c-6.66,3.63-13.59,9.63-18.49-2.12l6.55-.16,15.36-12.54c.1-.94.2-1.88.31-2.82Z" transform="translate(-420.09 -96.96)"/><path class="cls-30" d="M845,256.19q-1.58-7.77-3.16-15.55h3c6.09-.09,11.63-.73,9.38-9.26l.19-.3C862.26,243.59,854,250,845,256.19Z" transform="translate(-420.09 -96.96)"/><path class="cls-31" d="M745,115.6c4.92-2.64,13.71,12.15,15.73-3.5L775.93,119c-10.44,9.7-20.72,4.91-31-.32C744.93,117.67,744.94,116.64,745,115.6Z" transform="translate(-420.09 -96.96)"/><path class="cls-32" d="M901.48,262.58q.51-6.09,1-12.18L926.29,253l-22.06,12.61C903.31,264.61,902.39,263.6,901.48,262.58Z" transform="translate(-420.09 -96.96)"/><path class="cls-33" d="M510.51,165.65l-9.57-.27q6.24-7.78,12.49-15.55,1.67,9.46,3.32,18.94Z" transform="translate(-420.09 -96.96)"/><path class="cls-34" d="M558.33,643.29c-3.36-3.14-6.48-6.6-10.13-9.36-8.52-6.45-4.29-9.8,2.73-12.72,0,14.87,13.27,14.49,22.06,19.28l-10.66,3.73Z" transform="translate(-420.09 -96.96)"/><path class="cls-35" d="M926.29,253l-23.78-2.62,4-6.28,25.91,2.52,2.83,5.82-2.49,6.89-3.12-.06L926.25,253Z" transform="translate(-420.09 -96.96)"/><path class="cls-8" d="M676,109.21q.06-6.13.14-12.25l6.28,3.05,6.33,15.71,0,0-6.37,3-6.22-9.32Z" transform="translate(-420.09 -96.96)"/><path class="cls-36" d="M562.33,644.22,573,640.49l12.64-15.93c-4,7.87-7.78,15.92-12.54,23.33C572.6,648.66,566.07,645.54,562.33,644.22Z" transform="translate(-420.09 -96.96)"/><path class="cls-37" d="M467,209.42l6.07,0-9.33,18.72,0-12.42Q465.35,212.55,467,209.42Z" transform="translate(-420.09 -96.96)"/><path class="cls-38" d="M567.42,606.14l6.18,7.12-22,5.59q4.45-6.3,8.9-12.62Z" transform="translate(-420.09 -96.96)"/><path class="cls-39" d="M604.16,109.2c0-1.06-.09-2.13-.13-3.19l15.75.46.45,5.06-.47,1.18Z" transform="translate(-420.09 -96.96)"/><path class="cls-40" d="M897.46,130.55c-1.78,3.35-3.55,6.7-5.34,10l-.75-6.12-2.46-9.9,5.73,1.16Z" transform="translate(-420.09 -96.96)"/><path class="cls-41" d="M429.87,603.89l8.62-6-2.67,7.54L432.67,608a12.83,12.83,0,0,1-2.95.44Z" transform="translate(-420.09 -96.96)"/><path class="cls-42" d="M901.48,262.58c.91,1,1.83,2,2.75,3.05l.33,11.17-3.75-11.45A3.13,3.13,0,0,1,901.48,262.58Z" transform="translate(-420.09 -96.96)"/><path class="cls-43" d="M492.06,359.9c-.09-23.64-.58-47.28-.07-70.9.24-11.22-5-17.54-13.34-24.18-6.48-5.16-10.14-13.87-15-21l.1-.08,10,7.05c9.64.38-7.35-20.54,11.86-10.16l12.9,4.81L498,237.5l3.12-6.25L516.78,225l15.63,9.37,34.36,6.23,6.26,3.13L563.64,250c-11.43-.22-22.93.23-34.29-.81-14-1.28-26.11,8-28.14,22.76q-3,25-6.08,50l-.36,37.29C493.87,359.48,493,359.69,492.06,359.9Z" transform="translate(-420.09 -96.96)"/><path class="cls-44" d="M494.84,446.88q-7.6-17.22-15.22-34.42c6.42-7.75,11-8.85,16,2.06a109.79,109.79,0,0,0,17.5,26.64c6.64,7.48,4.7,11.28-2.73,15.16Z" transform="translate(-420.09 -96.96)"/><path class="cls-45" d="M510.39,456.32c7.43-3.88,9.37-7.68,2.73-15.16a109.79,109.79,0,0,1-17.5-26.64c-5-10.91-9.58-9.81-16-2.06-.24-1.81-.49-3.62-.73-5.43q.42-6.27.85-12.53c13.78.76,24,4.19,26.87,21,1.73,10,10,18.79,14.85,28.34,3,5.77,5.1,12,7.61,18a5.64,5.64,0,0,1-2.5,1Z" transform="translate(-420.09 -96.96)"/><path class="cls-46" d="M485.53,368.81q3.17-3.15,6.35-6.28l15.5-.18q10.79,8,21.59,16,0,12.07-.08,24.16l-8.79-9.05-3.35-2.75L491.8,375C499.84,362.55,484.29,374.26,485.53,368.81Z" transform="translate(-420.09 -96.96)"/><path class="cls-47" d="M507.38,362.35l-15.5.18a5.9,5.9,0,0,1,.18-2.64c.91-.2,1.81-.41,2.71-.64l3.15-.13,6.45-6,12.39-6.31c15.62,0,27.85-6.79,37.53-18.71l3.1,0,9.71.11-6.61,12.39-3,.08-15.66,6.19-12.5,6.24-15.63,3.06Z" transform="translate(-420.09 -96.96)"/><path class="cls-48" d="M485.53,368.81c-1.24,5.45,14.31-6.26,6.27,6.14l-3.09,12.51-9,7q-.42,6.27-.85,12.53C474.56,393.15,475.67,380.22,485.53,368.81Z" transform="translate(-420.09 -96.96)"/><path class="cls-49" d="M510.39,456.32l16.18,6.44a15.69,15.69,0,0,0-.45,2.88c-16.37,3.64-26.06-3.83-31.28-18.76Z" transform="translate(-420.09 -96.96)"/><path class="cls-50" d="M526.12,465.64a15.69,15.69,0,0,1,.45-2.88,5.73,5.73,0,0,0,2.51-1,18.62,18.62,0,0,0,2.8.34l10.4-.05a13.36,13.36,0,0,0,2.4.75,25.47,25.47,0,0,0,.68,2.87,8.25,8.25,0,0,0-.23,2.84L538.69,475Z" transform="translate(-420.09 -96.96)"/><path class="cls-51" d="M538.69,475l6.44-6.42q3.15,7.81,6.31,15.63c-.11,1.1-.22,2.19-.32,3.29Q544.9,481.23,538.69,475Z" transform="translate(-420.09 -96.96)"/><path class="cls-52" d="M551.12,487.47c.1-1.1.21-2.19.31-3.29l5.78.39q-1.31,4.47-2.6,8.92Z" transform="translate(-420.09 -96.96)"/><path class="cls-53" d="M966.75,522.44l-12.39,5.66-59.55-2.46-56.26,5.9-36.4-.41c.57-1.92,1.15-3.85,1.72-5.78.1-1.05.21-2.11.31-3.17H826l18.52,3.32,50.2-4.69L914,519.29l37.08,2.54Z" transform="translate(-420.09 -96.96)"/><path class="cls-54" d="M895.46,587.87l-15.25-2.48c1.74-8.61-9.63-20,5.42-25.77l5.87,3.14c-1.87,2-3.76,4-5.64,6-.53,6.9-5,15.17,6.29,17.93Z" transform="translate(-420.09 -96.96)"/><path class="cls-55" d="M891.5,562.76l-5.87-3.14c4.79-1.09,9.6-3,14.37-2.93,2.53.06,5,3.69,7.48,5.71L904.27,566Z" transform="translate(-420.09 -96.96)"/><path class="cls-56" d="M966.75,522.44l-15.7-.61.54-3.28,18.6-3.26,5.61-.33-2.91,6.49Z" transform="translate(-420.09 -96.96)"/><path class="cls-57" d="M910.26,575.06q0,6.16.07,12.35l-14.87.45-3.32-1.18,2.84-2.3q6.22-4.7,12.47-9.37C908.39,575,909.33,575,910.26,575.06Z" transform="translate(-420.09 -96.96)"/><path class="cls-54" d="M910.26,575.06c-.93,0-1.87,0-2.81,0l-3.18-9,3.21-3.59,3.19,3.2C910.53,568.75,910.4,571.9,910.26,575.06Z" transform="translate(-420.09 -96.96)"/><path class="cls-58" d="M757.46,587.57l-18.77,6.14-25-9.33c-6.16-7.07-16.62-13.6-17.6-21.32-2-16.18-10.74-18.11-23.78-19.76-13.21-1.67-28.49-.62-36.75-15.17l-18.75-18.75c6.74,3.08,14.05,5.3,20.09,9.4,15.37,10.45,32,18,50.25,12.71,23.36-6.77,23-8,39,12.25-2.55,2.52-5.17,5-7.64,7.57-12.86,13.53-9.27,27.81,8.81,31.45,7.54,1.52,15.87-.87,23.84-1.49l3.11,0C755.34,583.38,756.4,585.48,757.46,587.57Z" transform="translate(-420.09 -96.96)"/><path class="cls-59" d="M635.53,528.13c8.26,14.55,23.54,13.5,36.75,15.17,13,1.65,21.74,3.58,23.78,19.76,1,7.72,11.44,14.25,17.6,21.32-12.46.36-21.15-2.31-28.58-15.31-4.84-8.46-20.39-10.31-30.32-16.44-19.21-11.84-37.84-24.62-56.72-37,5.42.72,11.15.55,16.18,2.35C621.59,520.61,628.45,524.67,635.53,528.13Z" transform="translate(-420.09 -96.96)"/><path class="cls-60" d="M854.2,137.33q2.87-4.72,5.72-9.47l20.71-6.58,8.28,3.3q1.23,5,2.47,9.9l-5.94,6.1c.27-8.85-4.27-14.46-12.61-11.57-3.35,1.16-4.18,9.59-6.15,14.7l-6.17,3.13Z" transform="translate(-420.09 -96.96)"/><path class="cls-61" d="M835.42,172l.21,9.11c.51,11.38-7.85,5.46-12.64,6.5l0,0c0-1.05,0-2.1,0-3.16,9.22-3,4.46-6.12.11-9.27l-6.38-.07-3-.07-3.36-5.9,3.3-3.45c1,0,2,.05,3.06.1l9.54-3.44Z" transform="translate(-420.09 -96.96)"/><path class="cls-62" d="M880.63,121.28l-20.71,6.58,10-12.82Z" transform="translate(-420.09 -96.96)"/><path class="cls-63" d="M826.3,162.26l-9.54,3.44q3.07-3.1,6.16-6.2h3A21.32,21.32,0,0,1,826.3,162.26Z" transform="translate(-420.09 -96.96)"/><path class="cls-64" d="M676.18,109.42l6.22,9.32-3.15,3.14c-6,5.5-5,10.36,2.76,11.39,6.17.83,12.71-1.18,19.09-1.93h0c2.8,3.16,5.82,6.16,8.36,9.52,3.65,4.84,6.95,9.93,10.39,14.92l-6.77,9.49-2.52,12.83h-6.51c-.95-5.42-.85-11.33-3.12-16.12-3.12-6.58-8-12.29-12.18-18.38-11.07-4.86-21.58-4.6-31.25,3.39l-6.43,6.13-3,15.63-6.31,6.35L601.1,159.46l-12.61-6c-19.06-6.33-8.43-16.16-3-25.37,1-1.1,2-2.21,3-3.32,3,13.16,15.26,16.61,24.64,22.87,1,.69,4.82-2.75,7.33-4.28l9,.49c18.47,3.45,24.42-1.24,30.25-17.9C662.05,119.33,670.52,114.86,676.18,109.42Z" transform="translate(-420.09 -96.96)"/><path class="cls-65" d="M591.78,215.62c5.62-.6,14.41,2,9.44-9.31,5.52-.56,11-1.56,16.55-1.56,5.91,0,11.81.95,17.72,1.49,3.26-1.37,6.44-3.51,9.81-3.9s6.74,1.06,10.12,1.7c-1.44-3.81-2.15-8.18-4.55-11.23-2-2.57-6-3.6-9.08-5.31l.06-6.26,9.31-3.11,18.76,31.23,0,0c-6.09,0-12.61-1.37-18.2.31-11.78,3.53-23.08,8.66-34.57,13.13-1.22,1.72-2.45,3.44-3.67,5.17l-6.82,9.22-3.15,3.19-8.58-12.28Q593.35,221.86,591.78,215.62Z" transform="translate(-420.09 -96.96)"/><path class="cls-66" d="M635.49,206.24c-5.91-.54-11.81-1.49-17.72-1.49-5.52,0-11,1-16.55,1.56l-3.19-.07,6.24-25q-1.57-10.89-3.17-21.78l40.64,15.63q.06,3.07.11,6.15l-.06,6.26ZM641,191.56l-4.05-7.44c-3.43-2.9-7-8.2-10.25-8.05s-9.55,7.05-8.88,8.7c1.81,4.43,6.05,9.31,10.42,10.8C631.61,196.73,636.66,193.07,641,191.56Z" transform="translate(-420.09 -96.96)"/><path class="cls-67" d="M591.78,215.62q1.58,6.24,3.13,12.5l-12.49,0-6.26,3.11L569.91,225l-12.74-15.41-15.55-12.3c-1.16-5.95-8.43-14.93,6.42-12.92C555.4,204.9,576.33,206.42,591.78,215.62Z" transform="translate(-420.09 -96.96)"/><path class="cls-68" d="M601.1,159.46q1.59,10.89,3.17,21.78c-9.27,5.31-6.34,22.8-21.85,21.87L551.24,175l6.16,3.11c9.14,5.34,18.18,10.86,27.51,15.86,1.48.79,5,0,6.24-1.36,7.82-8.52,4.5-27.37-5.57-33.28l-.24-5.89,3.15,0Z" transform="translate(-420.09 -96.96)"/><path class="cls-69" d="M585.34,153.46l.24,5.89,3.87,18.48c-7.32-.84-14.67-1.48-21.93-2.65-2.45-.39-4.67-2.16-7-3.3l-3-9.25Z" transform="translate(-420.09 -96.96)"/><path class="cls-70" d="M526,150.11c10.37,7.12,19.37,2.33,28.27-3.26l6.26,0c-7.66,8.3-13.4,20.07-28.13,15.62Q529.2,156.31,526,150.11Z" transform="translate(-420.09 -96.96)"/><path class="cls-71" d="M582.42,203.11c15.51.93,12.58-16.56,21.85-21.87l-6.24,25Z" transform="translate(-420.09 -96.96)"/><path class="cls-72" d="M560.54,146.88l-6.26,0,6.21-15.55C575.51,136.45,567.7,141.67,560.54,146.88Z" transform="translate(-420.09 -96.96)"/><path class="cls-73" d="M588.56,124.76c-1,1.11-2,2.22-3,3.32l-6.22-6.26,12.5-9.18Q590.17,118.7,588.56,124.76Z" transform="translate(-420.09 -96.96)"/><path class="cls-74" d="M557.51,162.63l3,9.25-3.12,6.25L551.24,175Z" transform="translate(-420.09 -96.96)"/><path class="cls-75" d="M688.74,115.72c12,0,24.15-.51,36.14.38,2.44.18,4.5,5.57,6.74,8.56-3.34,1.27-7.25,4.34-9.93,3.49-11.17-3.51-22-8.2-32.92-12.45Z" transform="translate(-420.09 -96.96)"/><path class="cls-76" d="M719.86,155.78c-3.44-5-6.74-10.08-10.39-14.92-2.54-3.36-5.56-6.36-8.36-9.52,5.78,3.06,11.79,5.75,17.28,9.26,8,5.11,15.66,7.18,23.44-.11l-.06,6.58-15.59,8.14Z" transform="translate(-420.09 -96.96)"/><path class="cls-77" d="M741.77,147.07l.06-6.58c0-.93.07-1.86.1-2.79l9.31-3.2c1-.07,2-.11,3-.12-4.9,12.2,5.67,14.14,12.37,18.64-.88,5-1.77,10.07-2.66,15.12-.1,1.28-.19,2.57-.29,3.85Z" transform="translate(-420.09 -96.96)"/><path class="cls-76" d="M701.1,131.34c-6.38.75-12.92,2.76-19.09,1.93-7.77-1-8.73-5.89-2.76-11.39Z" transform="translate(-420.09 -96.96)"/><path class="cls-76" d="M751.24,134.5l-9.31,3.2c1-2.13,2-4.26,2.93-6.4Z" transform="translate(-420.09 -96.96)"/><path class="cls-78" d="M435.82,605.39l2.67-7.54,12.78-13.34,5.33-.81,11,9.55,10.27,10-1-.3h-1l-12.32,9.42L451,622.11h0Zm16.59-2.53c-2.21-1.39-4.12-3.22-4.73-2.86-1.52.91-3.13,2.72-3.36,4.35-.13,1,2.52,3.39,3.53,3.19C449.27,607.25,450.32,605.15,452.41,602.86Z" transform="translate(-420.09 -96.96)"/><path class="cls-79" d="M467.6,593.25l-11-9.55,3.86-2.2Z" transform="translate(-420.09 -96.96)"/><path class="cls-80" d="M764,168.13l2.67-15.1c8.9,10.16,15.86,6.17,22.1-3l6.18,12.49-10.26,11.08,22.74,20.25L798,200a47.24,47.24,0,0,1-4.49-4c-3.72-4.21-7.29-8.54-10.92-12.82Q781,191.62,779.31,200l-3.14,3.14L769.91,200q0-3.14,0-6.27c12.21-6.26,2-12.47,0-18.7Z" transform="translate(-420.09 -96.96)"/><path class="cls-81" d="M788.73,150c-6.24,9.21-13.2,13.2-22.1,3-6.71-4.51-17.28-6.45-12.38-18.65C771.09,127.77,779.89,138.91,788.73,150Z" transform="translate(-420.09 -96.96)"/><path class="cls-82" d="M807.39,193.81l-22.74-20.25,10.26-11.08,6.26.1,6.29,6c-1.75,3.43-4.08,6.72-4.87,10.35-.21,1,4.3,3,6.63,4.5l4.54-8.5,3,.07,0,12.49Z" transform="translate(-420.09 -96.96)"/><path class="cls-63" d="M807.46,168.6l-6.29-6,9.4-6.3q1.56,4.65,3.13,9.32l-3.29,3.45C809.42,168.92,808.44,168.77,807.46,168.6Z" transform="translate(-420.09 -96.96)"/><path class="cls-83" d="M813.7,165.6q-1.56-4.66-3.13-9.32l12.35,3.22q-3.09,3.09-6.16,6.2C815.74,165.65,814.72,165.61,813.7,165.6Z" transform="translate(-420.09 -96.96)"/><path class="cls-65" d="M776.17,203.15l3.14-3.14,15.61,18.71c-15.15-6.79-29.52-2.64-43.77,3.13l-9.36-3.13c-3.88-1-7.74-2.88-11.64-3-18.9-.43-37.81-.4-56.72-.54l-3.53-5.83,0,0,31.24-3.11,6.25-9.38,9.38,3.13c3.75,9.56,7.64,18.7,18.73,6.25,0-3.18-.07-6.37-.11-9.55l9.52-6c2.21,7.26,3.74,20.29,6.78,20.66C759.81,212.31,772.89,219.26,776.17,203.15Z" transform="translate(-420.09 -96.96)"/><path class="cls-84" d="M823,187.56c4.79-1,13.15,4.88,12.64-6.5,8,10.23,19.65,18.86,15.45,34.56l-6.12,13-2.13-.52V204.45c-5,2.29-9.32,6-12.14,5.11-3.23-1.05-6.07-5.91-7.35-9.7S823,191.69,823,187.56Z" transform="translate(-420.09 -96.96)"/><path class="cls-84" d="M807.39,193.81l9.41-6.3h3.14C816.21,207,812.61,209.09,798,200Z" transform="translate(-420.09 -96.96)"/><path class="cls-85" d="M854.21,231.38c2.25,8.53-3.29,9.17-9.38,9.26Z" transform="translate(-420.09 -96.96)"/><path class="cls-63" d="M819.94,187.52H816.8l0-12.49,6.38.07q-.06,4.64-.11,9.27c0,1.06,0,2.11,0,3.16h-3.09Z" transform="translate(-420.09 -96.96)"/><path class="cls-86" d="M741.79,218.72l9.36,3.13,27.56.3,23.27.14,21.28,15-31.37-3.24c-5.11-1.82-10.09-4.4-15.36-5.31-11.35-2-22.85-3.07-34.29-4.52l-22.09-2.67a6.45,6.45,0,0,1-.57-2.44Z" transform="translate(-420.09 -96.96)"/><path class="cls-87" d="M791.89,234.09l31.37,3.24q4.57,11,9.16,22.07l-.21,12.4-15.39-6.17c6-16.58,3.82-21-12.56-24.88l-6.23,0-6.28-3.26C791.79,236.34,791.84,235.21,791.89,234.09Z" transform="translate(-420.09 -96.96)"/><path class="cls-88" d="M802,222.29l-23.27-.14Z" transform="translate(-420.09 -96.96)"/><path class="cls-89" d="M726.15,543.74c-16-20.28-15.67-19-39-12.25-18.2,5.27-34.88-2.26-50.25-12.71-6-4.1-13.35-6.32-20.09-9.4l-43.73-28.13,3.13-3.15L598,484.35h6.25c8.74,5.77,17.18,12.13,26.44,16.88,2.38,1.23,7.37-2.61,11.16-4.12l3.18,2.67c15.5,10.23,30.74,20.1,51,12.75,9.49-3.44,19.93-4.25,29.94-6.25l4,27.16,5.78,9.82L732.42,550l-3.12-3.12Z" transform="translate(-420.09 -96.96)"/><path class="cls-90" d="M576.18,478.1l-3.13,3.15-15.84,3.32-5.78-.39-6.3-15.63a8.29,8.29,0,0,1,.23-2.85l5.81-.05c4.29,2.07,8.6,4.09,12.87,6.22C568.11,473.89,572.13,476,576.18,478.1Z" transform="translate(-420.09 -96.96)"/><path class="cls-91" d="M612.66,138l-8.5-3.09c-2.84-13.06,5.94-17.93,15.6-22.19l.47-1.18,3,1.19,6.13,6.27C630.81,131.5,626.57,139,612.66,138Z" transform="translate(-420.09 -96.96)"/><path class="cls-92" d="M612.66,138c13.91,1,18.15-6.49,16.69-19l8.14,2.34-3.61,13.12-4.4,9.39-9-.49Z" transform="translate(-420.09 -96.96)"/><path class="cls-93" d="M633.88,134.45q1.8-6.55,3.62-13.12.53-2.81,1.07-5.61l8.54,10.52Z" transform="translate(-420.09 -96.96)"/><path class="cls-94" d="M638.57,115.72q-.54,2.81-1.07,5.61L629.35,119l-6.13-6.27Z" transform="translate(-420.09 -96.96)"/><path class="cls-95" d="M785.61,390.54c.93-.19,1.86-.36,2.79-.5,5.21,2.27,10.32,5.59,15.7,6.13,1.47.15,3.78-8.05,5.71-12.41l13-2.76c3.17,13.58,6.19,27.2,9.55,40.74,4,16.2,8.91,32.22,12,48.59.57,3-5.63,7.31-8.71,11l-3.25-.1c7.68-30.4,2.7-39.11-25-43.73a18.63,18.63,0,0,1-2.77-.38L795,415.5q-4.71-9.3-9.41-18.62C785.58,394.77,785.6,392.65,785.61,390.54Z" transform="translate(-420.09 -96.96)"/><path class="cls-96" d="M835.65,481.34c3.08-3.7,9.28-8,8.71-11-3.08-16.37-8-32.39-12-48.59C829,408.2,826,394.58,822.82,381l15.7.69.12,12.06c-2.13.87-6.17,2.39-6.12,2.54,2.85,8.47,4.64,17.76,9.49,25,9.5,14.14,11.68,29,9.5,45.29-.49,3.67,1.72,7.69,2.69,11.54-1,2.05-1.93,4.09-2.9,6.14L845,487.49Z" transform="translate(-420.09 -96.96)"/><path class="cls-97" d="M819.74,306c15.24-5.51,19.06,6.49,24.5,16,.14,9.66-.55,19.43.61,29,1.64,13.48-4,15.95-15.36,12.14-.07-1.27-.13-2.55-.19-3.82,0-2.06,0-4.13,0-6.19,2.06-5.32,7-11.55,5.63-15.78-3.41-10.7-9.63-20.49-14.73-30.64Z" transform="translate(-420.09 -96.96)"/><path class="cls-98" d="M785.61,390.54c0,2.11,0,4.23,0,6.34L776,390.65q1.5-6.27,3-12.55l9.53-15.58c0,1,0,2-.07,2.93q1.14,7.69,2.29,15.37Z" transform="translate(-420.09 -96.96)"/><path class="cls-99" d="M829.3,359.33c.06,1.27.12,2.55.19,3.82l-37.69,15c0-2.12,0-4.23,0-6.34l6.2-6.21Z" transform="translate(-420.09 -96.96)"/><path class="cls-100" d="M809.81,383.76c-1.93,4.36-4.24,12.56-5.71,12.41-5.38-.54-10.49-3.86-15.7-6.13Z" transform="translate(-420.09 -96.96)"/><path class="cls-101" d="M791.81,371.83c0,2.11,0,4.22,0,6.34a8.19,8.19,0,0,1-1,2.65q-1.14-7.68-2.29-15.36Z" transform="translate(-420.09 -96.96)"/><path class="cls-102" d="M557.17,209.59,569.91,225q-1.56,6.24-3.14,12.49h0l-31.24-3.14-18.76-12.47q-3.13-6.28-6.26-12.56c0-2.06,0-4.12,0-6.18l6.21-6.29L520,203.2c-4.6,10.07-.45,15.56,9.41,18.26,4.48,1.24,8.77,3.63,13.3,4.11,5.25.55,10.66-.42,16-.73Q557.94,217.22,557.17,209.59Z" transform="translate(-420.09 -96.96)"/><path class="cls-103" d="M557.17,209.59q.76,7.62,1.55,15.25c-5.33.31-10.74,1.28-16,.73-4.53-.48-8.82-2.87-13.3-4.11-9.86-2.7-14-8.19-9.41-18.26,1-.12,1.9-.25,2.85-.36,0,.5.11,1,.12,1.51.23,9.65,6.41,12.06,14.41,11,2.87-.39,5.42-3.1,8.12-4.76l-13.43-10.8,9.53-2.49Z" transform="translate(-420.09 -96.96)"/><path class="cls-104" d="M516.76,196.85l-6.21,6.29L498,193.74l12.48-28.09,6.24,3.12h0l6.18,21.78Z" transform="translate(-420.09 -96.96)"/><path class="cls-105" d="M532.09,199.77l13.43,10.8c-2.7,1.66-5.25,4.37-8.12,4.76-8,1.08-14.18-1.33-14.41-11,0-.5-.08-1-.12-1.51Z" transform="translate(-420.09 -96.96)"/><path class="cls-106" d="M522.93,190.56l-6.18-21.78C520.25,175.63,537.89,178.47,522.93,190.56Z" transform="translate(-420.09 -96.96)"/><path class="cls-107" d="M766.94,623.19c-11.85-9.84-.72-21.27-2.21-31.83,8.87-.55,18-2.56,26.47-.88,3,.6,4.33,10,6.43,15.46l-11.88-12.06c-17.46-1.85-18.92-.15-18.79,21.79Z" transform="translate(-420.09 -96.96)"/><path class="cls-108" d="M757.46,587.57c-1.06-2.09-2.12-4.19-3.19-6.28l21.87-18.81,0,3.15-6.27,15.6-9.4,6.28C759.49,587.52,758.47,587.54,757.46,587.57Z" transform="translate(-420.09 -96.96)"/><path class="cls-109" d="M769.9,581.23l6.27-15.6h15.61l-15.56,15.54Z" transform="translate(-420.09 -96.96)"/><path class="cls-110" d="M785.75,593.88l11.88,12.06q.24,9.54.48,19.11l0,0L782.8,624l5.79-5.35Q787.17,606.27,785.75,593.88Z" transform="translate(-420.09 -96.96)"/><path class="cls-111" d="M788.59,618.66,782.8,624l-15.86-.82c0-2.51,0-5,0-7.52Z" transform="translate(-420.09 -96.96)"/><path class="cls-112" d="M779.05,378.1q-1.51,6.28-3,12.55l-2.95,0c0-13,.72-26-.23-39-1.36-18.71,4.33-34.49,16-48.87,9.76-12,18.67-24.74,28-37.14l15.39,6.17q-.06,9.57-.11,19.14c-11.65.26-24.83-3.33-30.45,12.1-4.92,3.49-12,5.9-14.39,10.66C777,334,771.85,355.38,779.05,378.1Z" transform="translate(-420.09 -96.96)"/><path class="cls-101" d="M779.05,378.1c-7.2-22.72-2.1-44.14,8.21-64.4,2.43-4.76,9.47-7.17,14.39-10.66l5.79,7.19c0,.79.09,1.58.14,2.37-.29,1.71,0,4-1,5-11.31,11.73-19.48,24.45-14.81,41.8,0,1,0,2,0,3.06l-3.2,0Z" transform="translate(-420.09 -96.96)"/><path class="cls-97" d="M807.58,312.6c-.05-.79-.1-1.58-.14-2.37L819.75,306s.43.68.43.67C820.11,317.51,813,313.31,807.58,312.6Z" transform="translate(-420.09 -96.96)"/><path class="cls-113" d="M993.13,490.62l-2,5.92-6.47-6.35.75-11.64c.18-1.11.36-2.22.55-3.33.67-.13,1.34-.29,2-.49L995.4,472Q994.26,481.31,993.13,490.62Z" transform="translate(-420.09 -96.96)"/><path class="cls-114" d="M976.61,440.44l15.61,18L987.69,463c-.76-1.19-1.52-2.38-2.27-3.57q-1.45-3.26-2.89-6.51-5-6-10-12.07Z" transform="translate(-420.09 -96.96)"/><path class="cls-115" d="M987.69,463l4.53-4.56L995.4,472l-7.48,2.73C987.84,470.82,987.76,466.92,987.69,463Z" transform="translate(-420.09 -96.96)"/><path class="cls-116" d="M976.61,440.44l-4.05.42-8.91-3.14c0-1,0-2,0-3L976,437.87A10.89,10.89,0,0,0,976.61,440.44Z" transform="translate(-420.09 -96.96)"/><path class="cls-117" d="M791.78,565.64H776.17l0-3.15q-.07-9.56-.16-19.11c7.23-3.7,19.36,5.16,22.59-8.8l2.25-3.6,1.34.16,36.39.41a22.59,22.59,0,0,1,0,2.85c-12.49-.55-22.41,2.27-29,14.89C805.94,556,797.82,560.26,791.78,565.64Z" transform="translate(-420.09 -96.96)"/><path class="cls-118" d="M920.66,464.78l-.9-5.41c5.91-12.27,13.59-22.47,28.4-24.37.07,1.64.14,3.27.2,4.91L926.19,459.2Z" transform="translate(-420.09 -96.96)"/><path class="cls-119" d="M948.36,439.91c-.06-1.64-.13-3.27-.2-4.91l15.47-.26c0,1,0,2,0,3Z" transform="translate(-420.09 -96.96)"/><path class="cls-120" d="M501.16,231.25,498,237.5l-12.49,3.12c-19.21-10.38-2.22,10.54-11.86,10.16l-10-7.05q0-7.83,0-15.64,4.68-9.36,9.34-18.72c3.19,5.79,5.65,12.17,9.78,17.18,3.86,4.69,10,13,13-1.57.2-1,9.62,0,14.75,0Z" transform="translate(-420.09 -96.96)"/><path class="cls-121" d="M501.16,231.25l9.36-6.27q-1.56-6.25-3.13-12.5l3.12-3.16q3.12,6.28,6.26,12.56c0,1,0,2.09,0,3.13Z" transform="translate(-420.09 -96.96)"/><path class="cls-122" d="M867,500.94l46.64-.95,6.27-.1.18,1.49,3.48,2.16c-.34.89-.65,1.8-.92,2.71l-12.18,2.82-15.23-2.66-12.67-.08Z" transform="translate(-420.09 -96.96)"/><path class="cls-123" d="M857.07,486.94a17.07,17.07,0,0,1,2.93.49q1.85,6.33,3.7,12.64a4.17,4.17,0,0,1-2.21.76l-7-3.74-9.77.1-9.34.34-28-3.72,13-8.37,24.43,4.87Z" transform="translate(-420.09 -96.96)"/><path class="cls-124" d="M861.5,500.83a4.16,4.16,0,0,0,2.2-.76l3.33.86,15.57,5.39-12.61,3-9.34-6.18A10.52,10.52,0,0,1,861.5,500.83Z" transform="translate(-420.09 -96.96)"/><path class="cls-92" d="M619.76,112.71c-9.66,4.26-18.44,9.13-15.6,22.19-2.13-3.44-6.24-7.06-5.95-10.28.48-5.27,3.82-10.29,5.95-15.42Z" transform="translate(-420.09 -96.96)"/><path class="cls-125" d="M857.07,486.94l-12.28,3.37c.07-.94.13-1.88.17-2.82l6.34-3.23Z" transform="translate(-420.09 -96.96)"/><path class="cls-126" d="M435.82,605.39,451,622.1,432.67,608Z" transform="translate(-420.09 -96.96)"/><path class="cls-126" d="M451,622.11l12.54-9.73,6.06,0C464,616.86,462.78,629.64,451,622.11Z" transform="translate(-420.09 -96.96)"/><path class="cls-127" d="M469.57,612.41l-6.06,0L475.83,603Z" transform="translate(-420.09 -96.96)"/><path class="cls-128" d="M438.76,503l-6.55.16-12.09-12.65a11.3,11.3,0,0,1,.21-3.07l8.62,0,9.63,12.67Q438.64,501.57,438.76,503Z" transform="translate(-420.09 -96.96)"/><path class="cls-129" d="M460.9,487.43l-6.48.23c-.07-1.08-.13-2.16-.2-3.24l.5-8a2.92,2.92,0,0,0-.52-1.79Z" transform="translate(-420.09 -96.96)"/><path class="cls-130" d="M428.94,487.45l-8.61,0,25.82-20.53,5.73,7.82-10,3.36Z" transform="translate(-420.09 -96.96)"/><path class="cls-131" d="M441.88,478.12l10-3.36,2.84,1.64c-.17,2.67-.33,5.35-.5,8Z" transform="translate(-420.09 -96.96)"/><path class="cls-132" d="M975.8,515l-5.61.33c-3.91-2.93-7.53-6.64-11.92-8.26-1.18-.43-4.71,5.58-7.17,8.64l-5.82-6.47q1.34-3.22,2.69-6.45l24.14-.06,7.19,8.87Q977.55,513.26,975.8,515Z" transform="translate(-420.09 -96.96)"/><path class="cls-133" d="M979.3,511.56l-7.19-8.87a14.78,14.78,0,0,0,1.63-2.08l10.87-10.42,6.47,6.35Q985.19,504,979.3,511.56Z" transform="translate(-420.09 -96.96)"/><path class="cls-134" d="M904.56,276.8l-.33-11.17L926.29,253h0l-.09,21.91-2.54,3.29Z" transform="translate(-420.09 -96.96)"/><path class="cls-135" d="M923.62,278.23l2.54-3.29,3.48-15.65,3.12.06L932,278Z" transform="translate(-420.09 -96.96)"/><path class="cls-136" d="M441.88,478.12l12.34,6.3c.07,1.08.13,2.16.2,3.24l-.3,2.83-15.54,9.63L429,487.45Z" transform="translate(-420.09 -96.96)"/><path class="cls-131" d="M438.58,500.12l15.54-9.63L438.76,503Q438.64,501.58,438.58,500.12Z" transform="translate(-420.09 -96.96)"/><path class="cls-32" d="M929.64,259.29l-3.48,15.65.09-21.91Z" transform="translate(-420.09 -96.96)"/><path class="cls-137" d="M860.51,146.84l6.17-3.12c7.32,5.34,14,6.51,18.76-3.14l5.94-6.1q.36,3.06.74,6.12-.23,3-.47,6c-8.32,19.58-20.07,9.46-31.32,3.61Z" transform="translate(-420.09 -96.96)"/><path class="cls-138" d="M497.92,359.12l-3.15.13.36-37.29c1-6,2.38-12,2.92-18,1.27-14.05,16.2-32.28,29.22-31.49,19.14,1.16,35.39-5.94,52-13.09-4.2,4-7.76,9.39-12.75,11.81-10,4.85-22.71,5.76-30.91,12.45C512.16,302.77,501,329.21,497.92,359.12Z" transform="translate(-420.09 -96.96)"/><path class="cls-139" d="M579.28,259.37c-16.62,7.15-32.87,14.25-52,13.09-13-.79-27.95,17.44-29.22,31.49-.54,6-1.92,12-2.92,18q3-25,6.08-50c2.5-.45,6.39-.05,7.29-1.51,5.38-8.62,12.29-6.54,21-7.09,13.69-.86,27-8.54,40.39-13.33l9.38-3.18h6.24l7.09,3.73-.69,5.75-12.62,3.06Z" transform="translate(-420.09 -96.96)"/><path class="cls-140" d="M569.89,250c-13.44,4.79-26.7,12.47-40.39,13.33-8.71.55-15.62-1.53-21,7.09-.9,1.46-4.79,1.06-7.29,1.51,2-14.8,14.14-24,28.14-22.75,11.36,1,22.86.59,34.29.81Z" transform="translate(-420.09 -96.96)"/><path class="cls-141" d="M535.53,234.35l31.24,3.14v3.12l-34.36-6.23Z" transform="translate(-420.09 -96.96)"/><path class="cls-65" d="M566.77,240.61v-3.12h0l9.39-6.24,6.26-3.11q0,4.68,0,9.36c-.31.32-.92.7-.87.94a11.75,11.75,0,0,0,.86,2.21l3.11,6.16h-6.24L573,243.74Z" transform="translate(-420.09 -96.96)"/><path class="cls-121" d="M485.55,240.62,498,237.5c.14,2.64.27,5.29.41,7.93Z" transform="translate(-420.09 -96.96)"/><path class="cls-15" d="M535.53,234.35l-3.12,0L516.78,225c0-1,0-2.09,0-3.13Z" transform="translate(-420.09 -96.96)"/><path class="cls-141" d="M573,243.74l6.24,3.07L569.89,250h-6.25Z" transform="translate(-420.09 -96.96)"/><path class="cls-142" d="M531.88,462.13a18.62,18.62,0,0,1-2.8-.34c-2.52-6-4.66-12.2-7.62-18-4.88-9.55-13.12-18.35-14.85-28.34-2.89-16.79-13.09-20.22-26.87-21l9-7,18.59,6.37,6.25,9.42c1.81,5.28,3.64,10.54,5.43,15.83q6.84,20.26,13.64,40.54A24.83,24.83,0,0,0,531.88,462.13Z" transform="translate(-420.09 -96.96)"/><path class="cls-143" d="M528.89,402.51q0-12.08.08-24.16-1.44-7.92-2.89-15.84c9.81,10.62,17.39,3.52,25-3.13q4.67,15.67,9.32,31.35l-.09,9.45a23.07,23.07,0,0,0-2.6-.42l-12.38-15.15-13,12.25.36,6.44-.74,9.4Z" transform="translate(-420.09 -96.96)"/><path class="cls-144" d="M528.89,402.51,532,412.7l.88-.24,5.61,34.73q.19,2.87.38,5.73-3.12,3.36-6.26,6.7Q525.8,439.36,519,419.08c-1.79-5.29-3.62-10.55-5.43-15.83q3.29-4.89,6.55-9.79Z" transform="translate(-420.09 -96.96)"/><path class="cls-145" d="M507.3,393.83l-18.59-6.37L491.8,375l24.95,15.76Z" transform="translate(-420.09 -96.96)"/><path class="cls-146" d="M526.08,362.51q1.44,7.92,2.89,15.84-10.8-8-21.59-16l6.27-6.18Z" transform="translate(-420.09 -96.96)"/><path class="cls-147" d="M507.3,393.83l9.45-3.12,3.35,2.75q-3.27,4.89-6.55,9.79Z" transform="translate(-420.09 -96.96)"/><path class="cls-148" d="M497.92,359.12c3.11-29.91,14.24-56.35,37.7-75.49,8.2-6.69,20.9-7.6,30.91-12.45,5-2.42,8.55-7.78,12.75-11.81v0l6.14,6.36L569.9,278.14c-7,4.06-14.29,7.85-21.13,12.25-20,12.88-33.45,31-41.35,53.36l-3.05,9.41Z" transform="translate(-420.09 -96.96)"/><path class="cls-149" d="M569.9,278.14l15.53-12.44,3.16,3-.27,6.24c-2.84,9.09-10.93,12.35-17.54,18-18.23,15.44-34.09,33.68-50.89,50.81l-3.13,3.12-12.39,6.31,3.05-9.41Z" transform="translate(-420.09 -96.96)"/><path class="cls-150" d="M519.89,343.73c16.8-17.13,32.66-35.37,50.89-50.81,6.61-5.61,14.7-8.87,17.54-18l-3.24,27.58-2.76,3.53c-.88.09-1.74.21-2.61.37-13.55-2.17-18.74,2.87-22.32,21.66l-3.1,0Z" transform="translate(-420.09 -96.96)"/><path class="cls-151" d="M560.43,390.73q-4.66-15.68-9.32-31.35l9.38-18.78,6.61-12.39q1.36-.1,2.73-.3c-.7,19.88,8.69,40.27-3,59.59Z" transform="translate(-420.09 -96.96)"/><path class="cls-152" d="M560.49,340.6l-9.38,18.78c-7.64,6.65-15.22,13.75-25,3.13l-12.43-6.34,15.63-3.06,18.77-6.23,9.39-6.2Z" transform="translate(-420.09 -96.96)"/><path class="cls-153" d="M569.83,327.91q-1.37.19-2.73.3l-9.71-.11c3.58-18.79,8.77-23.83,22.32-21.66q-2.1,6-4.18,11.9l-2.36,3.6Q571.5,324.93,569.83,327.91Z" transform="translate(-420.09 -96.96)"/><path class="cls-153" d="M519.89,343.73l34.4-15.59c-9.68,11.92-21.91,18.71-37.53,18.71Z" transform="translate(-420.09 -96.96)"/><path class="cls-154" d="M548.05,346.88l-18.77,6.23,12.5-6.24Z" transform="translate(-420.09 -96.96)"/><path class="cls-155" d="M548.05,346.88h-6.27l15.66-6.19Z" transform="translate(-420.09 -96.96)"/><path class="cls-156" d="M538.88,452.92q-.18-2.87-.38-5.73l3.3-12.76,18.73,9.35c-13.68-.64-12.92,10.75-15.85,19.05a14.18,14.18,0,0,1-2.4-.74Q540.59,457.5,538.88,452.92Z" transform="translate(-420.09 -96.96)"/><path class="cls-157" d="M544.68,462.83c2.93-8.3,2.17-19.69,15.85-19.05,0,1,0,2.05,0,3.08l6.24,12.5-15.62,6.29-5.81.05A25.47,25.47,0,0,1,544.68,462.83Z" transform="translate(-420.09 -96.96)"/><path class="cls-154" d="M538.88,452.92q1.7,4.59,3.4,9.17l-10.4,0a24.83,24.83,0,0,1,.74-2.51Q535.76,456.28,538.88,452.92Z" transform="translate(-420.09 -96.96)"/><path class="cls-158" d="M945.28,509.2l5.82,6.47c.17,1,.33,1.92.49,2.88l-.54,3.28L914,519.3l-3.46-10.23,12.18-2.82Z" transform="translate(-420.09 -96.96)"/><path class="cls-159" d="M894.69,520.81,844.5,525.5l.45-3.44,9.23-.54,28.32-3.18,8.84-.42,4.3,1.21A6.62,6.62,0,0,1,894.69,520.81Z" transform="translate(-420.09 -96.96)"/><path class="cls-160" d="M894.69,520.81a6.3,6.3,0,0,0,.94-1.68l10-4-10.36-5.68a25.36,25.36,0,0,1,0-3l15.23,2.66L914,519.3Q904.33,520,894.69,520.81Z" transform="translate(-420.09 -96.96)"/><path class="cls-161" d="M826,522.18H804.19l-18.61-.4c0-1,0-2,0-3l40.83,2.7Z" transform="translate(-420.09 -96.96)"/><path class="cls-162" d="M785.58,521.77l18.61.4c-.11,1.07-.22,2.13-.32,3.18H788.61l-16-3.17Z" transform="translate(-420.09 -96.96)"/><path class="cls-161" d="M845,522.06l-.45,3.44L826,522.18l.42-.68,15.43-2.7Z" transform="translate(-420.09 -96.96)"/><path class="cls-163" d="M788.61,525.34h15.26c-.57,1.93-1.15,3.86-1.72,5.78l-1.33-.16-9-2.79h-3Q788.69,526.77,788.61,525.34Z" transform="translate(-420.09 -96.96)"/><path class="cls-164" d="M904.27,566l3.18,9L895,584.38c-.67-6.59,2.54-15.44-9.11-15.63,1.88-2,3.77-4,5.64-6Z" transform="translate(-420.09 -96.96)"/><path class="cls-165" d="M885.86,568.75c11.65.19,8.44,9,9.11,15.63-.94.77-1.88,1.54-2.83,2.3C880.87,583.92,885.33,575.65,885.86,568.75Z" transform="translate(-420.09 -96.96)"/><path class="cls-166" d="M951.59,518.55c-.16-1-.32-1.92-.49-2.88,2.46-3.06,6-9.07,7.17-8.64,4.39,1.62,8,5.33,11.92,8.26Z" transform="translate(-420.09 -96.96)"/><path class="cls-167" d="M776,543.36q.07,9.57.16,19.12l-21.87,18.81-3.11,0c-1.76-.93-3.43-2.38-5.29-2.72-24.82-4.5-27.59-9.73-16.57-31.65l3.12,3.12c14.34,16.12,17.38,15.58,34.39-6.11Z" transform="translate(-420.09 -96.96)"/><path class="cls-108" d="M729.3,546.9c-11,21.92-8.25,27.15,16.57,31.65,1.86.34,3.53,1.79,5.29,2.72-8,.62-16.3,3-23.84,1.49-18.08-3.64-21.67-17.92-8.81-31.45,2.47-2.6,5.09-5,7.64-7.57Z" transform="translate(-420.09 -96.96)"/><path class="cls-168" d="M860.51,146.84l-.18,3.35c-7.51-1.68-12.59-4.52-6.13-12.86Z" transform="translate(-420.09 -96.96)"/><path class="cls-169" d="M885.44,140.58c-4.81,9.65-11.44,8.48-18.76,3.14,2-5.12,2.8-13.55,6.15-14.71C881.17,126.12,885.71,131.73,885.44,140.58Z" transform="translate(-420.09 -96.96)"/><path class="cls-170" d="M807.46,168.6c1,.17,2,.32,2.95.45,1.11,2,2.23,3.93,3.35,5.9q-2.26,4.25-4.54,8.5c-2.33-1.53-6.84-3.52-6.63-4.5C803.38,175.32,805.71,172,807.46,168.6Z" transform="translate(-420.09 -96.96)"/><path class="cls-171" d="M823,184.36q0-4.63.11-9.27C827.5,178.24,832.26,181.38,823,184.36Z" transform="translate(-420.09 -96.96)"/><path class="cls-69" d="M657.51,147c9.67-8,20.18-8.25,31.25-3.39,2.53,10.59,7,21.17,7.09,31.77.07,13-8,14.73-19,8.51C662.34,175.58,655.21,163.89,657.51,147Z" transform="translate(-420.09 -96.96)"/><path class="cls-172" d="M657.51,147c-2.3,16.91,4.83,28.6,19.39,36.89,10.93,6.22,19,4.47,19-8.51-.05-10.6-4.56-21.18-7.09-31.77,4.14,6.09,9.06,11.8,12.18,18.38,2.27,4.79,2.17,10.7,3.13,16.12q-1.4,6.27-2.78,12.53c-18.57,14.14-24.23,13.64-36.21-2.55-4.24-5.73-9.22-10.9-13.86-16.33a27.64,27.64,0,0,0,0-3l-.12-15.61Z" transform="translate(-420.09 -96.96)"/><path class="cls-173" d="M701.29,190.62q1.4-6.27,2.78-12.53h6.5l9.11,6.36q4.85,6.18,9.68,12.37l-9.42-3.12c-4.33-5.53-8.08-14-15.67-3.1Z" transform="translate(-420.09 -96.96)"/><path class="cls-174" d="M719.67,184.47l-9.1-6.37,2.52-12.82c1.15.19,2.32.36,3.48.54l3.59,11.93Q719.92,181.11,719.67,184.47Z" transform="translate(-420.09 -96.96)"/><path class="cls-175" d="M716.57,165.82c-1.16-.18-2.33-.35-3.48-.54l6.77-9.5,6.32-.57Z" transform="translate(-420.09 -96.96)"/><path class="cls-176" d="M651.2,168.72a27.64,27.64,0,0,1,0,3l-.06,6.39-9.31,3.11q0-3.08-.11-6.15l6.31-6.35Z" transform="translate(-420.09 -96.96)"/><path class="cls-33" d="M651.2,168.72l-3.15,0,3-15.63Z" transform="translate(-420.09 -96.96)"/><path class="cls-177" d="M591.91,256.29l.69-5.75,10.89-10.14,3.15-3.19,10.1-2.94c-6.94,16.1-10.18,32.65-6.21,50.1l-9.35-6.24-9.89-13.27C591.5,262,591.71,259.15,591.91,256.29Z" transform="translate(-420.09 -96.96)"/><path class="cls-64" d="M651.16,178.13l.06-6.39c4.64,5.43,9.62,10.6,13.86,16.33,12,16.19,17.64,16.69,36.21,2.55h3c0,2.06,0,4.13.07,6.19l-3.18,9.45-31.24,3.11Z" transform="translate(-420.09 -96.96)"/><path class="cls-178" d="M613.46,228c1.22-1.73,2.45-3.45,3.67-5.17,9.26-2.81,18.37-6.55,27.84-8.12,7.1-1.19,14.66.41,22,.78l-13.1,2.83-12,3.74Z" transform="translate(-420.09 -96.96)"/><path class="cls-176" d="M635.49,206.24l6.3-18.74c3.1,1.71,7.07,2.74,9.08,5.31,2.4,3.05,3.11,7.42,4.55,11.23-3.38-.64-6.85-2.07-10.12-1.7S638.75,204.87,635.49,206.24Z" transform="translate(-420.09 -96.96)"/><path class="cls-141" d="M603.49,240.4,592.6,250.54l-7.09-3.73-3.11-6.16,12.75.14-2.88-8.19-9.86,4.9q0-4.68,0-9.36l12.49,0Z" transform="translate(-420.09 -96.96)"/><path class="cls-88" d="M667,215.48c-7.36-.37-14.92-2-22-.78-9.47,1.57-18.58,5.31-27.84,8.12,11.49-4.47,22.79-9.6,34.57-13.13,5.59-1.68,12.11-.3,18.2-.31l3.52,5.83-1,1.18Z" transform="translate(-420.09 -96.96)"/><path class="cls-179" d="M613.46,228l28.41-5.94-3.26,6-18.75,3.39-3.12,2.85-10.1,2.94Z" transform="translate(-420.09 -96.96)"/><path class="cls-180" d="M641,191.56c-4.31,1.51-9.36,5.17-12.76,4-4.37-1.49-8.61-6.37-10.42-10.8-.67-1.65,5.58-8.54,8.88-8.7s6.82,5.15,10.25,8.05Z" transform="translate(-420.09 -96.96)"/><path class="cls-141" d="M576.16,231.25l-9.39,6.24q1.58-6.26,3.14-12.49Z" transform="translate(-420.09 -96.96)"/><path class="cls-105" d="M557.4,178.13l3.12-6.25c2.33,1.14,4.55,2.91,7,3.3,7.26,1.17,14.61,1.81,21.93,2.65l-3.87-18.48c10.07,5.91,13.39,24.76,5.57,33.28-1.22,1.33-4.76,2.15-6.24,1.36C575.58,189,566.54,183.47,557.4,178.13Z" transform="translate(-420.09 -96.96)"/><path class="cls-181" d="M716.57,165.82l9.61-10.61,15.59-8.14L763.67,172l-.33,6.3c-5.78,1.85-12.25,2.63-17.22,5.79-11.4,7.24-19.66,5.44-26-6.33Z" transform="translate(-420.09 -96.96)"/><path class="cls-182" d="M763.34,178.29l.33-6.3c.1-1.28.19-2.57.29-3.85q3,3.45,5.93,6.93l-6.18,6.21A23,23,0,0,0,763.34,178.29Z" transform="translate(-420.09 -96.96)"/><path class="cls-183" d="M452.41,602.86c-2.09,2.29-3.14,4.39-4.56,4.68-1,.2-3.66-2.22-3.53-3.19.23-1.63,1.84-3.44,3.36-4.35C448.29,599.64,450.2,601.47,452.41,602.86Z" transform="translate(-420.09 -96.96)"/><path class="cls-184" d="M776.17,203.15c-3.28,16.11-16.36,9.16-24.46,8.19-3-.37-4.57-13.4-6.78-20.66l6.12-2.71,6.37,5.82L769.9,200Z" transform="translate(-420.09 -96.96)"/><path class="cls-185" d="M757.42,193.79,751.05,188l12.66-6.69,6.18-6.21c2,6.23,12.25,12.44,0,18.7Z" transform="translate(-420.09 -96.96)"/><path class="cls-186" d="M757.42,193.79l12.51,0q0,3.14,0,6.27Z" transform="translate(-420.09 -96.96)"/><path class="cls-187" d="M763.71,181.28,751.05,188l-6.12,2.71-9.51,6q-3,.08-6.06.12l-9.68-12.36.48-6.71c6.3,11.77,14.56,13.57,26,6.33,5-3.16,11.44-3.94,17.22-5.79A23,23,0,0,1,763.71,181.28Z" transform="translate(-420.09 -96.96)"/><path class="cls-88" d="M741.79,218.72l-22.21.43c-6.87-.37-13.75-.72-20.63-1.12-8.84-.52-17.67-1.09-26.5-1.64l1-1.18c18.92.14,37.83.11,56.73.54C734.05,215.84,737.91,217.69,741.79,218.72Z" transform="translate(-420.09 -96.96)"/><path class="cls-188" d="M704.34,196.8c0-2.06-.05-4.13-.07-6.19,7.59-10.91,11.34-2.43,15.67,3.1,0,1,0,2.1-.05,3.15l-3.1,3.14-9.38-3.13Z" transform="translate(-420.09 -96.96)"/><path class="cls-184" d="M716.79,200l3.1-3.14,15.63,9.39C724.43,218.7,720.54,209.56,716.79,200Z" transform="translate(-420.09 -96.96)"/><path class="cls-189" d="M735.52,206.25l-15.63-9.39c0-1.05,0-2.1.05-3.15l9.42,3.12,6.06-.13C735.45,199.88,735.49,203.07,735.52,206.25Z" transform="translate(-420.09 -96.96)"/><path class="cls-190" d="M704.34,196.8l3.07.07-6.25,9.38Z" transform="translate(-420.09 -96.96)"/><path class="cls-179" d="M672.45,216.39c8.83.55,17.66,1.12,26.5,1.64,6.88.4,13.76.75,20.63,1.12a6.45,6.45,0,0,0,.57,2.44s-.76,1-.75,1l-5.72-.66L679.48,228l-25.59-9.73,13.1-2.82Z" transform="translate(-420.09 -96.96)"/><path class="cls-179" d="M791.89,234.09c0,1.12-.1,2.25-.14,3.37l-12.53-3-3,0-18.77,2.77-3.25-2.85-12.71-8.71c.25-.47.5-.94.76-1.41,11.44,1.45,22.94,2.56,34.29,4.52C781.8,229.69,786.78,232.27,791.89,234.09Z" transform="translate(-420.09 -96.96)"/><path class="cls-179" d="M720.15,221.59l22.09,2.67-.76,1.4-9.23,5.47-6.22-3-6.64-5.55Z" transform="translate(-420.09 -96.96)"/><path class="cls-191" d="M779.22,234.44l12.53,3,6.28,3.26c.58,6.83,3.79,14.93,1.24,20.27-6.65,13.9-14,28.37-24.44,39.32-14.56,15.2-17.42,30.88-11.17,49.69-15.67-11.81-20.16-10.12-24.75,9.47-.47,2-.18,4.12-.24,6.18q-1.57,6.24-3.16,12.47l-3.15,9.24-6.17,3.32,0-3.17c1.94-7.86,4.65-15.63,5.6-23.6.86-7.3-5.38-14.3-10.33-8.42-7,8.31-13.55,2.39-20,3.94.53-2.71.25-6,1.72-8.05,11.66-16.21,23.65-32.17,35.54-48.21,20.56,3.4,40.51-12.59,44.12-32.45A62.48,62.48,0,0,0,779.22,234.44Z" transform="translate(-420.09 -96.96)"/><path class="cls-192" d="M816.82,265.63c-9.29,12.4-18.2,25.12-28,37.14-11.68,14.38-17.37,30.16-16,48.87.95,12.92.22,26,.23,39l-.06,3.16q-1.56-12.5-3.14-25c-.58-12.27-5.16-26.2-.92-36.5,9.83-23.9,22-47.38,37.06-68.35,8-11.16,8.46-16.06-1.76-23.16C820.64,244.66,822.86,249.05,816.82,265.63Z" transform="translate(-420.09 -96.96)"/><path class="cls-193" d="M804.26,240.75c10.22,7.1,9.75,12,1.76,23.16-15,21-27.23,44.45-37.06,68.35-4.24,10.3.34,24.23.92,36.5L763.66,350c-6.25-18.81-3.39-34.49,11.17-49.69,10.48-10.95,17.79-25.42,24.44-39.32,2.55-5.34-.66-13.44-1.24-20.27Z" transform="translate(-420.09 -96.96)"/><path class="cls-194" d="M645.06,499.79l-3.18-2.67-3.16-.34L616.78,484.4l-15.53-6.5c0-1,0-2-.06-2.94q-9.36-9.37-18.73-18.76h0l-12.6-21.78.21-.24,11.72,6.61,13.47,14.74,21.31,16.62,56,25,22.16,2.62,19.2-2.53,5.59.06c.23.79.48,1.58.75,2.36-10.43,2.19-20.9,6.31-31.28,6.09C674.31,505.45,659.7,501.94,645.06,499.79Z" transform="translate(-420.09 -96.96)"/><path class="cls-195" d="M645.06,499.79c14.64,2.15,29.25,5.66,43.93,6,10.38.22,20.85-3.9,31.28-6.09l9.58,3.43-1.06,3.23c-.92-.06-1.84-.07-2.75,0-10,2-20.45,2.81-29.94,6.25C675.8,519.89,660.56,510,645.06,499.79Z" transform="translate(-420.09 -96.96)"/><path class="cls-196" d="M551.17,465.65l15.62-6.29,31.24,25-21.85-6.25c-4-2.08-8.07-4.21-12.14-6.23C559.77,469.74,555.46,467.72,551.17,465.65Z" transform="translate(-420.09 -96.96)"/><path class="cls-197" d="M766.81,543.91c-17,21.69-20,22.23-34.39,6.11l3.36-6.75c9,6.54,17.16,4,25-2.28Z" transform="translate(-420.09 -96.96)"/><path class="cls-198" d="M598,484.35l-31.24-25-6.24-12.5,21.91,9.34h0q9.36,9.39,18.73,18.76c0,1,.06,2,0,2.94l3,6.46Z" transform="translate(-420.09 -96.96)"/><path class="cls-195" d="M604.28,484.36l-3-6.46,15.54,6.5,21.94,12.38,3.16.34c-3.79,1.51-8.78,5.35-11.16,4.12C621.46,496.49,613,490.13,604.28,484.36Z" transform="translate(-420.09 -96.96)"/><path class="cls-199" d="M760.78,541c-7.84,6.23-16,8.82-25,2.28L730,533.45l1.52-5.81c5.93,7.93,12.56,13.51,22.82,6.73,1,.08,1.92.17,2.88.29l2.86,5.62Z" transform="translate(-420.09 -96.96)"/><path class="cls-200" d="M731.52,527.64,730,533.45l-4-27.16c.91,0,1.83,0,2.75,0q1.63,7.8,3.29,15.61C731.89,523.84,731.71,525.74,731.52,527.64Z" transform="translate(-420.09 -96.96)"/><path class="cls-201" d="M807.38,437.51c27.72,4.62,32.7,13.33,25,43.73l-6.28-3.11-18.74-15.66Z" transform="translate(-420.09 -96.96)"/><path class="cls-202" d="M773,393.76l.06-3.16,2.95,0,9.54,6.23q4.7,9.31,9.41,18.62,0,6.31-.07,12.63l-3.26.22-9.15-3.43q-4.71-10.91-9.41-21.82Z" transform="translate(-420.09 -96.96)"/><path class="cls-203" d="M794.91,428.13q0-6.31.07-12.63l9.63,21.64-.69.86-8.73,9.07-3.51-.29Q793.3,437.47,794.91,428.13Z" transform="translate(-420.09 -96.96)"/><path class="cls-204" d="M826.12,478.13l6.28,3.11,3.25.1,9.31,6.15c0,.94-.1,1.88-.17,2.82l-24.43-4.87a1.44,1.44,0,0,1-.29-1.59Z" transform="translate(-420.09 -96.96)"/><path class="cls-203" d="M807.38,437.51v25l-3.21,6.21a25.41,25.41,0,0,0-2.61-.17l-4.2-5.68,3.49-6.86,3.07-18,.69-.87A20,20,0,0,0,807.38,437.51Z" transform="translate(-420.09 -96.96)"/><path class="cls-205" d="M791.78,362.49c0-1,0-2,0-3.06,1.9-1.4,4.91-2.44,5.48-4.25,1.84-5.79,1.24-12.92,4.46-17.53,3.45-4.94,10.15-7.6,15.44-11.26,2.95,5.05,6.23,9.93,8.73,15.19,1.69,3.58,2.27,7.69,3.35,11.56,0,2.06,0,4.13,0,6.19L798,365.62Q794.89,364.06,791.78,362.49Z" transform="translate(-420.09 -96.96)"/><path class="cls-206" d="M829.28,353.14c-1.08-3.87-1.66-8-3.35-11.56-2.5-5.26-5.78-10.14-8.73-15.19-5.29,3.66-12,6.32-15.44,11.26-3.22,4.61-2.62,11.74-4.46,17.53-.57,1.81-3.58,2.85-5.48,4.25-4.67-17.35,3.5-30.07,14.81-41.8,1-1,.66-3.32,1-5,5.45.71,12.53,4.91,12.6-5.89,5.1,10.16,11.32,20,14.73,30.65C836.26,341.59,831.34,347.82,829.28,353.14Z" transform="translate(-420.09 -96.96)"/><path class="cls-206" d="M791.78,362.49q3.11,1.58,6.23,3.13l-6.2,6.21-3.3-6.37c0-1,.07-2,.07-2.94Z" transform="translate(-420.09 -96.96)"/><path class="cls-207" d="M788.59,618.66l-21.64-3c-.12-21.94,1.34-23.64,18.8-21.79Q787.18,606.27,788.59,618.66Z" transform="translate(-420.09 -96.96)"/><path class="cls-208" d="M984.61,490.19l-10.87,10.42-7.54-4,3.36-3.54,6.81-5.23,6.48-9.34,1.26-.12,1.24.18Q985,484.37,984.61,490.19Z" transform="translate(-420.09 -96.96)"/><path class="cls-209" d="M987.69,463c.07,3.91.15,7.81.23,11.72a20.47,20.47,0,0,1-2,.49q-1.83-7.92-3.65-15.83l3.17.05Z" transform="translate(-420.09 -96.96)"/><path class="cls-210" d="M982.25,459.39q1.83,7.92,3.65,15.83l-.54,3.33-1.25-.18-1.26.12-4.19-.46-.27-15.23Z" transform="translate(-420.09 -96.96)"/><path class="cls-211" d="M948.36,439.91l15.29-2.19,8.91,3.14q5,6,10,12.07l-9.64.18-2.88,0-2.82-3.26c-8.09-8.42-12.89-8.35-15.55.23l-3,3.41-6.47.22-6.57,5.12-9.12.77-.26-.38Z" transform="translate(-420.09 -96.96)"/><path class="cls-212" d="M972.89,453.11l9.64-.18q1.44,3.26,2.89,6.51l-3.17-.05-3.86,3.41c-.6.05-1.21.08-1.82.1Q974.73,458,972.89,453.11Z" transform="translate(-420.09 -96.96)"/><path class="cls-213" d="M766.81,543.91l-6-2.92-.7-.71,6.79-2.95,21.87-9,0-.13h3l6.78,6.39c-3.23,14-15.36,5.1-22.59,8.8Z" transform="translate(-420.09 -96.96)"/><path class="cls-214" d="M798.57,534.57l-6.78-6.39,9,2.79Z" transform="translate(-420.09 -96.96)"/><path class="cls-215" d="M920.66,464.78l5.53-5.58.26.37,2.91,15.21-7.94,6Z" transform="translate(-420.09 -96.96)"/><path class="cls-216" d="M921.42,480.76l7.94-6,4.5,0-.75,5.2q-2,5-4,10.07a6.89,6.89,0,0,1-2.56.06Z" transform="translate(-420.09 -96.96)"/><path class="cls-217" d="M926.52,490.09a6.89,6.89,0,0,0,2.56-.06l9.55,3.76,9.32,3.74-3.57,2.83-15-.55Z" transform="translate(-420.09 -96.96)"/><path class="cls-132" d="M929.4,499.81l15,.55c.45.76.88,1.54,1.29,2.32l-22.07.86-3.48-2.16Z" transform="translate(-420.09 -96.96)"/><path class="cls-218" d="M895.27,506.41a27.67,27.67,0,0,0,0,3q-2,4.24-3.89,8.49l-8.84.43c0-.9-.1-1.79-.14-2.69L870,509.3l12.61-3Z" transform="translate(-420.09 -96.96)"/><path class="cls-219" d="M923.6,503.54l22.07-.86,1.15-.11,1.15.18q-1.35,3.22-2.69,6.45l-22.6-2.95C923,505.34,923.26,504.43,923.6,503.54Z" transform="translate(-420.09 -96.96)"/><path class="cls-220" d="M807.41,493.81l28,3.71c5.25,15.79,4.05,17.9-11.09,18.1-16.12.2-32.23.1-48.35.12l-24.66-3.27-3.63-9c5.29-1.27,10.53-2.94,15.89-3.75,14.61-2.21,29.28-4.07,43.92-6.06Z" transform="translate(-420.09 -96.96)"/><path class="cls-221" d="M776,515.75c16.12,0,32.23.07,48.35-.13,15.14-.2,16.34-2.31,11.09-18.1l9.34-.34q-1.35,7.62-2.71,15.24-.1,3.18-.22,6.38l-15.43,2.7-40.83-2.7-9.25-.26C776.2,517.61,776.09,516.68,776,515.75Z" transform="translate(-420.09 -96.96)"/><path class="cls-222" d="M842.05,512.42l2.7-15.24,9.76-.09q-.21,10.67-.43,21.33Z" transform="translate(-420.09 -96.96)"/><path class="cls-223" d="M854.08,518.42q.23-10.66.43-21.33l7,3.74a11,11,0,0,0-.84,2.29c-5.83,8.32-2.58,12.06,6.49,12.51,5.06.26,10.14,0,15.22,0,0,.9.09,1.79.14,2.69q-14.16,1.57-28.31,3.18C854.2,520.49,854.16,519.46,854.08,518.42Z" transform="translate(-420.09 -96.96)"/><path class="cls-224" d="M820.36,485.44l-13,8.37.08-.14c0-1.07.07-2.13.1-3.19l9.8-6.73c.89,0,1.79.06,2.68.1A1.44,1.44,0,0,0,820.36,485.44Z" transform="translate(-420.09 -96.96)"/><path class="cls-225" d="M882.36,515.66c-5.08,0-10.16.23-15.22,0-9.07-.45-12.32-4.19-6.49-12.51L870,509.3Z" transform="translate(-420.09 -96.96)"/><path class="cls-226" d="M948,502.75l-1.15-.18-1.15.11c-.41-.78-.84-1.56-1.29-2.32l3.57-2.83,3.34-.68,14.91-.25,7.54,4a14.78,14.78,0,0,1-1.63,2.08Z" transform="translate(-420.09 -96.96)"/><path class="cls-227" d="M591.91,256.29c-.2,2.86-.41,5.71-.62,8.57l-2.7,3.86-3.16-3q-3.07-3.17-6.14-6.35Z" transform="translate(-420.09 -96.96)"/><path class="cls-228" d="M582.41,237.5l9.86-4.9,2.88,8.19-12.75-.14a11.75,11.75,0,0,1-.86-2.21C581.49,238.2,582.1,237.82,582.41,237.5Z" transform="translate(-420.09 -96.96)"/><path class="cls-229" d="M581.79,440.79l-11.72-6.61-9.49-15.46c-2-18.34-17.78-11.68-27.83-15.42l-.36-6.44,25.35,2.9a23.07,23.07,0,0,1,2.6.42l19,34Q580.56,437.51,581.79,440.79Z" transform="translate(-420.09 -96.96)"/><path class="cls-230" d="M579.31,434.22l-19-34,.09-9.45,6.36-3.23q4.69,12.51,9.37,25,3.14,7.78,6.26,15.58Q580.88,431.17,579.31,434.22Z" transform="translate(-420.09 -96.96)"/><path class="cls-231" d="M532.75,403.3c10,3.74,25.87-2.92,27.83,15.42l-27.69-6.26-.88.24C532.26,409.57,532.5,406.43,532.75,403.3Z" transform="translate(-420.09 -96.96)"/><path class="cls-232" d="M557.74,399.76l-25.35-2.9,13-12.25Z" transform="translate(-420.09 -96.96)"/><path class="cls-233" d="M532.89,412.46l27.69,6.26,9.49,15.46-.21.24c-4-2.26-8.15-6.5-12.06-6.31-5.47.26-15.3-6.82-16,6.32l-3.3,12.76Z" transform="translate(-420.09 -96.96)"/><path class="cls-234" d="M569.9,278.14l-62.48,65.61c7.9-22.35,21.31-40.48,41.35-53.36C555.61,286,562.85,282.2,569.9,278.14Z" transform="translate(-420.09 -96.96)"/><path class="cls-235" d="M588.59,268.72l2.7-3.86q5,6.63,9.88,13.27c3.74,22.2,8.14,44.33,10.94,66.65,1.54,12.22,6.84,25.65-4.69,36.48q0-14.07,0-28.14c-3.58-12.31-6.49-24.87-11.06-36.8-2-5.26-7.4-9.22-11.26-13.78L588.32,275Z" transform="translate(-420.09 -96.96)"/><path class="cls-236" d="M585.08,302.54c3.86,4.56,9.25,8.52,11.26,13.78,4.57,11.93,7.48,24.49,11.06,36.8-2,2.59-5,4.89-5.94,7.84-4.57,14-8.58,28.09-12.8,42.16,1.62-12.71,3.73-25.39,4.74-38.15,1.18-14.94,7-31-7.88-43.1q-1.6-7.89-3.2-15.8Z" transform="translate(-420.09 -96.96)"/><path class="cls-237" d="M582.32,306.07q1.6,7.9,3.2,15.8l-10-3.53q2.1-5.94,4.19-11.9C580.58,306.28,581.44,306.16,582.32,306.07Z" transform="translate(-420.09 -96.96)"/><path class="cls-238" d="M576.16,412.51q-4.68-12.51-9.37-25c11.73-19.32,2.34-39.71,3-59.59q1.68-3,3.34-6c15.45,8.16,17.32,20.29,13,36.35C581.48,376,579.39,394.41,576.16,412.51Z" transform="translate(-420.09 -96.96)"/><path class="cls-239" d="M576.16,412.51c3.23-18.1,5.32-36.51,10.05-54.22,4.28-16.06,2.41-28.19-13-36.35l2.36-3.6,10,3.53C600.39,334,594.58,350,593.4,365c-1,12.76-3.12,25.44-4.74,38.15q-1.57,12.5-3.16,25l-3.08,0Z" transform="translate(-420.09 -96.96)"/><path class="cls-240" d="M541.8,434.43c.7-13.14,10.53-6.06,16-6.32,3.91-.19,8,4.05,12.06,6.31l12.6,21.78-21.91-9.34c0-1,0-2.05,0-3.08Z" transform="translate(-420.09 -96.96)"/><path class="cls-241" d="M891.34,517.92q1.93-4.24,3.89-8.49,5.19,2.83,10.37,5.68l-10,4Z" transform="translate(-420.09 -96.96)"/><path class="cls-242" d="M854.08,518.42c.08,1,.12,2.07.11,3.11l-9.24.53-3.13-3.26q.12-3.19.22-6.38Z" transform="translate(-420.09 -96.96)"/><path class="cls-243" d="M776.31,518.53l9.25.27c0,1,0,2,0,3l-12.92.4-6-.18.67-.71Z" transform="translate(-420.09 -96.96)"/><path class="cls-244" d="M766.7,522l6,.18,16,3.17q.07,1.42.18,2.85l0,.13-21.86-.19Z" transform="translate(-420.09 -96.96)"/><path class="cls-245" d="M616.74,234.27l3.12-2.85c0,1,0,2,0,3l9.36,53.15q0,6.22,0,12.45c.14,1.39.27,2.78.41,4.17-2.6,16.35,7.85,9.85,15.24,8.7-6.62,4.58-13.56,8.76-7,18.66,1.41,2.12,1.1,6.47-.08,9-5,10.75-1.59,19.81,4.63,28.56l-4.26,9.05-2.68-.07-6.27,0h-9.36c7.3-32.29-3.46-62.78-9.38-93.75C606.56,266.92,609.8,250.37,616.74,234.27Z" transform="translate(-420.09 -96.96)"/><path class="cls-246" d="M610.53,284.37c5.92,31,16.68,61.46,9.38,93.75v0l-21.84,53.11c-7.62-9.15-6-18.53-1-28.22,3.7-7.14,7-14.51,10.4-21.77,11.53-10.83,6.23-24.26,4.69-36.48-2.8-22.32-7.2-44.45-10.94-66.65Z" transform="translate(-420.09 -96.96)"/><path class="cls-247" d="M629.27,287.55l-9.36-53.15,18.7-6.37,3.26-6,12-3.74L679.48,228c-3.61-.28-7.23-.45-10.82-.85-14.87-1.65-29.14,12.26-29.28,27-.1,10.06-2.48,20.1-3.84,30.15Z" transform="translate(-420.09 -96.96)"/><path class="cls-177" d="M638.61,228l-18.7,6.37c0-1,0-2,0-3Z" transform="translate(-420.09 -96.96)"/><path class="cls-248" d="M635.54,284.38c1.36-10.05,3.74-20.09,3.84-30.15.14-14.79,14.41-28.7,29.28-27,3.59.4,7.21.57,10.82.85l34.2-6.08L726,228.16l6.22,3,12.67,3.24c-.76,3.55-3.2,7.87-2,10.51,8,17.47,6.93,24-7.39,36.38q0,6.21,0,12.41l-3.67.36-28.17-9.35,3.77-3.46c5.48-6.2,11.79-11.86,16.19-18.75,4-6.21,9.16-14.8-2.25-19.18-10-3.85-20.59-7.74-31.15-8.56-28.06-2.17-48.45,25.46-39.66,52.55.53,1.64,3,2.64,4.64,3.93l-3.6,2.72-12.93,5.71-9,4.53c-.14-1.39-.27-2.78-.41-4.17Q632.4,292.19,635.54,284.38Z" transform="translate(-420.09 -96.96)"/><path class="cls-249" d="M726,228.16,713.68,222l5.72.66Z" transform="translate(-420.09 -96.96)"/><path class="cls-250" d="M779.22,234.44a62.48,62.48,0,0,1,3.62,36.28c-3.61,19.86-23.56,35.85-44.12,32.45l-.08-.07q1.58-6.21,3.13-12.42l3.13,6.18c4.11-2.07,8.66-3.58,12.26-6.33,17.05-13,28.39-33,9.62-49.89l-6.22,0v-3.11l15.65-3Z" transform="translate(-420.09 -96.96)"/><path class="cls-249" d="M744.9,296.86l-3.13-6.18q-3.12-4.71-6.23-9.42c14.32-12.39,15.37-18.91,7.39-36.38-1.21-2.64,1.23-7,2-10.51h9.27l3.25,2.86,3.12.25v3.11c1.57,16.24-.38,31.47-12.53,43.78Z" transform="translate(-420.09 -96.96)"/><path class="cls-251" d="M754.19,234.38h-9.27l-12.67-3.24,9.23-5.47Z" transform="translate(-420.09 -96.96)"/><path class="cls-191" d="M760.56,237.49l-3.12-.25,18.77-2.78Z" transform="translate(-420.09 -96.96)"/><path class="cls-252" d="M731.85,294l3.67-.36,3.12,9.43.08.07c-11.89,16-23.88,32-35.54,48.21-1.47,2-1.19,5.34-1.72,8.05-.1,1-.17,2-.2,3l-12.88-.8-12.2-2.3c0-1,0-2.07,0-3.11,23.3.07,24.29-22,34.15-35.14,1.15-1.52-3-7-4.68-10.74l8.15-4.42C722.45,306,734.56,311.21,731.85,294Z" transform="translate(-420.09 -96.96)"/><path class="cls-253" d="M701.26,362.46c0-1,.1-2,.2-3,6.42-1.55,13,4.37,20-3.94,5-5.88,11.19,1.12,10.33,8.42-1,8-3.66,15.74-5.6,23.6l-5.86.16-15.66-19.1a11.79,11.79,0,0,1-1.24-2.29l3.51-1.93Z" transform="translate(-420.09 -96.96)"/><path class="cls-254" d="M726.19,390.68l6.17-3.32.06.25v6.15c-12.24,14.58,1.05,29.17,0,43.76-20-4.77-17.88-19.54-15.62-34.4l6.31-6.1C724.12,394.91,725.15,392.79,726.19,390.68Z" transform="translate(-420.09 -96.96)"/><path class="cls-255" d="M773,393.76c0,3.11.05,6.22.06,9.34l-.07,0c-1,0-2,0-3.06,0-1.07-2.07-2.15-4.13-3.22-6.19q0-3.13,0-6.27c-.8-7.12-.56-14.58-2.73-21.26-1.87-5.78-6.47-10.68-9.86-16l-15.46,12.2c.06-2.06-.23-4.21.24-6.18,4.59-19.59,9.08-21.28,24.75-9.47l6.22,18.76Q771.46,381.27,773,393.76Z" transform="translate(-420.09 -96.96)"/><path class="cls-256" d="M738.67,365.65l15.46-12.2c3.39,5.28,8,10.18,9.86,16,2.17,6.68,1.93,14.14,2.73,21.26l-6.19-12.54L755,363.62c-4.58,2.5-9.38,4.69-13.66,7.63-2.39,1.64-3.92,4.54-5.84,6.87Q737.1,371.88,738.67,365.65Z" transform="translate(-420.09 -96.96)"/><path class="cls-257" d="M735.51,378.12c1.92-2.33,3.45-5.23,5.84-6.87,4.28-2.94,9.08-5.13,13.66-7.63l5.52,14.51c-5.33-6.37-10.48-7.58-16.52-.47-3.26,3.83-7.69,6.66-11.59,9.95l-.06-.25Z" transform="translate(-420.09 -96.96)"/><path class="cls-258" d="M726.19,390.68c-1,2.11-2.07,4.23-3.11,6.34L695,384.38l-3.26-2.87,28.58,6.16,5.86-.16Z" transform="translate(-420.09 -96.96)"/><path class="cls-259" d="M672.57,497.16l-56-25,6.48-6.56c6,4.07,11.77,8.4,18,12.08,3,1.8,6.77,2.39,10.2,3.52l18.7,6.33,21.76,3,.12.08,3.27,6.37.11.15Z" transform="translate(-420.09 -96.96)"/><path class="cls-260" d="M623.05,465.59l-6.48,6.56-21.32-16.62c1-2.88,1.89-5.77,2.83-8.65l18.74,12.51Z" transform="translate(-420.09 -96.96)"/><path class="cls-261" d="M719.52,497.31l-5.59-.06-9.82-.72q3.24-6.06,6.46-12.13l19.16.21a6.46,6.46,0,0,1-.43,2.92Z" transform="translate(-420.09 -96.96)"/><path class="cls-262" d="M598.08,446.88c-.94,2.88-1.88,5.77-2.83,8.65l-13.46-14.74q-1.23-3.29-2.48-6.57,1.56-3.06,3.11-6.13l3.08,0c1.5,4.12,2.45,8.6,4.79,12.17.83,1.27,5,.33,7.68.4Q598,443.79,598.08,446.88Z" transform="translate(-420.09 -96.96)"/><path class="cls-240" d="M601.19,475q-9.36-9.37-18.73-18.76Q591.82,465.59,601.19,475Z" transform="translate(-420.09 -96.96)"/><path class="cls-240" d="M638.72,496.78,616.78,484.4Z" transform="translate(-420.09 -96.96)"/><path class="cls-263" d="M719.52,497.31l9.78-9.78c.1,1.08.21,2.16.31,3.24q1.38,5.22,2.75,10.44a11,11,0,0,1,.23,2.21,14,14,0,0,1-2.74-.32l-9.58-3.43C720,498.89,719.75,498.1,719.52,497.31Z" transform="translate(-420.09 -96.96)"/><path class="cls-264" d="M672.57,497.16l22.6,0a23.62,23.62,0,0,1-.44,2.65Z" transform="translate(-420.09 -96.96)"/><path class="cls-263" d="M694.73,499.78a23.62,23.62,0,0,0,.44-2.65l-.11-.15,9.05-.45,9.82.72Z" transform="translate(-420.09 -96.96)"/><path class="cls-199" d="M729.85,503.1a14,14,0,0,0,2.74.32l6.36,6.32-.64,9-6.23,3.22q-1.65-7.82-3.29-15.61C729.14,505.25,729.49,504.17,729.85,503.1Z" transform="translate(-420.09 -96.96)"/><path class="cls-265" d="M732.08,521.94l6.23-3.22,9,6.43,3.42-.16q1.83,4.69,3.65,9.38c-10.26,6.78-16.89,1.2-22.82-6.73C731.71,525.74,731.89,523.84,732.08,521.94Z" transform="translate(-420.09 -96.96)"/><path class="cls-266" d="M766.87,537.33l-6.79,2.95-2.86-5.62,3.84-3.7c.84.11,1.68.23,2.52.37Q765.23,534.33,766.87,537.33Z" transform="translate(-420.09 -96.96)"/><path class="cls-267" d="M761.06,531l-3.84,3.7c-1-.12-1.92-.21-2.88-.29q-1.82-4.7-3.64-9.38Z" transform="translate(-420.09 -96.96)"/><path class="cls-268" d="M820.07,483.85c-.89,0-1.79-.08-2.68-.1l-13.22-15.07,3.21-6.21,18.74,15.66Z" transform="translate(-420.09 -96.96)"/><path class="cls-269" d="M794.91,428.13q-1.62,9.33-3.23,18.65L757.42,450c-14.2-4.91-5.44,5.35-6.17,9.34l-9.36-12.46q1.44-9.39,2.89-18.77H748q3.21,6.26,6.43,12.52l21.72,6.15q7.75-9.21,15.52-18.41Z" transform="translate(-420.09 -96.96)"/><path class="cls-270" d="M791.65,428.35q-7.77,9.19-15.52,18.41l7.59-14.25c-5.66-1.46-11.32-2.95-17-4.35a13.65,13.65,0,0,0-3.07,0l6.26-6.23,12.59,3Z" transform="translate(-420.09 -96.96)"/><path class="cls-255" d="M782.5,424.92l-12.59-3q1.56-9.37,3.1-18.74l.07,0Z" transform="translate(-420.09 -96.96)"/><path class="cls-271" d="M757.42,450l34.26-3.21,3.51.29q-.3,2.87-.58,5.74l-5.94.27-28.19.2c-1,0-2-.08-3.05-.08C757.42,452.13,757.42,451.06,757.42,450Z" transform="translate(-420.09 -96.96)"/><path class="cls-272" d="M794.61,452.81q.28-2.88.58-5.74l8.73-9.07q-1.54,9-3.07,18Z" transform="translate(-420.09 -96.96)"/><path class="cls-273" d="M729.61,490.77c-.1-1.08-.21-2.16-.31-3.24a6.46,6.46,0,0,0,.43-2.92l2.43-3.49,5.91-6.39L751.56,469l1.36,0,1.29-.42,8.86-.31,34.29-5.46,4.19,5.68c-8.78,2.2-6.26,9.19-6.4,15.06l-.55,1.36-15.34-.68-28.33,2.91-15.47,6.46Z" transform="translate(-420.09 -96.96)"/><path class="cls-274" d="M797.36,462.83l-34.29,5.46-8.74-8.93,3.1-6.16c1,0,2,0,3.05.08l28.19-.2,5.94-.27,6.24,3.16Z" transform="translate(-420.09 -96.96)"/><path class="cls-275" d="M795.15,483.57c.14-5.87-2.38-12.86,6.4-15.06a25.42,25.42,0,0,1,2.62.17l13.22,15.07-9.8,6.73Z" transform="translate(-420.09 -96.96)"/><path class="cls-276" d="M966.2,496.6l-14.91.25q-.13-3.06-.25-6.11.09-3,.17-6l5.87-.58,3.56,3.25,8.92,5.66Z" transform="translate(-420.09 -96.96)"/><path class="cls-277" d="M969.56,493.06l-8.92-5.66,12.67-3,3.06,3.41Z" transform="translate(-420.09 -96.96)"/><path class="cls-278" d="M976.37,487.83l-3.06-3.41c.05-2.24.1-4.49.16-6.73l5.19.34,4.19.46Z" transform="translate(-420.09 -96.96)"/><path class="cls-279" d="M978.66,478l-5.19-.34a20.7,20.7,0,0,1-.34-2.61q1.73-6.09,3.44-12.18c.61,0,1.22,0,1.82-.1Z" transform="translate(-420.09 -96.96)"/><path class="cls-280" d="M969.83,468.8c-.91-2.1-1.83-4.19-2.75-6.29.16-1.13.33-2.26.5-3.38l2.43-6.05,2.88,0q1.85,4.89,3.68,9.79-1.71,6.09-3.44,12.18c-.88-.05-1.76-.13-2.64-.23Z" transform="translate(-420.09 -96.96)"/><path class="cls-281" d="M935.57,458.8q-.86,8-1.72,16l-4.49,0-2.91-15.21Z" transform="translate(-420.09 -96.96)"/><path class="cls-282" d="M951.64,450.05c2.66-8.58,7.46-8.65,15.55-.23l-3.48.21Z" transform="translate(-420.09 -96.96)"/><path class="cls-283" d="M963.71,450l3.48-.21,2.82,3.26-2.43,6.05-10.08-5.41Z" transform="translate(-420.09 -96.96)"/><path class="cls-284" d="M963.71,450l-6.22,3.69-3.33,2.13-5.56-2.39c1-1.13,2-2.27,3-3.41Z" transform="translate(-420.09 -96.96)"/><path class="cls-285" d="M766.87,537.33q-1.64-3-3.29-6l3.3-3.2,21.86.19Z" transform="translate(-420.09 -96.96)"/><path class="cls-286" d="M933.11,480l5.56.82q.06,6.38.14,12.75l-.18.26L929.08,490Q931.09,485,933.11,480Z" transform="translate(-420.09 -96.96)"/><path class="cls-287" d="M951,490.74q.12,3,.25,6.11l-3.34.68-9.32-3.74.18-.26Z" transform="translate(-420.09 -96.96)"/><path class="cls-288" d="M795.15,483.57l12.44,6.91c0,1.06-.07,2.12-.1,3.19-14.64,2-29.31,3.85-43.92,6.06-5.36.81-10.6,2.48-15.89,3.75-3.07-1.18-6.14-2.34-9.22-3.51.11-1,.23-2,.36-2.92l18.59-6.21,3.38.19,21.73-.25,12.07-5.85Z" transform="translate(-420.09 -96.96)"/><path class="cls-289" d="M738.46,500c3.08,1.17,6.15,2.33,9.22,3.51l3.63,9,16.06,8.81-.67.71.18,6.14-3.3,3.2c-.84-.14-1.68-.26-2.52-.37l-10.36-6-3.42.16q-4.15-7.71-8.33-15.41l-6.36-6.32a11.16,11.16,0,0,0-.23-2.22Z" transform="translate(-420.09 -96.96)"/><path class="cls-290" d="M767.37,521.28l-16.06-8.81L776,515.74c.12.94.23,1.87.34,2.8Z" transform="translate(-420.09 -96.96)"/><path class="cls-291" d="M598,440.7c-2.66-.07-6.85.87-7.68-.4-2.34-3.57-3.29-8.05-4.79-12.17q1.57-12.51,3.16-25c4.22-14.07,8.23-28.2,12.8-42.16,1-2.95,3.91-5.25,5.94-7.84q0,14.07,0,28.14c-3.45,7.26-6.7,14.63-10.4,21.77-5,9.69-6.58,19.07,1,28.22,0,2.07,0,4.15,0,6.22C598,438.55,598,439.63,598,440.7Z" transform="translate(-420.09 -96.96)"/><path class="cls-292" d="M676.19,356.25c0,1,0,2.08,0,3.11l-21.8,6-11.9,3.78c-6.22-8.75-9.59-17.81-4.63-28.56,1.18-2.55,1.49-6.9.08-9-6.56-9.9.38-14.08,7-18.66l30.17-10.12c13-2.56,16.19,3.8,16.84,15.8.85,15.59-3.1,27.21-18,33.87-.7.31-.59,2.43-.85,3.71Z" transform="translate(-420.09 -96.96)"/><path class="cls-293" d="M675.1,302.75l-30.17,10.12c-7.39,1.15-17.84,7.65-15.24-8.7l9-4.53,12.93-5.71,3.6-2.72,12.27-3.45,14.5-.58L696.34,291c.2-.95.39-1.9.59-2.85l-14.93-1,21.68-2.51L731.85,294c2.71,17.18-9.4,11.92-18,11.92Z" transform="translate(-420.09 -96.96)"/><path class="cls-294" d="M619.91,378.12h9.36l.06,9.39,0,6.23c-4.7,10.3-11.7,20.23-13.42,31-1.6,10,2.43,20.95,4,31.48l-6.25-3.11c-1.23-4.43-1.31-9.73-3.88-13.14-8.93-11.83-3.16-22,1.53-33.14,3.86-9.14,5.79-19.1,8.58-28.7Z" transform="translate(-420.09 -96.96)"/><path class="cls-295" d="M642.48,369.11l11.89-3.78,6.3.65,12.18,5.73-15.41,3.42-12.56,6.19-6.66-3.16Z" transform="translate(-420.09 -96.96)"/><path class="cls-296" d="M629.33,387.51l-.06-9.39,6.27,0c0,2.1,0,4.2,0,6.31Z" transform="translate(-420.09 -96.96)"/><path class="cls-297" d="M635.54,284.38q-3.13,7.8-6.26,15.62,0-6.22,0-12.45Z" transform="translate(-420.09 -96.96)"/><path class="cls-298" d="M635.52,384.41c0-2.11,0-4.21,0-6.31l2.68.06,6.66,3.16,12.72-.64-.38,1.07Z" transform="translate(-420.09 -96.96)"/><path class="cls-245" d="M619.9,378.14c-2.79,9.6-4.72,19.56-8.58,28.7-4.69,11.12-10.46,21.31-1.53,33.14,2.57,3.41,2.65,8.71,3.88,13.14l-15.59-15.65c0-2.07,0-4.15,0-6.22Z" transform="translate(-420.09 -96.96)"/><path class="cls-299" d="M703.68,284.68,682,287.19h0l-14.5.58-7-2.18c5-13.42,8.63-27.67,15.57-40s17.44-7.87,28.26-2.31c13.07,6.7,7.21,13.08,2.28,20.76-3.67,5.71-10.71,12.06.85,17.21Z" transform="translate(-420.09 -96.96)"/><path class="cls-300" d="M707.45,281.22c-11.56-5.15-4.52-11.5-.85-17.21,4.93-7.68,10.79-14.06-2.28-20.76-10.82-5.56-21.3-10.07-28.26,2.31s-10.52,26.6-15.57,40l7,2.18-12.27,3.45c-1.6-1.29-4.11-2.29-4.64-3.93-8.79-27.09,11.6-54.72,39.66-52.55,10.56.82,21.12,4.71,31.15,8.56,11.41,4.38,6.21,13,2.25,19.18C719.24,269.36,712.93,275,707.45,281.22Z" transform="translate(-420.09 -96.96)"/><path class="cls-251" d="M738.64,303.1l-3.12-9.43q0-6.21,0-12.41,3.11,4.71,6.23,9.42Q740.21,296.89,738.64,303.1Z" transform="translate(-420.09 -96.96)"/><path class="cls-297" d="M651.62,293.93l-12.93,5.71Z" transform="translate(-420.09 -96.96)"/><path class="cls-301" d="M744.9,296.86q1.56-6.24,3.13-12.48c7.08,2.08,9.73,1.4,12.09-7.44,3.16-11.85,4.52-24.18,6.66-36.3,18.77,16.88,7.43,36.86-9.62,49.89C753.56,293.28,749,294.79,744.9,296.86Z" transform="translate(-420.09 -96.96)"/><path class="cls-251" d="M766.78,240.64c-2.14,12.12-3.5,24.45-6.66,36.3-2.36,8.84-5,9.52-12.09,7.44,12.15-12.31,14.1-27.54,12.53-43.78Z" transform="translate(-420.09 -96.96)"/><path class="cls-302" d="M675.1,302.75l38.71,3.2-8.15,4.42c1.71,3.72,5.83,9.22,4.68,10.74-9.86,13.1-10.85,35.21-34.15,35.14l-3.08-.12c.26-1.28.15-3.4.85-3.71,14.88-6.66,18.83-18.28,18-33.87C691.29,306.55,688.11,300.19,675.1,302.75Z" transform="translate(-420.09 -96.96)"/><path class="cls-302" d="M660.68,366l-6.31-.65,21.81-6,12.21,2.3L681.76,363Z" transform="translate(-420.09 -96.96)"/><path class="cls-191" d="M681.77,363l6.62-1.33,12.87.8,5.65,1.89-3.51,1.93Z" transform="translate(-420.09 -96.96)"/><path class="cls-303" d="M657.44,375.13l15.41-3.42,31.79-3.14,15.66,19.1-28.58-6.16-31.05-.31-3.44.55.37-1.07C657.55,378.83,657.5,377,657.44,375.13Z" transform="translate(-420.09 -96.96)"/><path class="cls-304" d="M704.64,368.57l-31.79,3.14L660.67,366l21.09-3,21.64,3.29A11.79,11.79,0,0,0,704.64,368.57Z" transform="translate(-420.09 -96.96)"/><path class="cls-305" d="M660.67,381.2l31.05.31,3.26,2.87c-.85,16.59,1.56,18.67,21.79,18.74-2.26,14.86-4.34,29.63,15.62,34.4q1.56,7.8,3.14,15.6c-2-1.52-3.92-3.46-6.19-4.47-5.3-2.37-10.8-4.29-16.21-6.39-1.31,5.79-2.83,11.55-3.81,17.39-.32,1.87.78,4,1.22,6q-1.54,4.69-3.11,9.39l-15.64,15.61-.12-.07q-3.06-3.09-6.14-6.17l6.21,0c10-8.44,11.53-20,8.8-31.34-4-16.86-9.91-33.27-15-49.87-3.44-5,4.17-16.72-9.43-15.59-.73-2-1.19-5.66-2.25-5.84C669.56,381,665.08,381.28,660.67,381.2Z" transform="translate(-420.09 -96.96)"/><path class="cls-306" d="M735.53,453.12q-1.57-7.8-3.14-15.6c1.08-14.59-12.21-29.18,0-43.76l22.51-3.54,2.49,16q-6.27,7.8-12.52,15.61-.06,3.12-.13,6.24l-2.88,18.77q-1.64,4.75-3.26,9.5Z" transform="translate(-420.09 -96.96)"/><path class="cls-307" d="M757.42,406.25l-2.49-16-22.51,3.54v-6.15c3.9-3.29,8.33-6.12,11.59-9.95,6-7.11,11.19-5.9,16.52.47l6.19,12.54q0,3.13,0,6.27-1.53,4.67-3,9.33Z" transform="translate(-420.09 -96.96)"/><path class="cls-308" d="M716.77,403.12c-20.23-.07-22.64-2.15-21.79-18.74L723.08,397Z" transform="translate(-420.09 -96.96)"/><path class="cls-309" d="M773,403.15q-1.54,9.38-3.1,18.74l-6.26,6.23-9.24,12.49q-3.23-6.25-6.43-12.52l22-25C771,403.13,772,403.13,773,403.15Z" transform="translate(-420.09 -96.96)"/><path class="cls-257" d="M770,403.13l-22,25h-3.2l.12-6.24,18.79-15.59q1.51-4.66,3-9.33C767.8,399,768.88,401.06,770,403.13Z" transform="translate(-420.09 -96.96)"/><path class="cls-310" d="M691.74,484.34l-6.21,0c-4.77-.71-9.53-1.58-14.33-2-1.32-.12-2.77,1-4.16,1.61q1.44,1.77,2.87,3.55l-18.7-6.33c-.73-3.2-.39-8-2.37-9.34-11.54-7.63-13.65-19-17.23-31.42-4-13.69-1.07-23.34,6.62-33.46,1.55-2,2.38-4.62,3.54-6.94l7.62.56c-.48,4.87.8,11.26-1.81,14.29-5,5.81-4.72,8.65.6,14,8.19,8.21,16.71,5.42,21.58-.94,4-5.18,5-14.68,3.42-21.39-1.11-4.86-4.23-6.75,3-6.54q1.58,1.56,3.13,3.13C679.2,430.85,697.68,455.72,691.74,484.34Zm.92-15.07c-2.21-3.77-2.93-6.83-4.77-7.83a265.81,265.81,0,0,0-27.74-13.5c-2.28-.91-7.64,1.26-8.9,3.51-1.72,3.09-2.52,10-.89,11.12,9.15,6.18,18.79,12.06,29.07,15.82C682.24,479.41,687.85,472.75,692.66,469.27Z" transform="translate(-420.09 -96.96)"/><path class="cls-296" d="M641.77,400c-1.16,2.32-2,4.91-3.54,6.94-7.69,10.12-10.59,19.77-6.62,33.46,3.58,12.38,5.69,23.79,17.23,31.42,2,1.31,1.64,6.14,2.37,9.34-3.43-1.13-7.17-1.72-10.2-3.52-6.19-3.68-12-8-18-12.08l-6.23-6.2,3.1-3.16c-1.55-10.53-5.58-21.45-4-31.48,1.72-10.78,8.72-20.71,13.41-31l14.94-3.32C643.3,394.2,642.53,397.11,641.77,400Z" transform="translate(-420.09 -96.96)"/><path class="cls-311" d="M691.79,490.62,707.43,475l3.11,3.12,0,6.27q-3.23,6.08-6.46,12.13l-9.05.45Z" transform="translate(-420.09 -96.96)"/><path class="cls-312" d="M669.91,487.52,667,484c1.39-.57,2.84-1.73,4.16-1.61,4.8.44,9.56,1.31,14.33,2q3.08,3.08,6.14,6.17Z" transform="translate(-420.09 -96.96)"/><path class="cls-246" d="M619.92,456.23l-3.1,3.16-18.74-12.51q0-3.09-.11-6.18c0-1.07.07-2.15.11-3.23l15.59,15.65Z" transform="translate(-420.09 -96.96)"/><path class="cls-313" d="M710.57,484.4l0-6.27L727,466.72l5.15,14.4-2.43,3.49Z" transform="translate(-420.09 -96.96)"/><path class="cls-314" d="M738.46,500l-6.1,1.23q-1.38-5.2-2.75-10.43l5.85,2.85c1.12,1.14,2.24,2.29,3.37,3.43C738.69,498,738.57,499,738.46,500Z" transform="translate(-420.09 -96.96)"/><path class="cls-315" d="M739,509.74q4.17,7.71,8.33,15.41l-9-6.43C738.52,515.73,738.73,512.73,739,509.74Z" transform="translate(-420.09 -96.96)"/><path class="cls-316" d="M754.41,440.61l9.24-12.49a13.65,13.65,0,0,1,3.07,0c5.68,1.4,11.34,2.89,17,4.35l-7.59,14.25Zm8.18-5.39,1,5.5c4.13-.89,8.28-1.69,12.34-2.84.32-.09,0-2.59-.09-4Z" transform="translate(-420.09 -96.96)"/><path class="cls-317" d="M738.63,456.37q1.64-4.74,3.26-9.5l9.36,12.46,1.54.13,1.54-.1,8.74,8.93-8.86.31c-2.35-1.25-4.66-2.6-7.09-3.66-.33-.14-1.3,1.2-2,1.85l6.41,2.2-13.49,5.74q-1.3-6.09-2.62-12.18Z" transform="translate(-420.09 -96.96)"/><path class="cls-318" d="M754.33,459.36l-1.54.1-1.54-.13c.73-4-8-14.25,6.17-9.34,0,1.07,0,2.14,0,3.21Z" transform="translate(-420.09 -96.96)"/><path class="cls-318" d="M788.67,453.08l-28.19.2Z" transform="translate(-420.09 -96.96)"/><path class="cls-319" d="M735.45,462.55q1.32,6.09,2.62,12.18l-5.91,6.39L727,466.72l-16.47,11.41L707.43,475q1.56-4.69,3.11-9.39C717.24,451.53,725.74,452.09,735.45,462.55Z" transform="translate(-420.09 -96.96)"/><path class="cls-320" d="M760.79,491l-3.38-.19-6.48-3.68,28.33-2.91-6.73,2.63Z" transform="translate(-420.09 -96.96)"/><path class="cls-321" d="M750.93,487.16l6.48,3.68-18.59,6.21-3.36-3.43Z" transform="translate(-420.09 -96.96)"/><path class="cls-322" d="M772.53,486.88l6.73-2.63,15.34.68-12.08,5.85Z" transform="translate(-420.09 -96.96)"/><path class="cls-323" d="M751.56,469l-6.41-2.2c.67-.65,1.64-2,2-1.85,2.43,1.06,4.74,2.41,7.09,3.66l-1.29.42Z" transform="translate(-420.09 -96.96)"/><path class="cls-324" d="M970.49,474.85c.88.1,1.76.18,2.64.23a20.7,20.7,0,0,0,.34,2.61c-.06,2.24-.11,4.49-.16,6.73l-12.67,3-3.56-3.25c.31-.85.59-1.72.82-2.6a7,7,0,0,0,2.56-.52Z" transform="translate(-420.09 -96.96)"/><path class="cls-325" d="M951,490.74l-12.23,2.79q-.07-6.37-.14-12.75l12.54,4Q951.14,487.73,951,490.74Z" transform="translate(-420.09 -96.96)"/><path class="cls-326" d="M772.53,486.88l10,3.9-21.73.25Z" transform="translate(-420.09 -96.96)"/><path class="cls-327" d="M682,287.19l14.93,1c-.2,1-.39,1.9-.59,2.85L682,287.18Z" transform="translate(-420.09 -96.96)"/><path class="cls-328" d="M641.77,400c.76-2.92,1.53-5.83,2.52-9.61l-14.94,3.32q0-3.12,0-6.23l6.19-3.1,21.7-2.66,3.45-.55c4.41.08,8.89-.24,13.18.5,1.06.18,1.52,3.8,2.25,5.84q0,6.22.07,12.46c-7.22-.21-4.1,1.68-3,6.54,1.53,6.71.56,16.21-3.42,21.39-4.87,6.36-13.39,9.15-21.58.94-5.32-5.34-5.6-8.18-.6-14,2.61-3,1.33-9.42,1.81-14.29Z" transform="translate(-420.09 -96.96)"/><path class="cls-329" d="M657.44,375.13c.06,1.85.11,3.7.16,5.55l-12.72.64Z" transform="translate(-420.09 -96.96)"/><path class="cls-312" d="M691.74,484.34c5.94-28.62-12.54-53.49-12.44-81.21h6.23c5.1,16.6,11,33,15,49.87C703.27,464.37,701.78,475.9,691.74,484.34Z" transform="translate(-420.09 -96.96)"/><path class="cls-330" d="M735.45,462.55c-9.71-10.46-18.21-11-24.91,3.07-.44-2-1.54-4.1-1.22-6,1-5.84,2.5-11.6,3.81-17.39,5.41,2.1,10.91,4,16.21,6.39,2.27,1,4.14,3,6.19,4.47l3.1,3.25Z" transform="translate(-420.09 -96.96)"/><path class="cls-331" d="M685.53,403.13H679.3q-1.56-1.58-3.13-3.13,0-6.22-.07-12.46C689.7,386.41,682.09,398.11,685.53,403.13Z" transform="translate(-420.09 -96.96)"/><path class="cls-332" d="M763.69,406.27,744.9,421.86q6.26-7.8,12.52-15.61Z" transform="translate(-420.09 -96.96)"/><path class="cls-333" d="M692.66,469.27c-4.81,3.48-10.42,10.14-13.23,9.12-10.28-3.76-19.92-9.64-29.07-15.82-1.63-1.1-.83-8,.89-11.12,1.26-2.25,6.62-4.42,8.9-3.51a265.81,265.81,0,0,1,27.74,13.5C689.73,462.44,690.45,465.5,692.66,469.27Z" transform="translate(-420.09 -96.96)"/><path class="cls-334" d="M762.59,435.22l13.27-1.31c0,1.38.41,3.88.09,4-4.06,1.15-8.21,1.95-12.34,2.84Z" transform="translate(-420.09 -96.96)"/></svg>