<svg id="aaafdec0-95c8-49a3-a8f8-64216c6da511" xmlns="http://www.w3.org/2000/svg" viewBox="0 0 824 442.93"><defs><style>.cls-1{fill:#3f3d56;}.cls-2{opacity:0.1;}.cls-3{fill:none;stroke:#3f3d56;stroke-miterlimit:10;}.cls-4{fill:#6c63ff;}.cls-5{fill:#f2f2f2;}.cls-6{fill:#46455b;}.cls-7{fill:#a8a8a8;}.cls-8{opacity:0.2;}.cls-9{fill:#fff;}.cls-10{fill:#57b894;}</style></defs><title>message-sent</title><path class="cls-1" d="M612.42,605.46H227.59a47.6,47.6,0,0,1-47.54-47.59h0V381.56a18.83,18.83,0,0,1,5.89-13.68L389.81,174.57a43.89,43.89,0,0,1,60.39,0L644.63,358.88a49.28,49.28,0,0,1,15.42,35.76V557.87a47.58,47.58,0,0,1-47.57,47.59Z" transform="translate(0 -162.53)"/><g class="cls-2"><path d="M180.05,384.46h476V576.72a28.73,28.73,0,0,1-28.72,28.74H208.74a28.72,28.72,0,0,1-28.69-28.74h0Z" transform="translate(0 -162.53)"/></g><path class="cls-3" d="M179.5,373" transform="translate(0 -162.53)"/><rect class="cls-4" x="242.5" y="70.43" width="354" height="354" rx="26.18"/><g class="cls-2"><polygon points="596.5 229.88 596.5 424.43 242.5 424.43 242.5 229.88 419.5 315.43 596.5 229.88"/></g><path class="cls-1" d="M419.5,489,192.71,379.33a9.21,9.21,0,0,0-13.21,8.29v188.6A28.73,28.73,0,0,0,208.23,605H630.77a28.73,28.73,0,0,0,28.73-28.73h0V390.85a11.22,11.22,0,0,0-16.11-10.11Z" transform="translate(0 -162.53)"/><rect class="cls-5" x="273" y="102.93" width="99" height="14"/><rect class="cls-5" x="265" y="153.93" width="294" height="8"/><rect class="cls-5" x="265" y="180.93" width="294" height="8"/><rect class="cls-5" x="265" y="207.93" width="294" height="8"/><line class="cls-3" y1="442.43" x2="824" y2="442.43"/><path class="cls-6" d="M67.89,481.81c0,59,37,106.67,82.7,106.67" transform="translate(0 -162.53)"/><path class="cls-4" d="M150.59,588.46c0-59.62,41.28-107.87,92.29-107.87" transform="translate(0 -162.53)"/><path class="cls-4" d="M97.86,487.16c0,56,23.58,101.32,52.73,101.32" transform="translate(0 -162.53)"/><path class="cls-6" d="M150.59,588.46c0-76.18,47.71-137.83,106.67-137.83" transform="translate(0 -162.53)"/><path class="cls-7" d="M133.19,589.24s11.73-.37,15.27-2.88,18-5.53,18.92-1.49S185,605,171.76,605.05,141,603,137.47,600.84,133.19,589.24,133.19,589.24Z" transform="translate(0 -162.53)"/><g class="cls-8"><path d="M172.05,603.65c-13.25.11-30.77-2.06-34.3-4.21-2.68-1.64-3.76-7.51-4.11-10.22h-.4s.75,9.45,4.28,11.6,21,4.32,34.29,4.21c3.82,0,5.14-1.39,5.07-3.4C176.3,602.87,174.84,603.63,172.05,603.65Z" transform="translate(0 -162.53)"/></g><ellipse class="cls-9" cx="257" cy="76" rx="41" ry="41.07"/><path class="cls-10" d="M257.05,190.46a49,49,0,1,0,49,49A49,49,0,0,0,257.05,190.46ZM247,265.58l-25.12-25.12,7-7L247,251.55l38.19-38.18,7,7Z" transform="translate(0 -162.53)"/></svg>