<?xml version="1.0" encoding="utf-8"?>
<!-- Generator: Adobe Illustrator 23.0.2, SVG Export Plug-In . SVG Version: 6.00 Build 0)  -->
<svg version="1.1" id="a9ccde41-918e-4602-ae58-152cec57a8c1"
	 xmlns="http://www.w3.org/2000/svg" xmlns:xlink="http://www.w3.org/1999/xlink" x="0px" y="0px" viewBox="0 0 861.2 633.9"
	 style="enable-background:new 0 0 861.2 633.9;" xml:space="preserve">
<style type="text/css">
	.st0{fill:#E6E6E6;}
	.st1{fill:#FEB8B8;}
	.st2{fill:#2F2E41;}
	.st3{opacity:0.1;enable-background:new    ;}
</style>
<rect y="597.6" class="st0" width="502" height="2.8"/>
<path class="st0" d="M187.9,103.3h-5.6l-23.6,85.6c0,0-0.5,56.9,5.1,84.7c0,0,9.3-12,15.7-12s12.5-60.6,12.5-60.6
	S217.5,114.4,187.9,103.3z"/>
<path class="st1" d="M310.1,267.1c0,0-14.8,41.7-0.9,44.4s21.3-32.4,17.6-37S310.1,267.1,310.1,267.1z"/>
<path class="st1" d="M162.4,258.5c0,0,4.2,44,17.9,40.7s5.6-38.4,0.3-41S162.4,258.5,162.4,258.5z"/>
<path class="st1" d="M198.1,516.1c0,0,6.5,31.5-4.6,39.8s3.7,25.9,3.7,25.9l35.2-37c0,0-14.8-23.1-13.9-37L198.1,516.1z"/>
<polygon class="st1" points="253.6,544.8 249.9,569.8 249,587.4 269.4,585.5 272.2,549.4 "/>
<path class="st2" d="M175.3,262.9c0,0-11.4,4.2-10.5,16.2s3.7,50,3.7,50s-8.3,81.5,0,109.2s24.1,83.3,24.1,83.3s24.1,4.6,29.6-13
	c0,0-0.9-60.2-11.1-73.1s-2.8-16.7-1.9-18.5s3.7-4.6,3.7-7.4s0.9-13,0.9-16.7s-0.9-2.8,0.9-8.3s3.7-7.4,3.7-8.3s15.7-50,15.7-50
	l20.4,113.8c0,0-4.6,112-2.8,112s22.2,7.4,29.6,0c0,0,18.5-96.3,14.8-101.8s-4.6-6.5-3.7-12s2.8-8.3,0.9-11.1s-4.6-12-1.9-14.8
	s3.7-15.7,3.7-15.7s15.7-90.7,5.6-103.7S175.3,262.9,175.3,262.9z"/>
<path class="st2" d="M206.4,556.9c0,0-11.1-13.9-14.8-7.4s-9.3,16.7-9.3,16.7s-41.7,36.1-18.5,37s37.9-15.7,37.9-15.7
	s3.7-18.5,14.8-18.5l1.9,4.6l20.4-13c0,0-2.9-24.6-11.2-23.9L206.4,556.9z"/>
<path class="st2" d="M245.3,584.6c0,0,24.1-9.3,26.8,0s2.8,13.9,2.8,13.9s20.4,33.3,0,35.2s-29.6-11.1-29.6-11.1s2.8-15.7,0-17.6
	S245.3,584.6,245.3,584.6z"/>
<circle class="st1" cx="262" cy="41.3" r="32.4"/>
<path class="st1" d="M237.9,48.7l-6.5,36.1l45.4,11.1c0,0-10.6-26.4,0.9-37.9C280.6,55,237.9,48.7,237.9,48.7z"/>
<path class="st0" d="M234.2,69.4c-2.2,0.4-4,2.1-4.6,4.3c-0.8,2.7-2.1,5.2-3.7,7.4c0,0-43.5,20.4-43.5,23.1s17.6,62,17.6,62
	s0.9,37-6.5,45.4s-14.8,38.9-13,41.7s-13,9.3-7.4,13.9s83.3,49.1,129.6,28.7c0,0,0.9-8.3,0-13.9s5.6-24.1,3.7-30.5s0-73.1,0-73.1
	l9.5-78.9c0.4-3.1-1.5-6-4.5-6.9c-10.7-3.2-35.4-16.5-38.8-13.7C268.2,82.5,240.7,80,234.2,69.4z"/>
<path class="st0" d="M307.3,92.2L307.3,92.2c2.8-1.1,5.9-0.2,7.6,2.1c5.7,7.8,17.8,25.5,19.2,36.7c1.9,14.8,7.4,54.6,6.5,60.2
	s-1.9,6.5,0,9.3s0.9,1.9,0,4.6s-12,79.6-12,79.6s-7.4-16.7-21.3-11.1c0,0,1.9-14.8,0-19.4s-3.7-7.4-1.9-11.1s0-39.8-0.9-43.5
	s0-23.1,0-23.1l-8.3-37.9L307.3,92.2z"/>
<path class="st2" d="M255.9,47l1.1-7.6c0.3-1.8,1.3-4.1,3-3.6c1.5,0.4,4.7,1.7,5.2,1.3c2-1.4,5.1,1.1,7.2-0.2
	c0.9-0.5,1.5-1.7,2.5-1.7c0.7,0,1.3,0.3,1.8,0.8c1.4,1.2,3,2.1,4.7,2.6c1.8,0.5,3.7,0,5-1.4c0.2-0.3,0.5-0.6,0.9-0.8
	c0.4-0.1,0.9-0.1,1.3,0.1l7.6,3.8c5.5-2.8,1.9-13.4-1.5-18.4c-2.2-3-4.7-7.1-7.7-9.2c-3.3-2.5-7.6-8.5-14.1-9.2
	c-3.9-2.5-7.9-2.3-12.5-3c-4.6-0.7-9.7,0.5-12.5,4.2c-1.3-1-2.4-2.3-2.9-3.9c-1.2,1.1-1.3,3-0.2,4.2c0.1,0.1,0.2,0.3,0.4,0.4
	l-4.6-2.9c-1.3,1.3,1.2,3.8,0.1,5.3c-0.3,0.4-0.8,0.6-1.2,0.8c-2.5,1-4.8,2.4-6.7,4.2c-2.6,2.6-4.1,6.2-5.3,9.7
	c-2.7,7.8-4.4,10.2-0.5,17.5c0.3,1.3,2.5,11.6,6.2,3.9c3.7-7.6,2.4,4.4,2.4,3.4c0-3.4,3.1-0.7,1.3-3.6c1.5,2,1.9,3.8,4.1,5.5
	c1.7,1.2,0.1-5.3,1.9-6.3c0.9-0.6,1.5-1.3,1-4.5c-0.3-2.1,2.5-2.3,4.6-2.6c0.5-0.1,2.1,0.9,4.3,6C252.8,44.9,255.9,47.3,255.9,47z"
	/>
<path class="st3" d="M300.5,120.5l8.2,92.5C308.7,213,291.4,135.4,300.5,120.5z"/>
<path class="st0" d="M148.4,440.6c-13.3,18.7-16.8,125.3-17.5,159.5c0,0.8,0,1.5,0,2.2H97.3c-0.4-0.7-0.8-1.5-1.1-2.2
	c-19.9-39.2-8.9-86.3-8.3-88.7c-1.5,7.5,5.3,29.2,13,50.2C105.6,497,145.9,443.9,148.4,440.6z"/>
</svg>
