<?xml version="1.0" encoding="utf-8"?>
<!-- Generator: Adobe Illustrator 23.0.2, SVG Export Plug-In . SVG Version: 6.00 Build 0)  -->
<svg version="1.1" id="a379d9a4-f6fe-40d1-beba-a0916853bd02"
	 xmlns="http://www.w3.org/2000/svg" xmlns:xlink="http://www.w3.org/1999/xlink" x="0px" y="0px" viewBox="0 0 938.8 806.7"
	 style="enable-background:new 0 0 938.8 806.7;" xml:space="preserve">
<style type="text/css">
	.st0{fill:#FF6584;}
	.st1{fill:#E6E6E6;}
	.st2{fill:#FEB8B8;}
	.st3{fill:#2F2E41;}
	.st4{fill:#FFB8B8;}
	.st5{fill:#6C63FF;}
	.st6{opacity:0.2;enable-background:new    ;}
	.st7{fill:#3F3D56;}
	.st8{fill:#FFFFFF;}
</style>
<circle class="st0" cx="75.4" cy="147.5" r="75.4"/>
<rect x="253.8" y="672.3" class="st1" width="685" height="2.2"/>
<path class="st1" d="M874.4,632.4c-0.3,12.8-2.5,25.5-6.4,37.8c-0.1,0.3-0.2,0.6-0.3,0.8h-23.8c0-0.3,0.1-0.5,0.1-0.8
	c1.6-18.3,10.7-129.4-0.2-148.4C844.7,523.3,876.2,574.4,874.4,632.4z"/>
<path class="st1" d="M872.6,670.2c-0.2,0.3-0.4,0.6-0.6,0.8h-17.9c0.1-0.2,0.3-0.5,0.5-0.8c3-5.3,11.7-21.3,19.8-37.8
	c8.7-17.7,16.7-36.2,16-42.8C890.6,591.1,896.6,636.9,872.6,670.2z"/>
<path class="st2" d="M692.2,739.4l3.3-27.5l94-24.1l-10.8-32.4c7.5-21.6,20.8-32.2,44.9-21.6l41.6,25.8c8.2,5.1,13,14.3,12.5,24l0,0
	c-0.5,9.7-6.3,18.4-15.1,22.5C816.1,728.1,756.8,736.5,692.2,739.4z"/>
<path class="st3" d="M698,747.7l-29.1-4.2l-27.2,5.6c-6.4,1.3-12.6-2.8-13.9-9.2c-0.1-0.6-0.2-1.2-0.2-1.9l0,0
	c-0.2-3.9,1.6-7.6,4.7-9.9l42.7-32.2c7.6-5.7,18.1-5.1,25,1.5l10.6,10.2c-7.6,4.7-13.3,11.8-16.6,21.6
	C701.2,733.4,702.6,739.5,698,747.7z"/>
<circle class="st2" cx="725.9" cy="432.5" r="26.9"/>
<path class="st2" d="M767.9,485.6L707.6,511c4.9-24.6,7.3-47,0-60.7l38.7-4.6C744.4,456.2,754.2,470.3,767.9,485.6z"/>
<path class="st4" d="M665.6,738.5l-22.5-1.7c-13.8-57.4-20.8-111.6-17.7-161.1c0.9-15,13.5-26.6,28.6-26.3l0,0
	c7,0.2,13.6,2.9,18.6,7.7l29,27.6c13,12.2,23,27.2,29.4,43.8c8.2,21.5,5.3,33.6-14.4,31.6c-12.3-1.4-23.6-7.4-31.6-16.8l-21.2-24.7
	L665.6,738.5z"/>
<path class="st3" d="M648.2,806.7L648.2,806.7c-10.6-0.7-18.6-9.8-17.9-20.4c0.1-1.7,0.4-3.4,1-5l4.4-12.9L639,736
	c5.1-10.5,12.4-8.9,20.8-0.8c5.3-0.5,6.5-5.9,5.8-13.3l16.9,22.7c2.9,4,3.5,9.2,1.5,13.7l-17,37.2
	C663.6,802.8,656.2,807.2,648.2,806.7z"/>
<path class="st3" d="M860.7,656.6c-30.8,17.5-40.4,18-71.1,30.4L763,672c-31.3,11.6-53.2-4.3-77-27.9c15.5-25.9,8.7-59.5,18.3-59.1
	l115.2,36.2l5,12.5L860.7,656.6z"/>
<path class="st5" d="M823.7,629.5c-40.7,17.6-84.5-1-121.9-42l-24.8-100c-1.2-4.5,1.5-9,5.9-10.2c0.2,0,0.3-0.1,0.5-0.1l28.7-5.7
	l14.1,22.5l28.3-25l30,9.8c8.1,2.7,14.1,9.6,15.6,18L823.7,629.5z"/>
<path class="st6" d="M759,714.3L759,714.3c-7.6-2.9-11.4-11.4-8.5-19c0.6-1.6,1.4-3,2.5-4.3l19-22.4l13.3,7.5l-6.9,27.9
	c-1.9,7.9-9.9,12.7-17.8,10.8C760.2,714.7,759.6,714.5,759,714.3z"/>
<path class="st4" d="M759,711L759,711c-7.6-2.9-11.4-11.4-8.5-19c0.6-1.6,1.4-3,2.5-4.3l19-22.4l13.3,7.5l-6.9,27.9
	c-1.9,7.9-9.9,12.7-17.8,10.8C760.2,711.4,759.6,711.2,759,711z"/>
<path class="st5" d="M788.7,679.5l-20-13.3l29.1-77.4l-10.8-109l9.9,6.2c10.7,6.7,18.2,17.5,20.7,29.8l16,78
	C826.6,629.7,815,661.3,788.7,679.5z"/>
<polygon class="st6" points="776.7,555.9 786.6,605.8 778.4,635 "/>
<path class="st3" d="M699.5,430.2c0,0-15.5-50.8,31.9-40.1c7.4,1.7,13.7,5.9,18.8,11.5c0.9,1,2.2,1.5,3.6,1.5
	c7.6,0,12.3,27.1-2.9,39c0,0,3.1-16-2.5-21.5c-1-0.9-1.9-2-2.5-3.2c-3.7-7.4-16-9.8-24.4-9.2c-4.3,0.3-4.7,7.9-9.5,6.8
	C701,412.6,697.5,425.2,699.5,430.2z"/>
<path class="st1" d="M747.3,505.6l-0.3,2.3l-1.9,14.2l-3.2,23.2l-0.8,5.8c-0.1,0.9-0.9,1.6-1.8,1.6H718c-0.9,0-1.7-0.7-1.8-1.6
	l-0.8-5.8l-3.2-23.2l-2-14.2l-0.3-2.3c-0.1-1,0.6-1.9,1.6-2.1c0.1,0,0.2,0,0.3,0h33.7c1,0,1.9,0.8,1.9,1.9
	C747.3,505.4,747.3,505.5,747.3,505.6z"/>
<path class="st7" d="M713.9,497.3h29.4c1,0,1.9,0.8,1.9,1.9l0,0v2.4c0,1-0.8,1.9-1.9,1.9l0,0h-29.4c-1,0-1.9-0.8-1.9-1.9l0,0v-2.4
	C712.1,498.2,712.9,497.3,713.9,497.3L713.9,497.3z"/>
<path class="st7" d="M749.9,506.6c-14.1,1.5-28.4,1.5-42.6,0c-1,0-1.9-0.8-1.9-1.9l0,0l0,0v-2.4c0-1,0.8-1.9,1.9-1.9
	c14.1,1.7,28.4,1.7,42.6,0c1,0,1.9,0.8,1.9,1.9v2.4C751.8,505.7,750.9,506.6,749.9,506.6z"/>
<circle class="st8" cx="727.8" cy="527" r="8"/>
<path class="st4" d="M748.3,543.8L748.3,543.8c0.8,8.1-5,15.3-13.1,16.1c-1.7,0.2-3.3,0.1-4.9-0.3l-28.6-6.9l0.7-15.3l28-6.5
	c7.9-1.8,15.8,3.1,17.6,11C748.2,542.6,748.3,543.2,748.3,543.8z"/>
<path class="st5" d="M709.7,555.5l-77.2,1.9c-10.6,0.3-19.4-8.1-19.6-18.7c0-1.1,0-2.1,0.2-3.2l0,0c0.6-4.3,2.7-8.3,5.9-11.3
	l36.3-34c6.7-6.3,15.1-10.6,24.2-12.3l12.7-2.4l7.5,56.6l-43.3-5l50.7,5.8L709.7,555.5z"/>
<path class="st3" d="M608,721.5H411c-3.6,0-6.6-3-6.6-6.6l0,0l0,0c71.4-8.3,141.5-8.3,210.2,0l0,0
	C614.6,718.5,611.7,721.5,608,721.5L608,721.5z"/>
<path class="st7" d="M589,674.3l25.6,41l-210.2-0.4l24.4-41l0.1-0.2"/>
<path class="st3" d="M580.6,575c4.6,0,8.4,3.7,8.4,8.3"/>
<path class="st7" d="M437.2,575L437.2,575h143.4"/>
<path class="st7" d="M428.9,583.4c0-4.6,3.7-8.4,8.3-8.4"/>
<path class="st7" d="M428.9,673.7v-90.3"/>
<path class="st3" d="M438,679.5c-0.5,0-0.9,0.3-1.1,0.7l-7.5,16.3c-0.3,0.6,0,1.3,0.6,1.5c0.2,0.1,0.3,0.1,0.5,0.1h157.9
	c0.6,0,1.2-0.5,1.2-1.2c0-0.2,0-0.4-0.1-0.5l-8.2-16.3c-0.2-0.4-0.6-0.6-1-0.6H438z"/>
<circle class="st8" cx="508.9" cy="577.7" r="1.7"/>
<path class="st3" d="M493.4,701.3c-0.5,0-1,0.4-1.1,0.9l-1.9,7c-0.2,0.6,0.2,1.3,0.8,1.4c0.1,0,0.2,0,0.3,0h35.8
	c0.6,0,1.2-0.5,1.2-1.2c0-0.1,0-0.3-0.1-0.4l-2.4-7c-0.2-0.5-0.6-0.8-1.1-0.8L493.4,701.3L493.4,701.3z"/>
<polyline class="st3" points="428.9,672.4 589,672.4 589,674.3 428.8,674.3 428.9,674.1 428.9,672.4 "/>
<path class="st1" d="M360.9,622.5c0.4,16.4,3.2,32.7,8.2,48.4c0.1,0.4,0.2,0.7,0.4,1.1H400c0-0.3-0.1-0.7-0.1-1.1
	c-2-23.4-13.8-165.9,0.3-190.2C398.9,482.7,358.5,548.1,360.9,622.5z"/>
<path class="st1" d="M363.2,672.7c0.3,0.4,0.5,0.7,0.8,1.1h22.9c-0.2-0.3-0.4-0.7-0.6-1.1c-3.8-6.8-15-27.2-25.4-48.4
	c-11.2-22.7-21.4-46.4-20.6-54.9C340.1,571.3,332.3,630.1,363.2,672.7z"/>
<path class="st7" d="M414.9,175.2l12.4-9.9c-9.6-1.1-13.6,4.2-15.2,8.4c-7.5-3.1-15.7,1-15.7,1l24.8,9
	C419.9,180.2,417.7,177.3,414.9,175.2z"/>
<path class="st7" d="M788.7,124.1l12.4-9.9c-9.6-1.1-13.6,4.2-15.2,8.4c-7.5-3.1-15.7,1-15.7,1l24.8,9
	C793.8,129.1,791.6,126.2,788.7,124.1z"/>
<path class="st7" d="M717.3,255.8l12.4-9.9c-9.6-1.1-13.6,4.2-15.2,8.4c-7.5-3.1-15.7,1-15.7,1l24.8,9
	C722.3,260.9,720.1,258,717.3,255.8z"/>
<ellipse transform="matrix(0.9841 -0.1774 0.1774 0.9841 -37.0893 37.1846)" class="st1" cx="189.4" cy="226" rx="112.1" ry="228.7"/>
<path class="st7" d="M171,183.1c9.9,26.8,18.6,54,26.3,81.5C205,292.2,211.6,320,217,348c5.5,28.1,9.8,56.3,13,84.7
	c3.2,28.4,5.2,56.9,6.1,85.4c0.9,28.5,0.7,57.1-0.7,85.7c-0.2,3.5-0.4,7-0.6,10.5c-0.2,3.6,5.4,3.6,5.6,0
	c1.7-28.6,2.2-57.3,1.6-86.1c-0.6-28.6-2.4-57.1-5.3-85.5c-2.9-28.5-7-56.9-12.1-85.1c-5.2-28.2-11.5-56.2-18.9-84
	c-7.4-27.7-16-55.1-25.6-82.2c-1.2-3.3-2.4-6.6-3.6-9.9C175.2,178.3,169.8,179.8,171,183.1L171,183.1z"/>
<path class="st7" d="M209.4,288.6l24.7-54.8l7-15.4c0.7-1.3,0.3-3-1-3.8s-3-0.3-3.8,1l-24.7,54.8l-7,15.4c-0.7,1.3-0.3,3,1,3.8
	C206.9,290.4,208.6,289.9,209.4,288.6L209.4,288.6z"/>
<path class="st7" d="M214.9,326.1L158.6,305l-15.9-5.9c-1.5-0.4-3,0.5-3.4,1.9c-0.4,1.5,0.5,3,1.9,3.4l56.3,21.1l15.9,5.9
	c1.5,0.4,3-0.5,3.4-1.9C217.2,328,216.3,326.5,214.9,326.1L214.9,326.1z"/>
<path class="st1" d="M171.1,625c0,0,67.8-22.3,130.9,0"/>
<path class="st5" d="M474.4,614.4c13.4-0.1,26.9-0.4,40.3-0.6c4.5-0.1,9-0.1,13.4-0.2c3.9,0,3.9-6,0-6c-13.4,0.1-26.9,0.4-40.3,0.6
	c-4.5,0.1-9,0.1-13.4,0.2C470.5,608.5,470.5,614.5,474.4,614.4z"/>
<path class="st5" d="M474.4,628.4l54.3-0.6l15.4-0.2c3.9,0,3.9-6,0-6l-54.3,0.6l-15.4,0.2C470.5,622.5,470.5,628.5,474.4,628.4z"/>
<path class="st5" d="M474.4,642.4l54.3-0.6l15.4-0.2c3.9,0,3.9-6,0-6l-54.3,0.6l-15.4,0.2C470.5,636.5,470.5,642.5,474.4,642.4z"/>
<polyline class="st3" points="589,582.4 589,674.1 587.7,674.1 587.7,582.4 587.9,582.4 589,582.4 "/>
<path class="st3" d="M587,580.3c1.3,1.1,1.9,2.7,1.2,3.6"/>
<path class="st3" d="M578.5,575.5c1.7-0.9,3.6-0.6,4.2,0.5"/>
<polyline class="st3" points="582.4,576.3 435.3,576 435.3,575 582.5,575.3 582.4,575.4 582.4,576.3 "/>
<polyline class="st3" points="429.9,582.8 429.9,674.4 428.7,674.4 428.7,582.7 428.8,582.8 429.9,582.8 "/>
<path class="st3" d="M433.4,578.6c-3.7,1.1-5.9,4.9-4.9,8.4"/>
</svg>
